<svg width="108" height="67" viewBox="0 0 108 67" fill="none" xmlns="http://www.w3.org/2000/svg">
<rect y="40.2334" width="107.371" height="26.4043" fill="#D4D4D4"/>
<path d="M43.0646 55.912C38.1499 55.912 33.9446 54.772 30.4486 52.492C26.9526 50.1613 24.2419 46.944 22.3166 42.84C20.4419 38.6853 19.5046 33.872 19.5046 28.4C19.5046 22.9787 20.4419 18.1907 22.3166 14.036C24.2419 9.88133 26.9526 6.664 30.4486 4.384C33.9446 2.05333 38.1499 0.887999 43.0646 0.887999C47.9793 0.887999 52.1846 2.05333 55.6806 4.384C59.1766 6.664 61.8619 9.88133 63.7366 14.036C65.6619 18.1907 66.6246 22.9787 66.6246 28.4C66.6246 33.872 65.6619 38.6853 63.7366 42.84C61.8619 46.944 59.1766 50.1613 55.6806 52.492C52.1846 54.772 47.9793 55.912 43.0646 55.912ZM43.0646 47.172C47.0673 47.172 50.3353 45.5 52.8686 42.156C55.4019 38.812 56.6686 34.2267 56.6686 28.4C56.6686 22.5733 55.4019 17.988 52.8686 14.644C50.3353 11.3 47.0673 9.628 43.0646 9.628C39.0113 9.628 35.7179 11.3 33.1846 14.644C30.7019 17.988 29.4606 22.5733 29.4606 28.4C29.4606 34.2267 30.7019 38.812 33.1846 42.156C35.7179 45.5 39.0113 47.172 43.0646 47.172ZM80.9856 55V12.896L72.2456 14.948V7.5L85.0896 1.8H91.0936V55H80.9856Z" fill="#022A4D"/>
</svg>
