<svg width="115" height="67" viewBox="0 0 115 67" fill="none" xmlns="http://www.w3.org/2000/svg">
<rect y="40.2334" width="107.371" height="26.4043" fill="#D4D4D4"/>
<path d="M43.0646 55.912C38.1499 55.912 33.9446 54.772 30.4486 52.492C26.9526 50.1613 24.2419 46.944 22.3166 42.84C20.4419 38.6853 19.5046 33.872 19.5046 28.4C19.5046 22.9787 20.4419 18.1907 22.3166 14.036C24.2419 9.88133 26.9526 6.664 30.4486 4.384C33.9446 2.05333 38.1499 0.887999 43.0646 0.887999C47.9793 0.887999 52.1846 2.05333 55.6806 4.384C59.1766 6.664 61.8619 9.88133 63.7366 14.036C65.6619 18.1907 66.6246 22.9787 66.6246 28.4C66.6246 33.872 65.6619 38.6853 63.7366 42.84C61.8619 46.944 59.1766 50.1613 55.6806 52.492C52.1846 54.772 47.9793 55.912 43.0646 55.912ZM43.0646 47.172C47.0673 47.172 50.3353 45.5 52.8686 42.156C55.4019 38.812 56.6686 34.2267 56.6686 28.4C56.6686 22.5733 55.4019 17.988 52.8686 14.644C50.3353 11.3 47.0673 9.628 43.0646 9.628C39.0113 9.628 35.7179 11.3 33.1846 14.644C30.7019 17.988 29.4606 22.5733 29.4606 28.4C29.4606 34.2267 30.7019 38.812 33.1846 42.156C35.7179 45.5 39.0113 47.172 43.0646 47.172ZM73.5465 55V47.932C76.7892 45.2467 79.9305 42.5867 82.9705 39.952C86.0612 37.3173 88.7972 34.708 91.1785 32.124C93.6105 29.54 95.5359 27.032 96.9545 24.6C98.4239 22.1173 99.1585 19.7107 99.1585 17.38C99.1585 15.2013 98.5505 13.276 97.3345 11.604C96.1692 9.932 94.2185 9.096 91.4825 9.096C88.6959 9.096 86.5932 10.008 85.1745 11.832C83.7559 13.656 83.0465 15.86 83.0465 18.444H73.6225C73.7239 14.5427 74.5852 11.3 76.2065 8.716C77.8279 6.08133 79.9812 4.13066 82.6665 2.864C85.3519 1.54666 88.3665 0.887999 91.7105 0.887999C97.1319 0.887999 101.337 2.38266 104.327 5.372C107.367 8.31066 108.887 12.136 108.887 16.848C108.887 19.7867 108.203 22.6493 106.835 25.436C105.517 28.2227 103.769 30.908 101.591 33.492C99.4119 36.076 97.0559 38.508 94.5225 40.788C91.9892 43.0173 89.5319 45.0947 87.1505 47.02H110.179V55H73.5465Z" fill="#022A4D"/>
</svg>
