<svg width="117" height="67" viewBox="0 0 117 67" fill="none" xmlns="http://www.w3.org/2000/svg">
<rect y="40.2334" width="107.371" height="26.4043" fill="#D4D4D4"/>
<path d="M43.0646 55.912C38.1499 55.912 33.9446 54.772 30.4486 52.492C26.9526 50.1613 24.2419 46.944 22.3166 42.84C20.4419 38.6853 19.5046 33.872 19.5046 28.4C19.5046 22.9787 20.4419 18.1907 22.3166 14.036C24.2419 9.88133 26.9526 6.664 30.4486 4.384C33.9446 2.05333 38.1499 0.887999 43.0646 0.887999C47.9793 0.887999 52.1846 2.05333 55.6806 4.384C59.1766 6.664 61.8619 9.88133 63.7366 14.036C65.6619 18.1907 66.6246 22.9787 66.6246 28.4C66.6246 33.872 65.6619 38.6853 63.7366 42.84C61.8619 46.944 59.1766 50.1613 55.6806 52.492C52.1846 54.772 47.9793 55.912 43.0646 55.912ZM43.0646 47.172C47.0673 47.172 50.3353 45.5 52.8686 42.156C55.4019 38.812 56.6686 34.2267 56.6686 28.4C56.6686 22.5733 55.4019 17.988 52.8686 14.644C50.3353 11.3 47.0673 9.628 43.0646 9.628C39.0113 9.628 35.7179 11.3 33.1846 14.644C30.7019 17.988 29.4606 22.5733 29.4606 28.4C29.4606 34.2267 30.7019 38.812 33.1846 42.156C35.7179 45.5 39.0113 47.172 43.0646 47.172ZM92.6136 55.912C89.1176 55.912 85.951 55.304 83.1136 54.088C80.2763 52.8213 77.9963 50.896 76.2736 48.312C74.551 45.728 73.639 42.4853 73.5376 38.584H83.1136C83.1643 41.168 84.0003 43.3467 85.6216 45.12C87.2936 46.8427 89.6243 47.704 92.6136 47.704C95.451 47.704 97.6296 46.9187 99.1496 45.348C100.67 43.7773 101.43 41.8013 101.43 39.42C101.43 36.6333 100.416 34.5307 98.3896 33.112C96.4136 31.6427 93.855 30.908 90.7136 30.908H86.7616V22.928H90.7896C93.3736 22.928 95.527 22.32 97.2496 21.104C98.9723 19.888 99.8336 18.0893 99.8336 15.708C99.8336 13.732 99.175 12.1613 97.8576 10.996C96.591 9.78 94.8176 9.172 92.5376 9.172C90.055 9.172 88.1043 9.90666 86.6856 11.376C85.3176 12.8453 84.5576 14.644 84.4056 16.772H74.9056C75.1083 11.8573 76.8056 7.98133 79.9976 5.144C83.2403 2.30667 87.4203 0.887999 92.5376 0.887999C96.1856 0.887999 99.251 1.54666 101.734 2.864C104.267 4.13066 106.167 5.828 107.434 7.956C108.751 10.084 109.41 12.44 109.41 15.024C109.41 18.0133 108.574 20.5467 106.902 22.624C105.28 24.6507 103.254 26.0187 100.822 26.728C103.811 27.336 106.243 28.8053 108.118 31.136C109.992 33.416 110.93 36.304 110.93 39.8C110.93 42.7387 110.22 45.424 108.802 47.856C107.383 50.288 105.306 52.2387 102.57 53.708C99.8843 55.1773 96.5656 55.912 92.6136 55.912Z" fill="#022A4D"/>
</svg>
