<svg width="72" height="73" viewBox="0 0 72 73" fill="none" xmlns="http://www.w3.org/2000/svg">
<g id="Frame" clip-path="url(#clip0_725_565)">
<path id="Vector" d="M17.8636 66.4546V63.1818C17.8636 61.3205 13.3636 58.2932 9.6818 58.2932C5.99999 58.2932 1.5 61.3205 1.5 63.1818V73" stroke="#F15A28"/>
<path id="Vector_2" d="M9.68252 58.2112C12.628 58.2112 14.5916 55.7157 14.5916 52.6271V50.7657C14.5916 47.6771 12.628 45.1816 9.68252 45.1816C6.73707 45.1816 4.77344 47.6771 4.77344 50.7657V52.6271C4.77344 55.7157 6.73707 58.2112 9.68252 58.2112Z" stroke="#F15A28"/>
<path id="Vector_3" d="M37.5003 53.3632V50.0905C37.5003 48.2292 33.0003 45.2019 29.3185 45.2019C25.6367 45.2019 21.1367 48.2292 21.1367 50.0905V56.636" stroke="#F15A28"/>
<path id="Vector_4" d="M29.3183 45.1206C32.2637 45.1206 34.2273 42.6251 34.2273 39.5365V37.6751C34.2273 34.5865 32.2637 32.0911 29.3183 32.0911C26.3728 32.0911 24.4092 34.5865 24.4092 37.6751V39.5365C24.4092 42.6251 26.3728 45.1206 29.3183 45.1206Z" stroke="#F15A28"/>
<path id="Vector_5" d="M47.3177 30.4547V25.5456C47.3177 23.6842 42.8177 20.657 39.1359 20.657C35.4541 20.657 30.9541 23.6842 30.9541 25.5456V27.182" stroke="#F15A28"/>
<path id="Vector_6" d="M39.1366 20.5747C42.0821 20.5747 44.0457 18.0792 44.0457 14.9906V13.1292C44.0457 10.0406 42.0821 7.54517 39.1366 7.54517C36.1912 7.54517 34.2275 10.0406 34.2275 13.1292V14.9906C34.2275 18.0792 36.1912 20.5747 39.1366 20.5747Z" stroke="#F15A28"/>
<path id="Vector_7" d="M59.5085 61.7703C63.4972 56.9635 65.3176 51.0726 65.3176 43.5454V15.7272H70.2267L61.0222 1L52.2267 15.7272H57.1358V43.5454C57.1358 60.4203 43.0222 71.3635 27.6813 71.3635H12.9541" stroke="#323232"/>
<path id="Vector_8" d="M36.7021 61.1771C45.2726 56.9635 45.9681 48.618 46.2136 45.5499C46.4181 43.0953 46.4795 42.2976 46.4795 42.2976" stroke="#323232"/>
</g>
<defs>
<clipPath id="clip0_725_565">
<rect width="71" height="73" fill="white" transform="translate(0.5)"/>
</clipPath>
</defs>
</svg>
