<svg width="80" height="75" viewBox="0 0 80 75" fill="none" xmlns="http://www.w3.org/2000/svg">
<g id="Frame">
<g id="Page-1">
<g id="MKTG-2887-Service-page">
<g id="Group-25-Copy">
<path id="Stroke-1" fill-rule="evenodd" clip-rule="evenodd" d="M31.273 28.8594C30.3191 28.8594 29.5449 28.0852 29.5449 27.1313V23.6751C29.5449 21.705 35.2563 18.4907 39.917 18.4907H39.9101C44.5708 18.4907 50.2822 21.705 50.2822 23.6751V27.1313C50.2822 28.0852 49.508 28.8594 48.5541 28.8594H31.273Z" stroke="#F15A28"/>
<path id="Stroke-3" fill-rule="evenodd" clip-rule="evenodd" d="M39.9137 18.4908C44.0698 18.4908 46.8261 15.1763 46.8261 11.0859V8.6164C46.8261 4.52423 44.0698 1.20972 39.9137 1.20972C35.7576 1.20972 33.0012 4.52423 33.0012 8.6164V11.0859C33.0012 15.1763 35.7576 18.4908 39.9137 18.4908Z" stroke="#F15A28"/>
<path id="Stroke-5" fill-rule="evenodd" clip-rule="evenodd" d="M31.273 73.7903C30.3191 73.7903 29.5449 73.0161 29.5449 72.0622V68.606C29.5449 66.6359 35.2563 63.4216 39.917 63.4216H39.9101C44.5708 63.4216 50.2822 66.6359 50.2822 68.606V72.0622C50.2822 73.0161 49.508 73.7903 48.5541 73.7903H31.273Z" stroke="#F15A28"/>
<path id="Stroke-7" fill-rule="evenodd" clip-rule="evenodd" d="M39.9137 63.4217C44.0698 63.4217 46.8261 60.1072 46.8261 56.0168V53.5473C46.8261 49.4551 44.0698 46.1406 39.9137 46.1406C35.7576 46.1406 33.0012 49.4551 33.0012 53.5473V56.0168C33.0012 60.1072 35.7576 63.4217 39.9137 63.4217Z" stroke="#F15A28"/>
<path id="Stroke-9" fill-rule="evenodd" clip-rule="evenodd" d="M3.62337 53.053C2.66946 53.053 1.89526 52.2788 1.89526 51.3249V47.8687C1.89526 45.8986 7.60667 42.6843 12.2674 42.6843H12.2605C16.9212 42.6843 22.6326 45.8986 22.6326 47.8687V51.3249C22.6326 52.2788 21.8584 53.053 20.9045 53.053H3.62337Z" stroke="#F15A28"/>
<path id="Stroke-11" fill-rule="evenodd" clip-rule="evenodd" d="M12.264 42.6844C16.4201 42.6844 19.1764 39.3699 19.1764 35.2795V32.81C19.1764 28.7178 16.4201 25.4033 12.264 25.4033C8.1079 25.4033 5.35156 28.7178 5.35156 32.81V35.2795C5.35156 39.3699 8.1079 42.6844 12.264 42.6844Z" stroke="#F15A28"/>
<path id="Stroke-13" fill-rule="evenodd" clip-rule="evenodd" d="M58.9229 53.053C57.969 53.053 57.1948 52.2788 57.1948 51.3249V47.8687C57.1948 45.8986 62.9062 42.6843 67.5669 42.6843H67.56C72.2207 42.6843 77.9321 45.8986 77.9321 47.8687V51.3249C77.9321 52.2788 77.1579 53.053 76.204 53.053H58.9229Z" stroke="#F15A28"/>
<path id="Stroke-15" fill-rule="evenodd" clip-rule="evenodd" d="M67.5636 42.6844C71.7197 42.6844 74.476 39.3699 74.476 35.2795V32.81C74.476 28.7178 71.7197 25.4033 67.5636 25.4033C63.4075 25.4033 60.6511 28.7178 60.6511 32.81V35.2795C60.6511 39.3699 63.4075 42.6844 67.5636 42.6844Z" stroke="#F15A28"/>
<path id="Stroke-17" d="M13.1389 20.2189C16.7887 15.0864 21.878 11.0495 27.8158 8.69409" stroke="#323232"/>
<path id="Stroke-19" d="M24.3608 68.152C19.9005 65.7482 16.0589 62.3438 13.1384 58.2378" stroke="#323232"/>
<path id="Stroke-21" d="M66.6876 20.2189C63.0378 15.0864 57.9485 11.0495 52.0107 8.69409" stroke="#323232"/>
<path id="Stroke-23" d="M55.4658 68.152C59.9261 65.7482 63.7677 62.3438 66.6882 58.2378" stroke="#323232"/>
</g>
</g>
</g>
</g>
</svg>
