<svg width="85" height="86" viewBox="0 0 85 86" fill="none" xmlns="http://www.w3.org/2000/svg">
<g clip-path="url(#clip0_603_1743)">
<path d="M8.49575 85.5H66.5525C71.2428 85.4958 75.044 81.6945 75.0482 77.0042C75.0482 76.2223 74.4141 75.5882 73.6321 75.5882C72.8501 75.5882 72.2169 76.2223 72.2169 77.0042C72.2169 80.1322 69.6813 82.6678 66.5533 82.6678H8.49575C5.36775 82.6678 2.8322 80.1322 2.8322 77.0042V71.3407C2.8322 68.2127 5.36775 65.6772 8.49575 65.6772C11.6238 65.6772 14.1593 68.2127 14.1593 71.3407C14.1593 72.1227 14.7934 72.756 15.5746 72.756C16.3566 72.756 16.9907 72.1219 16.9907 71.3407V20.3636H21.239V52.5778C21.2381 52.7597 21.273 52.939 21.341 53.1073L25.6913 63.9058C26.1214 64.9785 27.1635 65.6797 28.3195 65.6763H32.5677C33.3498 65.6763 33.983 65.0422 33.983 64.2602C33.983 63.4782 33.3489 62.845 32.5677 62.845H31.3752L35.298 53.1082C35.3651 52.9399 35.4 52.7597 35.4 52.5787V7.5805C35.4 3.66965 32.2303 0.5 28.3195 0.5C24.4095 0.5 21.2398 3.66965 21.2398 7.5805V17.5323H16.9915V14.7001C16.9915 10.0081 13.1877 6.2035 8.49575 6.2035C3.80375 6.2035 0 10.0081 0 14.7001V77.0042C0.00425 81.6945 3.80545 85.4958 8.49575 85.5ZM32.5677 49.7192C31.6897 49.2365 30.7292 48.9202 29.7356 48.7877V24.612C29.7356 23.83 29.1015 23.1967 28.3195 23.1967C27.5375 23.1967 26.9042 23.8308 26.9042 24.612V48.7877C25.9106 48.9202 24.9501 49.2365 24.072 49.7192V14.7001H32.5677V49.7192ZM28.3195 62.8441L24.3551 53.0156C25.4048 51.9786 26.8456 51.4337 28.3195 51.5153C29.7934 51.4329 31.2341 51.9777 32.2847 53.0156L28.3195 62.8441ZM28.3195 3.3713C30.6536 3.3628 32.5541 5.24555 32.5677 7.57965V11.8671H24.072V7.5805C24.0848 5.2464 25.9854 3.3628 28.3195 3.3713ZM8.49575 9.0357C11.6238 9.0357 14.1593 11.5721 14.1593 14.7001V65.0252C10.9429 62.1174 6.04775 62.1174 2.83135 65.0252V14.7001C2.8322 11.5721 5.36775 9.0357 8.49575 9.0357Z" fill="#022A4D"/>
<path d="M38.2322 20.1087V23.4509C38.2322 24.8007 39.1842 25.9627 40.5076 26.2279L43.1894 26.7642L41.673 29.0397C40.9292 30.1642 41.0763 31.6568 42.0274 32.6139L44.3921 34.9769C45.3484 35.9272 46.8401 36.0751 47.9647 35.3305L50.2401 33.8158L50.7765 36.4959C51.0417 37.8185 52.2036 38.7713 53.5534 38.7713H56.8948C58.2446 38.7713 59.4065 37.8185 59.6717 36.4959L60.2081 33.8158L62.4835 35.3322C63.6081 36.0777 65.1015 35.9298 66.0578 34.9786L68.4208 32.6139C69.3719 31.6577 69.5198 30.1659 68.7744 29.0414L67.2597 26.7651L69.9397 26.2287C71.2632 25.9635 72.2152 24.8016 72.2152 23.4518V20.1096C72.2152 18.7598 71.2632 17.5987 69.9397 17.3335L67.2597 16.7971L68.7744 14.5217C69.519 13.3971 69.3711 11.9045 68.4208 10.9474L66.0561 8.58444C65.0998 7.63329 63.6072 7.48539 62.4835 8.23084L60.2081 9.74639L59.6717 7.06549C59.4065 5.74289 58.2446 4.79004 56.8948 4.79004H53.5534C52.2036 4.79004 51.0417 5.74204 50.7765 7.06549L50.2401 9.74639L47.9647 8.23084C46.8401 7.48709 45.3475 7.63414 44.3913 8.58444L42.0283 10.9491C41.0771 11.9062 40.9292 13.398 41.6738 14.5217L43.1894 16.7971L40.5093 17.3335C39.1842 17.5978 38.2322 18.7589 38.2322 20.1087ZM41.0635 20.1087L43.7461 19.5724C44.6718 19.3879 45.4453 18.7521 45.8065 17.88C46.1678 17.0071 46.07 16.0117 45.5464 15.2255L44.0283 12.9483L46.3939 10.5853L48.6693 12.1034C49.4556 12.627 50.4509 12.7248 51.3239 12.3627C52.196 12.0014 52.8318 11.2279 53.0171 10.3023L53.5534 7.62054H56.8948L57.4311 10.3023C57.6164 11.2288 58.2514 12.0014 59.1243 12.3627C59.9964 12.7248 60.9926 12.627 61.7789 12.1034L64.0552 10.5853L66.4182 12.95L64.9001 15.2255C64.3773 16.0117 64.2787 17.0071 64.6408 17.88C65.0029 18.7521 65.7756 19.3879 66.7012 19.5724L69.3838 20.1087V23.4509L66.7012 23.9873C65.7747 24.1726 65.0021 24.8075 64.6408 25.6805C64.2787 26.5526 64.3773 27.5488 64.9001 28.3342L66.4182 30.6113L64.0535 32.9743L61.778 31.4562C60.9918 30.9326 59.9964 30.8349 59.1235 31.197C58.2505 31.5591 57.6156 32.3317 57.4303 33.2574L56.8939 35.94H53.5526L53.0162 33.2574C52.8309 32.3309 52.196 31.5582 51.323 31.197C50.4509 30.8349 49.4547 30.9326 48.6685 31.4562L46.3913 32.9743L44.0283 30.6096L45.5464 28.3342C46.07 27.5488 46.1678 26.5526 45.8065 25.6805C45.4444 24.8075 44.6718 24.1726 43.7461 23.9873L41.0635 23.4509V20.1087Z" fill="#F15A28"/>
<path d="M55.2237 30.2757C59.9157 30.2757 63.7203 26.4719 63.7203 21.7799C63.7203 17.0879 59.9157 13.2842 55.2237 13.2842C50.5317 13.2842 46.7279 17.0879 46.7279 21.7799C46.7322 26.4702 50.5334 30.2714 55.2237 30.2757ZM55.2237 16.1155C58.3517 16.1155 60.8881 18.6511 60.8881 21.7791C60.8881 24.9071 58.3517 27.4426 55.2237 27.4426C52.0957 27.4426 49.5601 24.9071 49.5601 21.7791C49.5601 18.6511 52.0957 16.1155 55.2237 16.1155Z" fill="#F15A28"/>
<path d="M82.6846 52.7325L80.0046 52.1962L81.521 49.9207C82.2656 48.797 82.1177 47.3036 81.1674 46.3473L78.8018 43.9843C77.8456 43.0332 76.353 42.8853 75.2293 43.6307L72.9538 45.1454L72.4175 42.4654C72.1523 41.1419 70.9903 40.1899 69.6405 40.1899H66.2983C64.9485 40.1899 63.7874 41.1419 63.5222 42.4654L62.9859 45.1454L60.7104 43.6307C59.5859 42.8853 58.0933 43.0332 57.1362 43.9843L54.7732 46.349C53.8229 47.3053 53.675 48.797 54.4196 49.9216L55.9351 52.197L53.2542 52.7334C51.9316 52.9986 50.9788 54.1605 50.9788 55.5103V58.8517C50.9788 60.2015 51.9308 61.3634 53.2542 61.6286L55.9368 62.165L54.4204 64.4404C53.6767 65.5641 53.8237 67.0576 54.774 68.0138L57.1396 70.3768C58.0958 71.3271 59.5876 71.475 60.7121 70.7304L62.9876 69.2157L63.5239 71.8958C63.7891 73.2192 64.9502 74.1712 66.3 74.1712H69.6422C70.992 74.1712 72.154 73.2192 72.4192 71.8958L72.9555 69.2157L75.231 70.7321C76.3555 71.4767 77.849 71.3288 78.8052 70.3785L81.1682 68.013C82.1185 67.0567 82.2664 65.565 81.5218 64.4404L80.0071 62.1633L82.6872 61.6269C84.0098 61.3617 84.9626 60.1998 84.9626 58.85V55.5086C84.9601 54.1597 84.0072 52.9977 82.6846 52.7325ZM82.1287 58.8508L79.4461 59.3872C78.5196 59.5725 77.747 60.2074 77.3857 61.0804C77.0236 61.9525 77.1214 62.9487 77.645 63.7349L79.1631 66.0112L76.7984 68.3742L74.5229 66.857C73.7375 66.3334 72.7413 66.2356 71.8692 66.5969C70.9963 66.959 70.3613 67.7316 70.176 68.6573L69.6397 71.3399H66.2975L65.7611 68.6573C65.5767 67.7308 64.9409 66.9581 64.0688 66.5969C63.1958 66.2356 62.2005 66.3334 61.4142 66.857L59.1371 68.3742L56.7741 66.0095L58.2922 63.7341C58.8158 62.9478 58.9135 61.9525 58.5514 61.0795C58.1902 60.2074 57.4167 59.5716 56.491 59.3863L53.8093 58.85V55.5086L56.491 54.9723C57.4175 54.787 58.1902 54.152 58.5514 53.2791C58.9135 52.407 58.8158 51.4108 58.2922 50.6245L56.7741 48.3482L59.1388 45.9852L61.4142 47.5025C62.2005 48.0261 63.1958 48.1238 64.0688 47.7626C64.9409 47.4005 65.5767 46.6278 65.7611 45.7022L66.2975 43.0196H69.6397L70.176 45.7022C70.3613 46.6287 70.9963 47.4013 71.8692 47.7626C72.7413 48.1238 73.7375 48.0261 74.5229 47.5025L76.8001 45.9852L79.1631 48.3499L77.645 50.6254C77.1214 51.4116 77.0236 52.407 77.3857 53.2799C77.7478 54.152 78.5205 54.7878 79.4461 54.9731L82.1287 55.5095V58.8508Z" fill="#F15A28"/>
<path d="M67.9677 48.6841C63.2757 48.6841 59.472 52.4887 59.472 57.1807C59.472 61.8727 63.2757 65.6764 67.9677 65.6764C72.6597 65.6764 76.4635 61.8718 76.4635 57.1807C76.4592 52.4904 72.658 48.6892 67.9677 48.6841ZM67.9677 62.8442C64.8397 62.8442 62.3042 60.3078 62.3042 57.1807C62.3042 54.0527 64.8397 51.5163 67.9677 51.5163C71.0957 51.5163 73.6313 54.0527 73.6313 57.1807C73.6321 60.3078 71.0966 62.8442 67.9677 62.8442Z" fill="#F15A28"/>
<path d="M36.816 64.2602C36.816 65.0422 37.4501 65.6763 38.2321 65.6763H48.144C48.926 65.6763 49.5592 65.0422 49.5592 64.2602C49.5592 63.4782 48.9251 62.845 48.144 62.845H38.2321C37.4493 62.8441 36.816 63.4782 36.816 64.2602Z" fill="#022A4D"/>
<path d="M26.9042 71.3399H33.9838C34.7658 71.3399 35.3999 70.7058 35.3999 69.9238C35.3999 69.1418 34.7658 68.5085 33.9838 68.5085H26.9042C26.1222 68.5085 25.4881 69.1426 25.4881 69.9238C25.4881 70.7066 26.1213 71.3399 26.9042 71.3399Z" fill="#022A4D"/>
<path d="M38.2322 69.9238C38.2322 70.7058 38.8663 71.3399 39.6483 71.3399H50.9762C51.7582 71.3399 52.3915 70.7058 52.3915 69.9238C52.3915 69.1418 51.7574 68.5085 50.9762 68.5085H39.6483C38.8663 68.5085 38.2322 69.1418 38.2322 69.9238Z" fill="#022A4D"/>
<path d="M25.4881 75.5881C25.4881 76.3701 26.1222 77.0042 26.9042 77.0042H55.2236C56.0056 77.0042 56.6397 76.3701 56.6397 75.5881C56.6397 74.8061 56.0056 74.1729 55.2236 74.1729H26.9042C26.1213 74.172 25.4881 74.8061 25.4881 75.5881Z" fill="#022A4D"/>
</g>
<defs>
<clipPath id="clip0_603_1743">
<rect width="84.9601" height="85" fill="white" transform="translate(0 0.5)"/>
</clipPath>
</defs>
</svg>
