<svg width="84" height="86" viewBox="0 0 84 86" fill="none" xmlns="http://www.w3.org/2000/svg">
<g clip-path="url(#clip0_603_1797)">
<path d="M77.0976 49.8553H66.6536V41.9146L63.0411 41.0646C62.5847 39.4742 61.9514 37.9442 61.1482 36.4967L63.1015 33.3406L59.9854 30.2245L67.2818 21.1032C68.7089 21.9438 70.3647 22.4359 72.1378 22.4359C77.4299 22.4359 81.7343 18.1307 81.7343 12.8395C81.7343 7.5482 77.429 3.24295 72.1378 3.24295C67.5248 3.24295 63.6642 6.51545 62.7495 10.8598L39.196 9.34C38.8076 4.4015 34.6732 0.5 29.6378 0.5C24.3457 0.5 20.0413 4.80525 20.0413 10.0965C20.0413 15.3878 24.3465 19.693 29.6378 19.693C34.2508 19.693 38.1115 16.4205 39.0261 12.0762L62.5796 13.5951C62.7547 15.8281 63.6973 17.8434 65.1432 19.3879L58.0363 28.2729L55.7506 25.9873L52.5946 27.9406C51.1471 27.1373 49.6171 26.5024 48.0267 26.0459L47.175 22.4351H36.7778L35.9278 26.0459C34.3375 26.5024 32.8075 27.1356 31.3599 27.9406L28.2038 25.9873L20.8514 33.3397L22.8047 36.4958C22.0014 37.9434 21.3665 39.4734 20.91 41.0637L17.2992 41.9137V49.8544H6.85525L0 63.5649H6.3308V85.5H77.6212V63.5649H83.952L77.0976 49.8553ZM72.1378 5.9842C75.9177 5.9842 78.993 9.0595 78.993 12.8395C78.993 16.6194 75.9177 19.6947 72.1378 19.6947C68.3578 19.6947 65.2826 16.6194 65.2826 12.8395C65.2826 9.0595 68.3578 5.9842 72.1378 5.9842ZM29.6378 16.9517C25.8579 16.9517 22.7826 13.8765 22.7826 10.0965C22.7826 6.31655 25.8579 3.24125 29.6378 3.24125C33.4178 3.24125 36.493 6.31655 36.493 10.0965C36.493 13.8765 33.4178 16.9517 29.6378 16.9517ZM79.5158 60.8228H51.0493L46.9362 52.5974H75.4026L79.5158 60.8228ZM37.2427 49.8553C36.7591 49.0248 36.493 48.0907 36.493 47.1132C36.493 44.0889 38.9529 41.629 41.9772 41.629C45.0015 41.629 47.4615 44.0889 47.4615 47.1132C47.4615 48.0924 47.1954 49.0231 46.7126 49.8553H37.2427ZM28.5736 49.8553C28.3909 48.9543 28.2668 48.0405 28.2668 47.1132C28.2668 39.5533 34.4165 33.4035 41.9764 33.4035C49.5363 33.4035 55.6861 39.5533 55.6861 47.1132C55.6861 48.0414 55.5611 48.9543 55.3792 49.8553H49.725C50.0336 48.9832 50.2019 48.0618 50.2019 47.1132C50.2019 42.5767 46.5129 38.8877 41.9764 38.8877C37.4399 38.8877 33.7509 42.5767 33.7509 47.1132C33.7509 48.0618 33.9193 48.9832 34.2295 49.8553H28.5736ZM20.0405 44.0855L23.1557 43.3519L23.3554 42.5359C23.8179 40.6497 24.565 38.8495 25.5748 37.1835L26.0109 36.4652L24.3262 33.7427L28.6076 29.4612L31.3302 31.1459L32.0484 30.7099C33.7127 29.6992 35.5139 28.9538 37.4009 28.4905L38.2169 28.2908L38.9487 25.1772H45.0033L45.7368 28.2924L46.5528 28.4922C48.439 28.9546 50.2393 29.7017 51.9053 30.7115L52.6235 31.1476L55.3461 29.4629L59.6275 33.7444L57.9428 36.4669L58.3789 37.1852C59.3878 38.8478 60.135 40.6498 60.5982 42.5376L60.798 43.3536L63.9115 44.0855V49.8544H58.191C58.3414 48.9509 58.4282 48.0354 58.4282 47.1123C58.4282 38.0403 51.0485 30.6606 41.9764 30.6606C32.9044 30.6606 25.5247 38.0403 25.5247 47.1123C25.5247 48.0346 25.6114 48.9509 25.7618 49.8544H20.0405V44.0855ZM8.5493 52.5965H39.7579L35.6448 60.822H4.43615L8.5493 52.5965ZM9.0729 63.5649H37.3397L41.9764 54.2914V82.7579H9.0729V63.5649ZM74.8799 82.7579H44.7185V54.2914L49.3553 63.5649H74.8799V82.7579Z" fill="#022A4D"/>
<path d="M72.1378 16.9516C74.4056 16.9516 76.251 15.1063 76.251 12.8385C76.251 10.5707 74.4056 8.72534 72.1378 8.72534C69.87 8.72534 68.0247 10.5707 68.0247 12.8385C68.0247 15.1063 69.87 16.9516 72.1378 16.9516ZM72.1378 11.4674C72.8935 11.4674 73.5089 12.0828 73.5089 12.8385C73.5089 13.5941 72.8935 14.2095 72.1378 14.2095C71.3822 14.2095 70.7668 13.5941 70.7668 12.8385C70.7668 12.0828 71.3822 11.4674 72.1378 11.4674Z" fill="#F15A28"/>
<path d="M29.6378 5.98413C27.37 5.98413 25.5246 7.82948 25.5246 10.0973C25.5246 12.3651 27.37 14.2104 29.6378 14.2104C31.9056 14.2104 33.7509 12.3651 33.7509 10.0973C33.7509 7.82948 31.9047 5.98413 29.6378 5.98413ZM29.6378 11.4675C28.8821 11.4675 28.2667 10.8521 28.2667 10.0964C28.2667 9.34078 28.8821 8.72538 29.6378 8.72538C30.3934 8.72538 31.0088 9.34078 31.0088 10.0964C31.0088 10.8521 30.3926 11.4675 29.6378 11.4675Z" fill="#F15A28"/>
<path d="M11.815 66.3062V80.0158H39.2343V66.3062H11.815ZM36.4922 77.2746H14.5571V69.0491H36.4922V77.2746Z" fill="#F15A28"/>
<path d="M31.0089 71.7903H33.751V74.5324H31.0089V71.7903Z" fill="#F15A28"/>
<path d="M25.5246 71.7903H28.2667V74.5324H25.5246V71.7903Z" fill="#F15A28"/>
<path d="M20.0405 71.7903H22.7826V74.5324H20.0405V71.7903Z" fill="#F15A28"/>
<path d="M69.3957 77.2747H72.1378V80.0168H69.3957V77.2747Z" fill="#F15A28"/>
<path d="M63.9115 77.2747H66.6536V80.0168H63.9115V77.2747Z" fill="#F15A28"/>
<path d="M58.4281 77.2747H61.1702V80.0168H58.4281V77.2747Z" fill="#F15A28"/>
<path d="M58.4281 71.7903H72.1378V74.5324H58.4281V71.7903Z" fill="#F15A28"/>
</g>
<defs>
<clipPath id="clip0_603_1797">
<rect width="83.9528" height="85" fill="white" transform="translate(0 0.5)"/>
</clipPath>
</defs>
</svg>
