<svg width="85" height="86" viewBox="0 0 85 86" fill="none" xmlns="http://www.w3.org/2000/svg">
<path d="M11.9 70.1575L19.89 74.1525V83.0775C19.89 84.0125 20.655 84.7775 21.59 84.7775H39.185C40.12 84.7775 40.885 84.0125 40.885 83.0775V61.9975C40.885 56.7275 36.975 52.1375 32.045 51.6275C31.875 51.6275 25.67 51.1175 22.61 48.0575L18.105 43.5525C16.83 42.2775 15.215 41.5975 13.43 41.5975V28.3375C13.43 24.6825 10.455 21.7075 6.8 21.7075C3.145 21.7075 0 24.5975 0 28.3375V50.8625C0 59.0225 4.59 66.5025 11.9 70.1575ZM3.315 28.3375C3.315 26.4675 4.845 25.0225 6.63 25.0225C8.415 25.0225 9.945 26.5525 9.945 28.3375V42.5325C7.905 43.7225 6.63 45.8475 6.63 48.3125C6.63 50.0975 7.31 51.7125 8.585 52.9875L17.085 61.4875C17.765 62.1675 18.785 62.1675 19.465 61.4875C20.145 60.8075 20.145 59.7875 19.465 59.1075L10.965 50.6075C10.37 50.0125 10.03 49.1625 10.03 48.2275C10.03 46.7825 10.88 45.5925 12.24 45.0825C13.345 44.6575 14.705 44.9125 15.725 45.8475L20.23 50.3525C23.29 53.4125 27.88 54.3475 31.62 54.8575C34.935 55.1975 37.485 58.3425 37.485 61.9125V81.3775H23.205V73.0475C23.205 72.4525 22.865 71.8575 22.27 71.6025L13.345 67.1825C7.225 64.0375 3.315 57.8325 3.315 50.8625V28.3375Z" fill="#022A4D"/>
<path d="M76.16 67.8624C77.0989 67.8624 77.86 67.1013 77.86 66.1624C77.86 65.2235 77.0989 64.4624 76.16 64.4624C75.2211 64.4624 74.46 65.2235 74.46 66.1624C74.46 67.1013 75.2211 67.8624 76.16 67.8624Z" fill="#022A4D"/>
<path d="M78.37 21.6226C74.715 21.6226 71.74 24.5976 71.74 28.2526V41.5126C69.955 41.5126 68.34 42.1926 67.065 43.4676L62.56 47.9726C59.925 50.6076 55.59 51.0326 53.125 51.5426C48.195 52.0526 44.285 56.6426 44.285 61.9126V82.9925C44.285 83.9275 45.05 84.6926 45.985 84.6926H63.58C64.515 84.6926 65.28 83.9275 65.28 82.9925V74.1526L70.72 71.4326C71.57 71.0076 71.91 69.9876 71.485 69.2226C71.06 68.3726 70.04 68.0326 69.275 68.4576L62.9 71.6026C62.305 71.8576 61.965 72.4526 61.965 73.0476V81.3776H47.515V61.9976C47.515 58.4276 50.065 55.2826 53.38 54.9426C57.29 54.4326 61.71 53.5826 64.77 50.4376L69.275 45.9326C70.21 44.9976 71.57 44.7426 72.76 45.1676C74.12 45.6776 74.97 46.8676 74.97 48.3126C74.97 49.1626 74.63 50.0126 74.035 50.6926L65.535 59.1076C64.855 59.7876 64.855 60.8076 65.535 61.4876C66.215 62.1676 67.235 62.1676 67.915 61.4876L76.415 52.9876C77.69 51.7126 78.37 50.0976 78.37 48.3126C78.37 45.9326 77.095 43.7226 75.055 42.5326V28.3376C75.055 26.4676 76.585 25.0226 78.37 25.0226C80.155 25.0226 81.685 26.5526 81.685 28.3376V50.8626C81.685 53.9226 80.92 56.8976 79.475 59.6175C79.05 60.3826 79.305 61.4026 80.155 61.8276C80.92 62.2526 81.94 61.9976 82.365 61.1476C84.065 58.0026 85 54.4326 85 50.8626V28.3376C85 24.5976 82.025 21.6226 78.37 21.6226Z" fill="#022A4D"/>
<path d="M52.02 24.5124L49.215 27.3174L46.41 24.5124L53.21 17.7124C53.975 17.8824 54.74 18.0524 55.505 18.0524C57.715 18.0524 59.84 17.2024 61.455 15.5874C63.835 13.2074 64.515 9.72241 63.325 6.57741L62.645 4.79241L58.14 9.21241L56.355 8.70241L55.845 6.91741L60.265 2.49741L58.48 1.81741C55.335 0.627412 51.85 1.30741 49.47 3.68741C47.345 5.81241 46.495 8.95741 47.345 11.8474L40.545 18.6474L31.45 9.55241L33.915 7.08741L26.35 1.22241L21.335 6.23741L27.285 13.7174L29.75 11.2524L38.845 20.3474L32.81 26.3824C29.665 25.4474 26.265 26.2124 23.97 28.5924C22.27 30.2924 21.42 32.5024 21.42 34.7974C21.42 37.0924 22.355 39.3874 23.97 41.0024C25.67 42.7024 27.965 43.5524 30.175 43.5524C32.47 43.5524 34.68 42.7024 36.38 41.0024C38.76 38.6224 39.525 35.2224 38.59 32.1624L44.625 26.1274L47.43 28.9324L44.625 31.7374L54.91 42.1924C55.93 43.2124 57.205 43.7224 58.65 43.7224C60.095 43.7224 61.37 43.2124 62.39 42.1924C64.43 40.1524 64.43 36.8374 62.39 34.7974L52.02 24.5124ZM24.65 6.40741L26.52 4.53741L30.09 7.34241L27.455 9.97741L24.65 6.40741ZM50.235 12.5274L49.98 11.7624C49.13 9.55241 49.64 7.08741 51.34 5.47241C52.53 4.28241 54.06 3.68741 55.59 3.77241L53.04 6.23741L54.23 10.8274L58.82 12.0174L61.285 9.55241C61.285 11.0824 60.69 12.6974 59.585 13.8024C57.97 15.5024 55.42 16.0124 53.295 15.1624L52.53 14.9074L44.625 22.8124L42.33 20.5174L50.235 12.5274ZM35.7 31.6524L36.04 32.4174C37.06 34.7974 36.55 37.5174 34.68 39.3874C33.405 40.6624 31.79 41.2574 30.175 41.2574C28.56 41.2574 26.945 40.6624 25.67 39.3874C24.48 38.1974 23.8 36.5824 23.8 34.8824C23.8 33.1824 24.48 31.5674 25.67 30.3774C26.86 29.1874 28.475 28.5074 30.175 28.5074C31.025 28.5074 31.875 28.6774 32.64 29.0174L33.405 29.3574L40.545 22.2174L42.84 24.5124L35.7 31.6524ZM52.02 27.9974L54.315 30.2924L50.405 34.2024L48.11 31.9074L52.02 27.9974ZM60.52 40.4074C60.01 40.9174 59.33 41.2574 58.565 41.2574C57.8 41.2574 57.12 41.0024 56.61 40.4074L52.19 35.9874L56.1 32.0774L60.52 36.4974C61.625 37.6024 61.625 39.3874 60.52 40.4074Z" fill="#F15A28"/>
<path d="M30.175 30.8025C29.07 30.8025 28.05 31.2275 27.285 31.9925C26.52 32.7575 26.095 33.7775 26.095 34.8825C26.095 35.9875 26.52 37.0075 27.285 37.7725C28.05 38.5375 29.07 38.9625 30.175 38.9625C31.28 38.9625 32.3 38.5375 33.065 37.7725C34.68 36.1575 34.68 33.6075 33.065 31.9925C32.3 31.2275 31.28 30.8025 30.175 30.8025ZM31.365 36.0725C31.025 36.4125 30.685 36.5825 30.26 36.5825C29.835 36.5825 29.41 36.4125 29.155 36.0725C28.815 35.7325 28.645 35.3925 28.645 34.9675C28.645 34.5425 28.815 34.1175 29.155 33.8625C29.495 33.5225 29.835 33.3525 30.26 33.3525C30.685 33.3525 31.11 33.5225 31.365 33.8625C31.96 34.3725 31.96 35.3925 31.365 36.0725Z" fill="#F15A28"/>
</svg>
