<svg width="51" height="51" viewBox="0 0 51 51" fill="none" xmlns="http://www.w3.org/2000/svg">
<path d="M38.5273 11.9705C40.0755 11.4314 41.2667 10.8194 42.0098 10.211C42.5198 9.79571 42.6801 9.5225 42.6801 9.41321C42.6801 9.30393 42.5198 9.03071 42.0098 8.61178C41.2667 8.00707 40.0791 7.39507 38.5273 6.85593C35.1321 5.67929 30.4328 4.99079 25.3948 4.99079C20.3567 4.99079 15.6574 5.68293 12.2623 6.85593C10.714 7.39507 9.52283 8.00707 8.77969 8.61543C8.26969 9.03071 8.1094 9.30029 8.1094 9.41321C8.1094 9.5225 8.26969 9.79571 8.77969 10.2146C9.52283 10.8194 10.7104 11.4314 12.2623 11.9705C15.6574 13.1471 20.3567 13.8356 25.3948 13.8356C30.4328 13.8356 35.1321 13.1435 38.5273 11.9705ZM6.99833 24.236V30.6511C8.88898 32.6437 13.9744 35.0699 20.1855 35.7948C29.2926 36.8549 37.9153 34.8659 43.7693 30.8988L43.7912 24.3416C37.5546 28.01 28.7753 29.5509 19.8977 28.5127C14.4006 27.8752 9.71955 26.2177 6.99469 24.236H6.99833ZM6.99833 20.2289C8.89262 22.2179 13.9744 24.644 20.1855 25.3653C29.3108 26.429 37.9517 24.4327 43.8058 20.4474L43.8313 13.1763C40.1046 15.362 33.2451 16.8264 25.3948 16.8264C17.5772 16.8264 10.7395 15.3693 7.00926 13.2018C7.00437 15.5429 7.00073 17.8841 6.99833 20.2252V20.2289ZM7.00562 34.6655L7.02019 40.0496L6.96555 39.6781C8.08026 43.3646 15.1984 46.3263 25.7991 46.3263C31.573 46.3263 36.0975 45.452 39.5764 43.7326C40.5527 43.2481 41.2958 42.8401 42.0244 42.3082C42.5089 41.9549 42.8258 41.7399 43.3468 41.2809C43.8859 40.8037 44.7165 40.9203 45.1973 41.4631C45.6745 41.9986 45.7365 42.8729 45.1973 43.3537C44.6145 43.8637 44.3413 44.0932 43.773 44.5085C42.9242 45.1278 41.9588 45.7726 40.8441 46.3263C37.0046 48.2242 33.0921 49.3571 25.7991 49.3571C13.6502 49.3571 5.61769 45.5139 4.0804 40.4321L4.02576 40.25V40.0606L4.0039 32.3705C3.9952 24.8055 4.00128 17.2405 4.02212 9.6755C4.01288 9.58837 4.00802 9.50083 4.00755 9.41321C4.01119 5.31864 13.5846 2 25.3948 2C37.2049 2 46.7783 5.31864 46.7783 9.41321C46.7795 9.57317 46.766 9.7329 46.7383 9.89043C46.7733 10.0049 46.7905 10.1241 46.7893 10.2438L46.7055 36.1627C46.7018 36.884 46.0388 37.4669 45.2228 37.4632C44.4068 37.4632 43.7475 36.8767 43.7511 36.1518V34.7894C37.5218 38.4359 28.7571 39.9731 19.8977 38.9422C14.4079 38.3011 9.72683 36.6472 7.00198 34.6655H7.00562ZM40.3013 20.1742C39.9619 20.1771 39.6351 20.0453 39.3927 19.8077C39.1503 19.57 39.012 19.246 39.0081 18.9065C39.0081 18.2071 39.591 17.6424 40.305 17.6424C41.019 17.6424 41.6018 18.2071 41.6018 18.9065C41.6018 19.6096 41.019 20.1742 40.305 20.1742H40.3013ZM40.3013 30.6037C39.9619 30.6066 39.6351 30.4748 39.3927 30.2372C39.1503 29.9995 39.012 29.6755 39.0081 29.336C39.0081 28.6366 39.591 28.0683 40.305 28.0683C41.019 28.0683 41.6018 28.6366 41.6018 29.336C41.6018 30.0354 41.019 30.6037 40.305 30.6037H40.3013ZM40.3013 41.168C40.1329 41.1694 39.9659 41.1377 39.8098 41.0746C39.6537 41.0115 39.5115 40.9182 39.3914 40.8002C39.2713 40.6821 39.1757 40.5416 39.1099 40.3865C39.0441 40.2315 39.0095 40.065 39.0081 39.8966C39.0081 39.1972 39.591 38.6289 40.305 38.6289C41.019 38.6289 41.6018 39.1972 41.6018 39.8966C41.6018 40.5961 41.019 41.1644 40.305 41.1644L40.3013 41.168Z" fill="#F36F2C"/>
</svg>
