<svg width="56" height="55" viewBox="0 0 56 55" fill="none" xmlns="http://www.w3.org/2000/svg">
<path fill-rule="evenodd" clip-rule="evenodd" d="M10.9329 16.8777C10.9329 7.5564 18.4893 0 27.8106 0C37.1319 0 44.6882 7.5564 44.6882 16.8777V18.9637C44.6882 23.9714 45.3681 28.4107 46.4044 31.5192C46.9265 33.0855 47.4979 34.1888 48.022 34.8537C48.41 35.3462 48.6416 35.4456 48.6946 35.4622C49.9403 35.4752 50.9462 36.489 50.9462 37.7376V38.2119C50.9462 39.4687 49.9274 40.4875 48.6705 40.4875H6.95051C5.69369 40.4875 4.67487 39.4687 4.67487 38.2119V37.7376C4.67487 36.489 5.68072 35.4752 6.92643 35.4622C6.97954 35.4456 7.21107 35.3462 7.59909 34.8537C8.12317 34.1888 8.69465 33.0855 9.21673 31.5192C10.2529 28.4107 10.9329 23.9714 10.9329 18.9637V16.8777ZM6.91464 35.4652L6.92079 35.4638L6.91719 35.4647L6.91464 35.4652Z" fill="#022A4D"/>
<path d="M21.5488 44.0801C20.6896 44.0801 19.9037 44.5639 19.5169 45.331C19.13 46.0983 19.2082 47.0179 19.719 47.7086C21.6126 50.2696 24.4731 52.0448 27.8067 52.0448C31.1403 52.0448 34.001 50.2696 35.8946 47.7086C36.4055 47.0179 36.4835 46.0983 36.0967 45.331C35.7098 44.5639 34.924 44.0801 34.0647 44.0801H21.5488Z" fill="#022A4D"/>
</svg>
