<svg width="56" height="56" viewBox="0 0 56 56" fill="none" xmlns="http://www.w3.org/2000/svg">
<g clip-path="url(#clip0_657_1050)">
<path d="M46.7511 27.0644C46.7511 27.0644 47.7823 13.1734 35.0559 11.5894C24.1487 10.4756 20.8281 20.6123 20.8281 20.6123C20.8281 20.6123 17.544 17.4537 13.0874 20.0339C9.09787 22.4966 9.8033 27.0056 9.8033 27.0056C9.8033 27.0056 0.944092 28.7279 0.944092 37.7587C1.1411 46.7784 10.5628 46.8689 10.5628 46.8689H25.4197V37.3361H20.6533L28.5974 29.392L36.5414 37.3361H31.775V46.8689H45.2274C45.2274 46.8689 53.9977 46.8785 55.229 38.2973C55.8153 28.9138 46.7511 27.0644 46.7511 27.0644Z" fill="#022A4D"/>
</g>
<defs>
<clipPath id="clip0_657_1050">
<rect width="55.6084" height="55.6084" fill="white"/>
</clipPath>
</defs>
</svg>
