<svg width="51" height="51" viewBox="0 0 51 51" fill="none" xmlns="http://www.w3.org/2000/svg">
<path d="M48.7378 44.8475L43.3282 39.4379C44.829 37.4671 45.7324 35.0154 45.7324 32.3561C45.7276 29.2473 44.49 26.2673 42.291 24.0697C40.0921 21.8721 37.1113 20.6363 34.0024 20.6334C30.8949 20.6382 27.9159 21.8749 25.7186 24.0723C23.5212 26.2696 22.2845 29.2486 22.2797 32.3561C22.2826 35.4656 23.5189 38.447 25.7173 40.646C27.9157 42.8451 30.8966 44.0823 34.0061 44.0861C36.669 44.0861 39.1207 43.1827 41.0878 41.6819L46.4974 47.0879C46.6435 47.2356 46.8173 47.3528 47.009 47.4328C47.2007 47.5129 47.4063 47.5541 47.614 47.5541C47.8217 47.5541 48.0273 47.5129 48.219 47.4328C48.4106 47.3528 48.5845 47.2356 48.7305 47.0879C48.8785 46.9414 48.9961 46.7673 49.0765 46.5753C49.157 46.3833 49.1988 46.1773 49.1995 45.9692C49.2001 45.761 49.1597 45.5548 49.0805 45.3623C49.0013 45.1698 48.8848 44.9949 48.7378 44.8475ZM25.4454 32.3561C25.4483 30.0866 26.3511 27.9108 27.9559 26.306C29.5608 24.7012 31.7365 23.7983 34.0061 23.7954C36.2765 23.7954 38.454 24.6974 40.0594 26.3028C41.6649 27.9082 42.5668 30.0857 42.5668 32.3561C42.5668 34.6266 41.6649 36.804 40.0594 38.4095C38.454 40.0149 36.2765 40.9169 34.0061 40.9169C31.7368 40.913 29.5616 40.0098 27.957 38.4052C26.3524 36.8006 25.4492 34.6254 25.4454 32.3561ZM38.9057 13.5044C38.9057 14.3786 38.1954 15.0854 37.3211 15.0854H21.4856C21.0663 15.0854 20.6641 14.9188 20.3677 14.6223C20.0712 14.3258 19.9046 13.9237 19.9046 13.5044C19.9046 13.085 20.0712 12.6829 20.3677 12.3864C20.6641 12.0899 21.0663 11.9234 21.4856 11.9234H37.3211C38.1954 11.9234 38.9057 12.6301 38.9057 13.5044ZM8.55344 44.3849H19.1104C19.5121 44.4121 19.8885 44.5909 20.1634 44.8851C20.4383 45.1793 20.5912 45.5669 20.5912 45.9695C20.5912 46.3721 20.4383 46.7597 20.1634 47.0539C19.8885 47.3481 19.5121 47.5269 19.1104 47.5541H8.55344C5.64644 47.5541 3.2713 45.1863 3.2713 42.272V14.0981C3.2713 13.3878 3.5263 12.6993 3.98166 12.1529L11.9741 2.645C12.2421 2.32602 12.5766 2.06947 12.9541 1.89328C13.3317 1.71709 13.7432 1.62553 14.1598 1.625H39.9585C42.8692 1.625 45.2407 3.99286 45.2407 6.90714V18.251C45.2407 18.6713 45.0737 19.0743 44.7765 19.3715C44.4793 19.6687 44.0763 19.8356 43.656 19.8356C43.2357 19.8356 42.8327 19.6687 42.5355 19.3715C42.2383 19.0743 42.0714 18.6713 42.0714 18.251V6.9035C42.0704 6.34503 41.8484 5.80965 41.4538 5.41441C41.0593 5.01916 40.5243 4.79621 39.9658 4.79429H16.7353V13.9524C16.7286 14.6201 16.4576 15.2579 15.9818 15.7262C15.5059 16.1946 14.8639 16.4553 14.1962 16.4514H6.44423V42.2756C6.44423 43.4377 7.39137 44.3849 8.55344 44.3849ZM13.5697 5.66857L7.16916 13.2821H13.5697V5.66857ZM17.5294 29.3836C17.9497 29.3836 18.3528 29.2166 18.65 28.9194C18.9471 28.6223 19.1141 28.2192 19.1141 27.7989C19.1141 27.3787 18.9471 26.9756 18.65 26.6784C18.3528 26.3812 17.9497 26.2143 17.5294 26.2143H11.985C11.5647 26.2143 11.1617 26.3812 10.8645 26.6784C10.5673 26.9756 10.4004 27.3787 10.4004 27.7989C10.4004 28.2192 10.5673 28.6223 10.8645 28.9194C11.1617 29.2166 11.5647 29.3836 11.985 29.3836H17.5294ZM17.5294 36.6584C17.9492 36.6584 18.3518 36.4916 18.6487 36.1948C18.9455 35.8979 19.1123 35.4953 19.1123 35.0755C19.1123 34.6557 18.9455 34.2531 18.6487 33.9563C18.3518 33.6595 17.9492 33.4927 17.5294 33.4927H11.985C11.5652 33.4927 11.1626 33.6595 10.8658 33.9563C10.569 34.2531 10.4022 34.6557 10.4022 35.0755C10.4022 35.4953 10.569 35.8979 10.8658 36.1948C11.1626 36.4916 11.5652 36.6584 11.985 36.6584H17.5294ZM19.1104 19.067H11.985C11.5652 19.067 11.1626 19.2338 10.8658 19.5306C10.569 19.8274 10.4022 20.23 10.4022 20.6498C10.4022 21.0696 10.569 21.4722 10.8658 21.769C11.1626 22.0659 11.5652 22.2326 11.985 22.2326H19.1104C19.5302 22.2326 19.9328 22.0659 20.2297 21.769C20.5265 21.4722 20.6933 21.0696 20.6933 20.6498C20.6933 20.23 20.5265 19.8274 20.2297 19.5306C19.9328 19.2338 19.5302 19.067 19.1104 19.067Z" fill="#F36F2C"/>
</svg>
