<svg width="51" height="51" viewBox="0 0 51 51" fill="none" xmlns="http://www.w3.org/2000/svg">
<path d="M47.8623 45.8402L5.17969 45.8203L5.19961 3.12773C5.19961 2.00215 4.27324 1.10566 3.15762 1.0957C2.03203 1.0957 1.11562 2.00215 1.11562 3.12773L1.0957 47.8523C1.0957 48.3902 1.31484 48.9082 1.69336 49.2867C2.05195 49.6453 2.52012 49.8545 3.02812 49.8744C3.06797 49.8744 3.09785 49.8744 3.1377 49.8744L47.8623 49.8943C48.9879 49.8943 49.9043 48.9879 49.9043 47.8623C49.9043 46.7467 48.9879 45.8402 47.8623 45.8402Z" fill="#F36F2C"/>
<path d="M11.8137 40.0327L23.0396 30.6695L37.3436 29.8925C38.1006 29.8527 38.768 29.3945 39.0867 28.7171L44.2066 17.7103L45.3023 20.1109C46.1092 21.7046 47.5934 21.2962 48.0117 21.1169C49.0477 20.6786 49.4859 19.4435 49.0178 18.4275L45.8502 11.5146C45.1629 10.0902 43.6488 10.2196 43.1209 10.5185L36.3176 13.7259C35.3016 14.204 34.8633 15.4193 35.3414 16.4353C35.8195 17.4513 37.0447 17.8796 38.0607 17.4015L40.3518 16.3157L35.8992 25.8982L22.1332 26.6452C21.6949 26.6652 21.2766 26.8345 20.9379 27.1134L9.19394 36.915C8.32734 37.6322 8.22773 38.9071 8.93496 39.7837C9.63222 40.6204 10.9969 40.7599 11.8137 40.0327Z" fill="#F36F2C"/>
</svg>
