<svg width="57" height="57" viewBox="0 0 57 57" fill="none" xmlns="http://www.w3.org/2000/svg">
<path fill-rule="evenodd" clip-rule="evenodd" d="M42.2014 14.5184V42.3184H14.4014V14.5184H42.2014ZM26.1023 21.4684H23.3949L18.2547 35.3684H20.6973L21.6677 32.651H27.8209L28.7705 35.3684H31.3602L26.1023 21.4684ZM35.6959 21.4684H33.2632V35.3684H35.6959V21.4684ZM24.7281 23.8004L27.1513 30.735H22.3434L24.7281 23.8004ZM44.5181 35.3684H49.1514V40.0017H44.5181V35.3684ZM16.7181 44.635H21.3514V49.2684H16.7181V44.635ZM25.9847 44.635H30.618V49.2684H25.9847V44.635ZM16.7181 7.56836H21.3514V12.2017H16.7181V7.56836ZM35.2514 44.635H39.8847V49.2684H35.2514V44.635ZM25.9847 7.56836H30.618V12.2017H25.9847V7.56836ZM35.2514 7.56836H39.8847V12.2017H35.2514V7.56836ZM44.5181 26.1017H49.1514V30.735H44.5181V26.1017ZM7.45139 35.3684H12.0847V40.0017H7.45139V35.3684ZM44.5181 16.835H49.1514V21.4684H44.5181V16.835ZM7.45139 26.1017H12.0847V30.735H7.45139V26.1017ZM7.45139 16.835H12.0847V21.4684H7.45139V16.835Z" fill="#022A4D"/>
</svg>
