<svg width="56" height="57" viewBox="0 0 56 57" fill="none" xmlns="http://www.w3.org/2000/svg">
<g clip-path="url(#clip0_657_1055)">
<path d="M44.0202 7.56641H11.5819C9.02163 7.56641 6.9479 9.64014 6.9479 12.2004V44.6387C6.9479 47.199 9.02163 49.2727 11.5819 49.2727H44.0202C46.5805 49.2727 48.6542 47.199 48.6542 44.6387V12.2004C48.6542 9.64014 46.5805 7.56641 44.0202 7.56641ZM13.8989 14.5175H25.484V26.1025H13.8989V14.5175ZM24.3255 44.6387C21.128 44.6387 18.533 42.0436 18.533 38.8461C18.533 35.6487 21.128 33.0536 24.3255 33.0536C27.523 33.0536 30.1181 35.6487 30.1181 38.8461C30.1181 42.0436 27.523 44.6387 24.3255 44.6387ZM31.2766 30.7366L38.2276 19.1515L45.1787 30.7366H31.2766Z" fill="#022A4D"/>
</g>
<defs>
<clipPath id="clip0_657_1055">
<rect width="55.6084" height="55.6084" fill="white" transform="translate(0 0.615234)"/>
</clipPath>
</defs>
</svg>
