<svg width="48" height="47" viewBox="0 0 48 47" fill="none" xmlns="http://www.w3.org/2000/svg">
<path d="M39.6667 5.87565C40.1861 5.87565 40.6842 5.66933 41.0514 5.30207C41.4187 4.93481 41.625 4.4367 41.625 3.91732C41.625 3.39794 41.4187 2.89983 41.0514 2.53257C40.6842 2.16531 40.1861 1.95898 39.6667 1.95898H8.33333C7.81395 1.95898 7.31584 2.16531 6.94858 2.53257C6.58132 2.89983 6.375 3.39794 6.375 3.91732C6.375 4.4367 6.58132 4.93481 6.94858 5.30207C7.31584 5.66933 7.81395 5.87565 8.33333 5.87565H10.3876C10.6735 9.47115 11.8427 17.1361 16.6425 21.5423C11.5803 26.4597 10.5502 36.6881 10.3445 41.1257H8.33333C7.81395 41.1257 7.31584 41.332 6.94858 41.6992C6.58132 42.0665 6.375 42.5646 6.375 43.084C6.375 43.6034 6.58132 44.1015 6.94858 44.4687C7.31584 44.836 7.81395 45.0423 8.33333 45.0423H39.6667C40.1861 45.0423 40.6842 44.836 41.0514 44.4687C41.4187 44.1015 41.625 43.6034 41.625 43.084C41.625 42.5646 41.4187 42.0665 41.0514 41.6992C40.6842 41.332 40.1861 41.1257 39.6667 41.1257H37.6555C37.4498 36.692 36.4198 26.4636 31.3575 21.5423C36.1573 17.1322 37.3265 9.46724 37.6124 5.87565H39.6667ZM27.0942 19.8307C26.7831 20.0035 26.5249 20.2578 26.3475 20.5663C26.17 20.8748 26.08 21.2257 26.087 21.5816C26.0941 21.9374 26.1979 22.2845 26.3875 22.5857C26.577 22.8869 26.845 23.1308 27.1627 23.2911C31.9352 25.6959 33.4294 35.6502 33.7329 41.1257H14.2671C14.5628 35.6423 16.0648 25.6959 20.8373 23.2911C21.155 23.1308 21.423 22.8869 21.6125 22.5857C21.8021 22.2845 21.9059 21.9374 21.913 21.5816C21.92 21.2257 21.83 20.8748 21.6525 20.5663C21.4751 20.2578 21.2169 20.0035 20.9058 19.8307C15.9336 17.0714 14.6529 9.48682 14.3219 5.87565H33.6781C33.3471 9.48682 32.0664 17.0714 27.0942 19.8307ZM24 25.459C24 25.459 29.875 30.159 29.875 32.509V39.1673H18.125V32.509C18.125 30.159 24 25.459 24 25.459Z" fill="#F36F2C"/>
</svg>
