<svg width="56" height="56" viewBox="0 0 56 56" fill="none" xmlns="http://www.w3.org/2000/svg">
<g clip-path="url(#clip0_612_331)">
<path d="M50.1362 43.6852C49.5353 40.0765 47.005 37.1154 43.5334 35.9582L35.8271 33.3895V32.2439H34.0357V33.9242L32.6985 39.2722L29.0809 34.9309H26.4503L22.8327 39.2722L21.4964 33.9242V32.2439H19.705V33.3895L11.9987 35.9582C8.528 37.1154 5.99773 40.0765 5.39585 43.6852L3.4209 55.5313H52.1103L50.1362 43.6852ZM23.4068 53.7399H13.5294L14.3265 45.7685L12.5442 45.5902L11.7291 53.7408H5.53647L7.163 43.9807C7.65472 41.0277 9.7255 38.6058 12.5657 37.6582L19.9666 35.1906L21.9514 43.1289L23.9711 40.7053L25.0396 42.3085L23.4068 53.7399ZM30.316 53.7399H25.2161L26.9098 41.884L25.1668 39.2695L27.2896 36.7222H28.2416L30.3644 39.2695L28.6214 41.884L30.316 53.7399ZM43.803 53.7399L42.9879 45.5893L41.2055 45.7676L42.0027 53.739H32.1253L30.4925 42.3076L31.561 40.7044L33.5807 43.1281L35.5655 35.1897L42.9664 37.6573C45.8066 38.604 47.8765 41.0268 48.3691 43.9798L49.9956 53.7399H43.803Z" fill="white"/>
<path d="M16.5186 24.1328C16.9754 25.7046 17.8191 27.1458 19.0086 28.3352L22.5017 31.8283C23.3472 32.6738 24.4712 33.1396 25.6678 33.1396H29.8658C31.0616 33.1396 32.1865 32.6738 33.032 31.8283L36.5251 28.3352C37.7146 27.1458 38.5583 25.7038 39.0151 24.1328C41.2462 23.8802 42.9927 22.0029 42.9927 19.7046C42.9927 18.2348 42.2708 16.9387 41.1736 16.1219H41.2014V10.7479C41.2014 8.50604 39.5444 6.64305 37.3912 6.31971C36.0433 2.56865 32.4364 -0.00012207 28.4113 -0.00012207H27.7664C20.3583 -0.00012207 14.3314 6.02683 14.3314 13.4349V16.1219H14.3591C13.2619 16.9387 12.54 18.2348 12.54 19.7046C12.54 22.0029 14.2866 23.8802 16.5186 24.1328ZM37.6187 21.3678C37.6187 23.5219 36.7804 25.5461 35.2578 27.0688L31.7647 30.5619C31.2649 31.0616 30.5725 31.3483 29.8649 31.3483H25.6669C24.9594 31.3483 24.2679 31.0616 23.7672 30.5619L20.2741 27.0688C18.7515 25.5461 17.9132 23.5219 17.9132 21.3687V17.0176H21.4322C25.3741 17.0176 29.1009 15.6176 32.0459 13.0533L32.32 13.5101C33.4628 15.4152 35.4405 16.6817 37.6187 16.9576V21.3678ZM41.2014 19.7046C41.2014 20.886 40.4293 21.881 39.368 22.2393C39.3931 21.9518 39.4101 21.6616 39.4101 21.3687V17.1824C40.4499 17.5532 41.2014 18.5384 41.2014 19.7046ZM16.1227 13.4349C16.1227 7.01475 21.3462 1.79121 27.7664 1.79121H28.4113C31.8524 1.79121 34.9165 4.10204 35.8623 7.41153L36.0477 8.06089H36.7231C38.2045 8.06089 39.4101 9.26646 39.4101 10.7479V15.3167C39.1208 15.2576 38.8207 15.2262 38.5144 15.2262C36.6174 15.2262 34.8323 14.2159 33.856 12.5885L32.4221 10.1988L31.6106 11.0103C28.8922 13.7287 25.2782 15.2262 21.4331 15.2262H17.0184C16.7121 15.2262 16.412 15.2576 16.1227 15.3167V13.4349ZM16.1227 17.1824V21.3687C16.1227 21.6616 16.1397 21.9518 16.1648 22.2402C15.1034 21.881 14.3314 20.886 14.3314 19.7046C14.3314 18.5384 15.0828 17.5532 16.1227 17.1824Z" fill="white"/>
</g>
<defs>
<clipPath id="clip0_612_331">
<rect width="55.5314" height="55.5314" fill="white"/>
</clipPath>
</defs>
</svg>
