<svg width="82" height="74" viewBox="0 0 82 74" fill="none" xmlns="http://www.w3.org/2000/svg">
<g id="Frame" clip-path="url(#clip0_580_8577)">
<path id="Vector" d="M59.451 72.9999C71.0893 72.9999 80.5241 63.5652 80.5241 51.9268C80.5241 40.2885 71.0893 30.8538 59.451 30.8538C47.8127 30.8538 38.3779 40.2885 38.3779 51.9268C38.3779 63.5652 47.8127 72.9999 59.451 72.9999Z" stroke="#323232"/>
<path id="Vector_2" d="M40.1337 18.5609C36.1167 18.5609 33.1094 15.2024 33.1094 11.0317V8.52923C33.1094 4.35852 36.1167 1 40.1337 1C44.1508 1 47.1581 4.35852 47.1581 8.52923V11.0317C47.1581 15.2024 44.1508 18.5609 40.1337 18.5609Z" stroke="#F15A28"/>
<path id="Vector_3" d="M27.8418 29.0976V25.5854C27.8418 20.7781 35.7661 18.561 40.1344 18.561C43.8661 18.561 50.1441 20.1415 51.9441 23.5659" stroke="#F15A28"/>
<path id="Vector_4" d="M13.7939 34.3658C9.77683 34.3658 6.76953 31.0073 6.76953 26.8366V24.3342C6.76953 20.1635 9.77683 16.8049 13.7939 16.8049C17.8109 16.8049 20.8182 20.1635 20.8182 24.3342V26.8366C20.8182 31.0073 17.8109 34.3658 13.7939 34.3658Z" stroke="#F15A28"/>
<path id="Vector_5" d="M25.1853 38.7559C22.9901 35.7706 17.2609 34.3657 13.7926 34.3657C9.42435 34.3657 1.5 36.5828 1.5 41.3901V44.9023" stroke="#F15A28"/>
<path id="Vector_6" d="M22.5742 62.463C18.5571 62.463 15.5498 59.1045 15.5498 54.9338V52.4313C15.5498 48.2826 18.5571 44.9021 22.5742 44.9021C26.5912 44.9021 29.5985 48.2606 29.5985 52.4313V54.9338C29.5985 59.1045 26.5912 62.463 22.5742 62.463Z" stroke="#F15A28"/>
<path id="Vector_7" d="M10.2812 72.9997V69.4875C10.2812 64.6802 18.2056 62.4631 22.5739 62.4631C26.9421 62.4631 34.8665 64.6363 34.8665 69.4436V72.9997" stroke="#F15A28"/>
<path id="Vector_8" d="M59.4502 41.3899V62.463" stroke="#323232"/>
<path id="Vector_9" d="M69.9862 51.9268H48.9131" stroke="#323232"/>
</g>
<defs>
<clipPath id="clip0_580_8577">
<rect width="81" height="74" fill="white" transform="translate(0.5)"/>
</clipPath>
</defs>
</svg>
