<svg width="58" height="58" viewBox="0 0 58 58" fill="none" xmlns="http://www.w3.org/2000/svg">
<g clip-path="url(#clip0_612_314)">
<path d="M10.2467 6.29919H10.2331C8.15976 6.32954 6.47344 8.04183 6.47344 10.1162V15.5708H0.843719C0.377748 15.5708 0 15.9486 0 16.4145C0 16.8805 0.377748 17.2582 0.843719 17.2582H6.47355V21.6943H0.843719C0.377748 21.6943 0 22.072 0 22.538C0 23.004 0.377748 23.3817 0.843719 23.3817H6.47355V27.8176H0.843719C0.377748 27.8177 0 28.1955 0 28.6614C0 29.1274 0.377748 29.5052 0.843719 29.5052H6.47355V33.9411H0.843719C0.377748 33.9411 0 34.3188 0 34.7848C0 35.2508 0.377748 35.6285 0.843719 35.6285H6.47355V40.0645H0.843719C0.377748 40.0645 0 40.4423 0 40.9082C0 41.3742 0.377748 41.752 0.843719 41.752H6.47355V44.6371C6.47355 45.1029 6.85152 45.4809 7.31727 45.4809C7.78302 45.4809 8.16099 45.1029 8.16099 44.6371V10.1163C8.16099 8.95866 9.10144 8.00365 10.2591 7.98562C10.7248 7.97891 11.0972 7.59635 11.0894 7.12948C11.0825 6.66821 10.7068 6.29919 10.2467 6.29919Z" fill="white"/>
<path d="M45.9223 48.9874H10.2922C9.42262 48.9874 8.64865 48.4677 8.31904 47.6633C8.14237 47.2313 7.65076 47.0254 7.21883 47.202C6.78678 47.3787 6.581 47.8714 6.75756 48.3022C7.34702 49.7433 8.73418 50.6747 10.2922 50.6747H15.5714V56.4789C15.5714 56.9449 15.9491 57.3226 16.4151 57.3226C16.8811 57.3226 17.2588 56.9449 17.2588 56.4789V50.6747H21.6948V56.4789C21.6948 56.9449 22.0726 57.3226 22.5386 57.3226C23.0045 57.3226 23.3823 56.9449 23.3823 56.4789V50.6747H27.8182V56.4789C27.8182 56.9449 28.1959 57.3226 28.6619 57.3226C29.1279 57.3226 29.5056 56.9449 29.5056 56.4789V50.6747H33.9415V56.4789C33.9415 56.9449 34.3193 57.3226 34.7852 57.3226C35.2512 57.3226 35.629 56.9449 35.629 56.4789V50.6747H40.065V56.4789C40.065 56.9449 40.4427 57.3226 40.9087 57.3226C41.3747 57.3226 41.7524 56.9449 41.7524 56.4789V50.6747H45.9223C46.3881 50.6747 46.766 50.2968 46.766 49.831C46.766 49.3644 46.3881 48.9874 45.9223 48.9874Z" fill="white"/>
<path d="M40.1043 14.3462H17.218C15.7307 14.3462 14.5215 15.5556 14.5215 17.0427V39.9303C14.5215 41.4175 15.7309 42.6268 17.218 42.6268H40.1044C41.5917 42.6268 42.801 41.4174 42.801 39.9303V17.0427C42.801 15.5555 41.5916 14.3462 40.1043 14.3462ZM16.2088 17.0427C16.2088 16.4858 16.661 16.0336 17.2179 16.0336H34.6705V24.8455C33.1452 25.1752 31.9403 26.38 31.6108 27.9055H25.3931V23.5788C26.9872 23.2673 28.1932 21.8598 28.1932 20.1758C28.1932 18.2644 26.6373 16.7086 24.7249 16.7086C23.0409 16.7086 21.6336 17.9145 21.3218 19.5075H16.2088V17.0427ZM35.5145 26.443C36.7857 26.443 37.8196 27.4779 37.8196 28.7492C37.8196 30.0205 36.7858 31.0543 35.5145 31.0543C34.2341 31.0543 33.2083 30.0103 33.2083 28.7492C33.2084 27.4858 34.237 26.443 35.5145 26.443ZM24.7249 21.9566C23.7492 21.9566 22.9441 21.163 22.9441 20.1758C22.9441 19.1948 23.7428 18.3961 24.7249 18.3961C25.707 18.3961 26.5057 19.1948 26.5057 20.1758C26.5057 21.1664 25.6992 21.9566 24.7249 21.9566ZM21.0811 35.7465C20.5918 35.472 20.261 34.9467 20.261 34.347C20.261 33.4616 20.9822 32.7416 21.8675 32.7416C22.7529 32.7416 23.4729 33.4616 23.4729 34.347C23.4728 35.5739 22.1459 36.3484 21.0811 35.7465ZM27.905 40.9394H22.2444V37.6184C23.8835 37.4317 25.1603 36.0356 25.1603 34.347C25.1603 32.5313 23.6833 31.0542 21.8675 31.0542C20.0507 31.0542 18.5736 32.5313 18.5736 34.347C18.5736 35.697 19.3903 36.8614 20.5569 37.3687V40.9394H17.218C16.6611 40.9394 16.2089 40.486 16.2089 39.9303V21.1949H21.4096C21.4168 21.2066 21.8702 22.927 23.7057 23.4911V28.7492C23.7057 29.2149 24.0836 29.5929 24.5494 29.5929H27.905V40.9394ZM41.1135 39.9303C41.1135 40.486 40.6613 40.9394 40.1044 40.9394H29.5924V37.2906H41.1135V39.9303ZM41.1135 35.6032H29.5924V29.5929H31.6108C31.999 31.3906 33.602 32.7418 35.5145 32.7418C37.716 32.7418 39.507 30.9508 39.507 28.7492C39.507 26.8367 38.1559 25.2337 36.3582 24.8455C36.3582 24.8455 36.3581 24.8455 36.358 24.8455V16.0336H40.1043C40.6612 16.0336 41.1134 16.4858 41.1134 17.0427V35.6032H41.1135Z" fill="white"/>
<path d="M56.4794 23.3817C56.9454 23.3817 57.3231 23.004 57.3231 22.538C57.3231 22.0721 56.9454 21.6943 56.4794 21.6943H50.8496V17.2583H56.4794C56.9454 17.2583 57.3231 16.8805 57.3231 16.4146C57.3231 15.9486 56.9454 15.5709 56.4794 15.5709H50.8496V10.1162C50.8496 8.01141 49.1374 6.29811 47.0315 6.29811H41.7523V0.843719C41.7523 0.377748 41.3745 0 40.9086 0C40.4426 0 40.0648 0.377748 40.0648 0.843719V6.298H35.6288V0.843719C35.6288 0.377748 35.2511 0 34.7851 0C34.3191 0 33.9414 0.377748 33.9414 0.843719V6.298H29.5055V0.843719C29.5055 0.377748 29.1277 0 28.6618 0C28.1958 0 27.818 0.377748 27.818 0.843719V6.298H23.3821V0.843719C23.3821 0.377748 23.0044 0 22.5384 0C22.0724 0 21.6947 0.377748 21.6947 0.843719V6.298H17.2587V0.843719C17.2587 0.377748 16.8809 0 16.415 0C15.949 0 15.5712 0.377748 15.5712 0.843719V6.298H13.622C13.1552 6.298 12.7783 6.67597 12.7783 7.14172C12.7783 7.60747 13.1552 7.98544 13.622 7.98544C18.0418 7.98544 43.4942 7.98544 47.0315 7.98544C48.207 7.98544 49.1621 8.94168 49.1621 10.1161V46.8566C49.1621 47.445 48.9281 47.9929 48.5018 48.399C48.1644 48.7208 48.1508 49.2551 48.4726 49.5915C48.6391 49.7658 48.8607 49.8535 49.0834 49.8535C49.2927 49.8535 49.5019 49.776 49.6662 49.6207C50.429 48.8928 50.8497 47.9107 50.8497 46.8566V41.7519H56.4795C56.9455 41.7519 57.3232 41.3741 57.3232 40.9082C57.3232 40.4422 56.9455 40.0645 56.4795 40.0645H50.8497V35.6284H56.4795C56.9455 35.6284 57.3232 35.2507 57.3232 34.7847C57.3232 34.3187 56.9455 33.941 56.4795 33.941H50.8497V29.5051H56.4795C56.9455 29.5051 57.3232 29.1273 57.3232 28.6614C57.3232 28.1954 56.9455 27.8177 56.4795 27.8177H50.8497V23.3817H56.4794Z" fill="white"/>
</g>
<defs>
<clipPath id="clip0_612_314">
<rect width="57.3227" height="57.3227" fill="white"/>
</clipPath>
</defs>
</svg>
