<svg width="68" height="74" viewBox="0 0 68 74" fill="none" xmlns="http://www.w3.org/2000/svg">
<g id="Frame" clip-path="url(#clip0_580_8591)">
<path id="Vector" d="M47.3185 43.5456C47.3185 42.9319 47.2571 42.3387 47.1753 41.7456L50.3662 38.7796L46.4389 31.9683L42.2662 33.2364C41.3253 32.5001 40.2617 31.8864 39.1366 31.416L38.1548 27.1819H30.3003L29.3184 31.416C28.1934 31.866 27.1298 32.5001 26.1889 33.2364L22.0162 31.9683L18.0889 38.7796L21.2798 41.7456C21.198 42.3387 21.1366 42.9319 21.1366 43.5456C21.1366 44.1592 21.198 44.7524 21.2798 45.3456L18.0889 48.3115L22.0162 55.1229L26.1889 53.8547C27.1298 54.591 28.1934 55.2047 29.3184 55.6751L30.3003 59.9092H38.1548L39.1366 55.6751C40.2617 55.2251 41.3253 54.591 42.2662 53.8547L46.4389 55.1229L50.3662 48.3115L47.1753 45.3456C47.2571 44.7524 47.3185 44.1592 47.3185 43.5456Z" stroke="#323232"/>
<path id="Vector_2" d="M34.2265 48.4547C36.9377 48.4547 39.1356 46.2568 39.1356 43.5456C39.1356 40.8344 36.9377 38.6365 34.2265 38.6365C31.5153 38.6365 29.3174 40.8344 29.3174 43.5456C29.3174 46.2568 31.5153 48.4547 34.2265 48.4547Z" stroke="#323232"/>
<path id="Vector_3" d="M34.914 10.8182C37.6252 10.8182 39.8231 8.62033 39.8231 5.9091C39.8231 3.19788 37.6252 1 34.914 1C32.2028 1 30.0049 3.19788 30.0049 5.9091C30.0049 8.62033 32.2028 10.8182 34.914 10.8182Z" stroke="#F15A28"/>
<path id="Vector_4" d="M27.8926 20.6363V15.7272C27.8926 13.0068 30.8217 10.8181 34.4381 10.8181C38.0544 10.8181 40.9835 13.0068 40.9835 15.7272V20.6363" stroke="#F15A28"/>
<path id="Vector_5" d="M8.04582 63.1822C10.757 63.1822 12.9549 60.9843 12.9549 58.2731C12.9549 55.5619 10.757 53.364 8.04582 53.364C5.3346 53.364 3.13672 55.5619 3.13672 58.2731C3.13672 60.9843 5.3346 63.1822 8.04582 63.1822Z" stroke="#F15A28"/>
<path id="Vector_6" d="M1.5 73.0001V68.091C1.5 65.3705 4.42501 63.1819 8.04547 63.1819C11.6659 63.1819 14.5909 65.3705 14.5909 68.091V73.0001" stroke="#F15A28"/>
<path id="Vector_7" d="M60.4091 63.1822C63.1203 63.1822 65.3182 60.9843 65.3182 58.2731C65.3182 55.5619 63.1203 53.364 60.4091 53.364C57.6979 53.364 55.5 55.5619 55.5 58.2731C55.5 60.9843 57.6979 63.1822 60.4091 63.1822Z" stroke="#F15A28"/>
<path id="Vector_8" d="M53.8633 73.0001V68.091C53.8633 65.3705 56.7883 63.1819 60.4088 63.1819C64.0292 63.1819 66.9542 65.3705 66.9542 68.091V73.0001" stroke="#F15A28"/>
<path id="Vector_9" d="M4.95655 46.9408C4.83382 45.8362 4.77246 44.6907 4.77246 43.5452C4.77246 32.602 10.7452 23.0498 19.5816 17.9771" stroke="#323232"/>
<path id="Vector_10" d="M47.4002 69.8909C43.432 71.875 38.9729 73 34.2275 73C29.482 73 25.0229 71.875 21.0547 69.8909" stroke="#323232"/>
<path id="Vector_11" d="M63.4971 46.9408C63.6198 45.8362 63.6812 44.6907 63.6812 43.5452C63.6812 32.602 57.7085 23.0498 48.8721 17.9771" stroke="#323232"/>
</g>
<defs>
<clipPath id="clip0_580_8591">
<rect width="67" height="74" fill="white" transform="translate(0.5)"/>
</clipPath>
</defs>
</svg>
