<svg width="58" height="58" viewBox="0 0 58 58" fill="none" xmlns="http://www.w3.org/2000/svg">
<g clip-path="url(#clip0_612_341)">
<path d="M28.8706 8.75785C24.625 8.72002 20.5334 10.3464 17.4724 13.2887C14.4113 16.2309 12.6243 20.255 12.4942 24.4988C12.3918 27.9954 13.435 31.4297 15.4651 34.2786C17.6118 37.3498 18.7451 41.015 18.7065 44.7619V49.0799C18.7065 49.1938 18.7313 49.3064 18.7793 49.4097C18.8272 49.5131 18.8972 49.6047 18.9842 49.6782L21.8342 52.0889V55.0289C21.8349 55.6373 22.077 56.2205 22.5073 56.6506C22.9376 57.0807 23.521 57.3224 24.1294 57.3228H33.1926C33.8009 57.3222 34.3841 57.0803 34.8143 56.6501C35.2444 56.22 35.4863 55.6368 35.4869 55.0285V52.0885L38.3369 49.6778C38.4239 49.6043 38.4939 49.5126 38.5418 49.4093C38.5898 49.306 38.6146 49.1934 38.6145 49.0795V44.7601C38.6155 40.9589 39.7828 37.2496 41.959 34.133C43.628 31.721 44.6097 28.9004 44.7989 25.9733C44.9881 23.0462 44.3778 20.1228 43.0332 17.5159C41.6886 14.909 39.6603 12.7169 37.1656 11.1742C34.6709 9.63145 31.8035 8.7962 28.8706 8.75785ZM34.4166 50.9438H22.9072L20.6439 49.0298H36.6799L34.4166 50.9438ZM37.0476 47.4623H20.2744V45.5447H37.0476V47.4623ZM33.9199 55.0307C33.9197 55.2234 33.843 55.4082 33.7068 55.5444C33.5705 55.6807 33.3858 55.7573 33.1931 55.7576H24.1294C23.9367 55.7573 23.7519 55.6807 23.6157 55.5444C23.4794 55.4082 23.4028 55.2234 23.4025 55.0307V52.5112H33.9195L33.9199 55.0307ZM40.671 33.24C38.4656 36.4001 37.2133 40.1267 37.0628 43.9773H20.2601C20.152 40.1735 18.9291 36.4852 16.7432 33.3704C14.9113 30.7981 13.9697 27.6979 14.0616 24.5413C14.1764 20.7403 15.7636 17.1326 18.4883 14.4799C21.213 11.8271 24.8619 10.3369 28.6646 10.3239H28.8504C31.4992 10.3582 34.0888 11.1122 36.3419 12.5051C38.5951 13.8981 40.4271 15.8776 41.6417 18.2317C42.8563 20.5858 43.4078 23.2259 43.2372 25.8694C43.0666 28.5129 42.1803 31.0602 40.6732 33.2387L40.671 33.24Z" fill="white"/>
<path d="M37.2798 24.9363C37.0652 24.0525 36.7164 23.2067 36.2458 22.4284L37.2731 21.4007C37.346 21.3279 37.4037 21.2415 37.4432 21.1464C37.4826 21.0513 37.5029 20.9494 37.5029 20.8465C37.5029 20.7435 37.4826 20.6416 37.4432 20.5465C37.4037 20.4514 37.346 20.365 37.2731 20.2923L35.4079 18.427C35.3352 18.3542 35.2488 18.2964 35.1537 18.257C35.0586 18.2176 34.9566 18.1973 34.8537 18.1973C34.7508 18.1973 34.6488 18.2176 34.5537 18.257C34.4586 18.2964 34.3723 18.3542 34.2995 18.427L33.278 19.4486C32.4993 18.9738 31.6523 18.6214 30.7665 18.4038V16.9622C30.7665 16.7543 30.684 16.555 30.537 16.408C30.39 16.261 30.1907 16.1785 29.9828 16.1785H27.3429C27.135 16.1785 26.9357 16.261 26.7887 16.408C26.6417 16.555 26.5592 16.7543 26.5592 16.9622V18.4038C25.6727 18.6212 24.8249 18.9736 24.0455 19.4486L23.0235 18.4266C22.9508 18.3538 22.8644 18.296 22.7693 18.2566C22.6742 18.2171 22.5722 18.1968 22.4693 18.1968C22.3664 18.1968 22.2644 18.2171 22.1693 18.2566C22.0742 18.296 21.9879 18.3538 21.9151 18.4266L20.0499 20.2918C19.977 20.3646 19.9193 20.451 19.8798 20.5461C19.8404 20.6411 19.8201 20.7431 19.8201 20.846C19.8201 20.949 19.8404 21.0509 19.8798 21.146C19.9193 21.2411 19.977 21.3275 20.0499 21.4002L21.0772 22.428C20.6066 23.2063 20.2579 24.052 20.0432 24.9359H18.5855C18.3776 24.9359 18.1783 25.0184 18.0313 25.1654C17.8843 25.3124 17.8018 25.5117 17.8018 25.7196V28.3573C17.8018 28.5652 17.8843 28.7645 18.0313 28.9115C18.1783 29.0584 18.3776 29.141 18.5855 29.141H20.0557C20.2733 30.0195 20.6236 30.8596 21.0947 31.6323L20.0499 32.6771C19.977 32.7499 19.9193 32.8363 19.8798 32.9313C19.8404 33.0264 19.8201 33.1284 19.8201 33.2313C19.8201 33.3343 19.8404 33.4362 19.8798 33.5313C19.9193 33.6264 19.977 33.7128 20.0499 33.7855L21.9151 35.6507C22.0648 35.7925 22.2631 35.8715 22.4693 35.8715C22.6755 35.8715 22.8738 35.7925 23.0235 35.6507L24.0741 34.6001C24.845 35.0662 25.6821 35.4126 26.5569 35.6274V37.1147C26.5569 37.3226 26.6395 37.5219 26.7865 37.6689C26.9334 37.8158 27.1328 37.8984 27.3406 37.8984H29.9788C30.1867 37.8984 30.386 37.8158 30.533 37.6689C30.6799 37.5219 30.7625 37.3226 30.7625 37.1147V35.6274C31.6381 35.4128 32.476 35.0664 33.2475 34.6001L34.2982 35.6507C34.3709 35.7236 34.4573 35.7814 34.5524 35.8208C34.6475 35.8602 34.7494 35.8805 34.8524 35.8805C34.9553 35.8805 35.0572 35.8602 35.1523 35.8208C35.2474 35.7814 35.3338 35.7236 35.4066 35.6507L37.2718 33.7855C37.3446 33.7128 37.4024 33.6264 37.4418 33.5313C37.4813 33.4362 37.5015 33.3343 37.5015 33.2313C37.5015 33.1284 37.4813 33.0264 37.4418 32.9313C37.4024 32.8363 37.3446 32.7499 37.2718 32.6771L36.2301 31.6323C36.7011 30.8597 37.0515 30.0198 37.2691 29.1415H38.738C38.9458 29.1415 39.1452 29.0589 39.2922 28.9119C39.4391 28.765 39.5217 28.5656 39.5217 28.3578V25.72C39.5217 25.5122 39.4391 25.3128 39.2922 25.1659C39.1452 25.0189 38.9458 24.9363 38.738 24.9363H37.2798ZM37.9543 27.574H36.6305C36.445 27.574 36.2656 27.6397 36.124 27.7595C35.9825 27.8793 35.8881 28.0454 35.8575 28.2283C35.6713 29.3272 35.2361 30.3689 34.5852 31.2736C34.4756 31.4248 34.4236 31.6102 34.4387 31.7964C34.4537 31.9825 34.5347 32.1572 34.6672 32.2888L35.6112 33.2293L34.8544 33.9861L33.9072 33.0385C33.776 32.9073 33.6026 32.8268 33.4176 32.8115C33.2327 32.7961 33.0483 32.8469 32.8973 32.9548C31.9913 33.6007 30.9497 34.0311 29.8521 34.2132C29.669 34.2441 29.5029 34.339 29.3833 34.4809C29.2637 34.6229 29.1985 34.8028 29.1991 34.9884V36.3319H28.1243V34.9884C28.1246 34.8028 28.059 34.6231 27.9392 34.4814C27.8194 34.3397 27.6531 34.2451 27.47 34.2145C26.3724 34.0324 25.3308 33.602 24.4248 32.9561C24.2738 32.8483 24.0894 32.7975 23.9045 32.8128C23.7196 32.8282 23.5461 32.9086 23.4149 33.0399L22.4677 33.9875L21.7109 33.2306L22.6563 32.2888C22.788 32.1573 22.8686 31.9832 22.8837 31.7977C22.8987 31.6121 22.8471 31.4273 22.7382 31.2763C22.0873 30.3716 21.6521 29.3299 21.4659 28.231C21.4354 28.0481 21.341 27.882 21.1994 27.7622C21.0579 27.6423 20.8784 27.5766 20.693 27.5767H19.3692V26.5064H20.6845C20.8707 26.5065 21.0508 26.4402 21.1926 26.3195C21.3344 26.1988 21.4286 26.0315 21.4583 25.8476C21.6386 24.7429 22.0704 23.6944 22.7203 22.7831C22.8282 22.6321 22.879 22.4478 22.8636 22.2628C22.8483 22.0779 22.7678 21.9044 22.6366 21.7733L21.7122 20.8489L22.4691 20.0921L23.3898 21.0128C23.5214 21.1445 23.6955 21.2251 23.881 21.2401C24.0666 21.2551 24.2514 21.2036 24.4024 21.0948C25.313 20.4392 26.3627 20.0028 27.4696 19.8194C27.6532 19.7887 27.8198 19.6938 27.9398 19.5515C28.0598 19.4092 28.1252 19.2289 28.1243 19.0428V17.7441H29.1991V19.0428C29.1991 19.2287 29.2652 19.4085 29.3855 19.5502C29.5059 19.6919 29.6727 19.7862 29.8561 19.8162C30.9624 20.0004 32.0113 20.4373 32.9211 21.093C33.072 21.202 33.2569 21.2536 33.4425 21.2386C33.628 21.2235 33.8022 21.1429 33.9336 21.011L34.8544 20.0903L35.6112 20.8471L34.6869 21.7715C34.5556 21.9026 34.4752 22.0761 34.4598 22.261C34.4445 22.446 34.4953 22.6303 34.6031 22.7813C35.2531 23.6926 35.6848 24.7411 35.8651 25.8459C35.8948 26.0297 35.989 26.197 36.1308 26.3177C36.2726 26.4384 36.4528 26.5047 36.639 26.5046H37.9543V27.574Z" fill="white"/>
<path d="M28.6607 21.5072C27.5713 21.5072 26.5063 21.8303 25.6004 22.4355C24.6946 23.0408 23.9886 23.9011 23.5716 24.9076C23.1547 25.9141 23.0456 27.0217 23.2582 28.0902C23.4707 29.1587 23.9953 30.1402 24.7657 30.9106C25.5361 31.6809 26.5176 32.2055 27.5861 32.4181C28.6546 32.6306 29.7621 32.5215 30.7687 32.1046C31.7752 31.6877 32.6355 30.9817 33.2407 30.0758C33.846 29.17 34.1691 28.105 34.1691 27.0156C34.167 25.5553 33.5861 24.1554 32.5535 23.1228C31.5209 22.0902 30.121 21.5092 28.6607 21.5072ZM28.6607 30.9592C27.8813 30.9592 27.1193 30.7281 26.4712 30.295C25.8232 29.862 25.318 29.2465 25.0198 28.5264C24.7215 27.8063 24.6434 27.0139 24.7955 26.2494C24.9476 25.4849 25.3229 24.7827 25.874 24.2316C26.4252 23.6804 27.1274 23.3051 27.8919 23.153C28.6563 23.001 29.4487 23.079 30.1688 23.3773C30.8889 23.6756 31.5044 24.1807 31.9375 24.8288C32.3705 25.4769 32.6016 26.2388 32.6016 27.0182C32.6002 28.0631 32.1846 29.0647 31.4458 29.8035C30.7071 30.5423 29.7055 30.9581 28.6607 30.9596V30.9592Z" fill="white"/>
<path d="M28.6616 6.08293C28.8695 6.08293 29.0688 6.00036 29.2158 5.85338C29.3628 5.70641 29.4453 5.50707 29.4453 5.29922V0.783709C29.4453 0.575857 29.3628 0.376517 29.2158 0.229543C29.0688 0.0825691 28.8695 0 28.6616 0C28.4538 0 28.2544 0.0825691 28.1075 0.229543C27.9605 0.376517 27.8779 0.575857 27.8779 0.783709V5.29922C27.8779 5.50707 27.9605 5.70641 28.1075 5.85338C28.2544 6.00036 28.4538 6.08293 28.6616 6.08293Z" fill="white"/>
<path d="M47.8191 8.39472L44.626 11.5878C44.5533 11.6605 44.4955 11.7469 44.4561 11.842C44.4168 11.9371 44.3965 12.039 44.3965 12.142C44.3965 12.2449 44.4168 12.3468 44.4561 12.4419C44.4955 12.537 44.5533 12.6234 44.626 12.6962C44.6988 12.7689 44.7852 12.8267 44.8803 12.8661C44.9754 12.9054 45.0773 12.9257 45.1802 12.9257C45.2832 12.9257 45.3851 12.9054 45.4802 12.8661C45.5752 12.8267 45.6616 12.7689 45.7344 12.6962L48.9275 9.5031C49.0003 9.43033 49.058 9.34393 49.0974 9.24884C49.1368 9.15375 49.157 9.05183 49.157 8.94891C49.157 8.84599 49.1368 8.74407 49.0974 8.64898C49.058 8.55389 49.0003 8.46749 48.9275 8.39472C48.8547 8.32194 48.7683 8.26421 48.6732 8.22482C48.5781 8.18543 48.4762 8.16516 48.3733 8.16516C48.2704 8.16516 48.1684 8.18543 48.0734 8.22482C47.9783 8.26421 47.8919 8.32194 47.8191 8.39472Z" fill="white"/>
<path d="M56.5395 27.8777H52.0239C51.8161 27.8777 51.6168 27.9603 51.4698 28.1072C51.3228 28.2542 51.2402 28.4535 51.2402 28.6614C51.2402 28.8692 51.3228 29.0686 51.4698 29.2156C51.6168 29.3625 51.8161 29.4451 52.0239 29.4451H56.5395C56.7473 29.4451 56.9466 29.3625 57.0936 29.2156C57.2406 29.0686 57.3232 28.8692 57.3232 28.6614C57.3232 28.4535 57.2406 28.2542 57.0936 28.1072C56.9466 27.9603 56.7473 27.8777 56.5395 27.8777Z" fill="white"/>
<path d="M5.29922 27.8777H0.783709C0.575857 27.8777 0.376517 27.9603 0.229543 28.1072C0.0825691 28.2542 0 28.4535 0 28.6614C0 28.8692 0.0825691 29.0686 0.229543 29.2156C0.376517 29.3625 0.575857 29.4451 0.783709 29.4451H5.29922C5.50707 29.4451 5.70641 29.3625 5.85338 29.2156C6.00036 29.0686 6.08293 28.8692 6.08293 28.6614C6.08293 28.4535 6.00036 28.2542 5.85338 28.1072C5.70641 27.9603 5.50707 27.8777 5.29922 27.8777Z" fill="white"/>
<path d="M12.696 11.5878L9.50298 8.39472C9.356 8.24773 9.15665 8.16516 8.94879 8.16516C8.74093 8.16516 8.54158 8.24773 8.39459 8.39472C8.24761 8.5417 8.16504 8.74105 8.16504 8.94891C8.16504 9.15677 8.24761 9.35612 8.39459 9.5031L11.5876 12.6962C11.7346 12.8431 11.934 12.9257 12.1418 12.9257C12.3497 12.9257 12.5491 12.8431 12.696 12.6962C12.843 12.5492 12.9256 12.3498 12.9256 12.142C12.9256 11.9341 12.843 11.7348 12.696 11.5878Z" fill="white"/>
</g>
<defs>
<clipPath id="clip0_612_341">
<rect width="57.3227" height="57.3227" fill="white"/>
</clipPath>
</defs>
</svg>
