<svg width="58" height="58" viewBox="0 0 58 58" fill="none" xmlns="http://www.w3.org/2000/svg">
<g clip-path="url(#clip0_612_354)">
<path d="M46.5683 40.6453V33.9715C46.5683 33.3531 46.0669 32.8519 45.4487 32.8519H38.7788C38.6085 30.5502 36.6819 28.7298 34.3383 28.7298C31.9946 28.7298 30.0682 30.5502 29.8979 32.8519H24.4738V26.5572C24.4738 25.9389 23.9725 25.4376 23.3543 25.4376H22.5673C21.3468 25.4376 20.3538 24.4439 20.3538 23.2224C20.3538 22.001 21.3467 21.0072 22.5673 21.0072H23.3543C23.9725 21.0072 24.4738 20.506 24.4738 19.8876V12.1065C24.4738 11.4882 23.9716 10.9869 23.3532 10.9869H1.13228C0.514045 10.9869 0.0126953 11.4882 0.0126953 12.1065V56.2032C0.0126953 56.8215 0.514045 57.3227 1.13228 57.3227H45.4487C46.0669 57.3227 46.5683 56.8215 46.5683 56.2032V49.5293C48.8689 49.3587 50.6885 47.4315 50.6885 45.0872C50.6885 42.743 48.8689 40.8159 46.5683 40.6453ZM22.2347 13.2262V18.7805C19.934 18.9511 18.1146 20.8782 18.1146 23.2225C18.1146 25.5668 19.934 27.494 22.2347 27.6646V32.852H15.5759C14.9577 32.852 14.4563 33.3532 14.4563 33.9716V34.759C14.4563 35.9804 13.4634 36.9742 12.2428 36.9742C11.0222 36.9742 10.0293 35.9804 10.0293 34.759V33.9716C10.0293 33.3532 9.52794 32.852 8.9097 32.852H2.25187V13.2262H22.2347ZM2.25187 35.091H7.80221C7.9725 37.3927 9.89908 39.2131 12.2427 39.2131C14.5863 39.2131 16.5129 37.3927 16.6832 35.091H22.2335V41.7526C22.2335 42.3709 22.7349 42.8722 23.3531 42.8722H24.1401C25.3605 42.8722 26.3536 43.8659 26.3536 45.0874C26.3536 46.3088 25.3607 47.3026 24.1401 47.3026H23.3531C22.7349 47.3026 22.2335 47.8038 22.2335 48.4222V55.0836H2.25187V35.091ZM46.2358 47.3025H45.4488C44.8306 47.3025 44.3292 47.8037 44.3292 48.422V55.0836H24.4728V49.5293C26.7735 49.3587 28.5929 47.4315 28.5929 45.0872C28.5929 42.743 26.7735 40.8158 24.4728 40.6452V35.0909H31.0053C31.6235 35.0909 32.1249 34.5897 32.1249 33.9713V33.1839C32.1249 31.9625 33.1178 30.9687 34.3384 30.9687C35.559 30.9687 36.5519 31.9625 36.5519 33.1839V33.9713C36.5519 34.5897 37.0533 35.0909 37.6715 35.0909H44.3292V41.7525C44.3292 42.3708 44.8306 42.872 45.4488 42.872H46.2358C47.4563 42.872 48.4493 43.8658 48.4493 45.0872C48.4493 46.3087 47.4563 47.3025 46.2358 47.3025Z" fill="white"/>
<path d="M56.1891 0H33.9682C33.3499 0 32.8486 0.501238 32.8486 1.11958V7.79343C30.548 7.96405 28.7285 9.8912 28.7285 12.2355C28.7285 14.5798 30.548 16.5069 32.8486 16.6776V23.3524C32.8486 23.9708 33.3499 24.472 33.9682 24.472H41.7455C42.3637 24.472 42.8651 23.9708 42.8651 23.3524V22.565C42.8651 21.3435 43.858 20.3498 45.0786 20.3498C46.2992 20.3498 47.2921 21.3435 47.2921 22.565V23.3524C47.2921 23.9708 47.7935 24.472 48.4117 24.472H56.189C56.8073 24.472 57.3086 23.9697 57.3086 23.3514V1.11958C57.3087 0.501238 56.8074 0 56.1891 0ZM55.0695 22.2328H49.5192C49.3489 19.9312 47.4223 18.1107 45.0787 18.1107C42.7351 18.1107 40.8085 19.9312 40.6382 22.2328H35.0879V15.5703C35.0879 14.9519 34.5865 14.4507 33.9683 14.4507H33.1813C31.9609 14.4507 30.9678 13.457 30.9678 12.2355C30.9678 11.014 31.9608 10.0203 33.1812 10.0203H33.9682C34.5864 10.0203 35.0878 9.51904 35.0878 8.9007V2.23917H55.0695V22.2328Z" fill="white"/>
</g>
<defs>
<clipPath id="clip0_612_354">
<rect width="57.3227" height="57.3227" fill="white"/>
</clipPath>
</defs>
</svg>
