<svg width="82" height="82" viewBox="0 0 82 82" fill="none" xmlns="http://www.w3.org/2000/svg">
<g clip-path="url(#clip0_588_2415)">
<path d="M34.4031 57.3687C34.1803 57.3687 33.8461 57.2573 33.7347 57.1459L26.6047 51.0186C26.3819 50.7957 26.2705 50.4615 26.2705 50.1273C26.2705 49.7931 26.3819 49.4589 26.6047 49.2361L33.7347 43.1088C34.1803 42.6631 34.8487 42.7745 35.2944 43.2202C35.74 43.6658 35.6286 44.3342 35.183 44.7798L29.0556 50.0159L35.183 55.252C35.6286 55.6976 35.74 56.366 35.2944 56.8116C34.9601 57.2573 34.7373 57.3687 34.4031 57.3687Z" fill="#F15A28"/>
<path d="M48.4403 57.3686C48.1061 57.3686 47.7719 57.2572 47.5491 57.0344C47.1034 56.5888 47.2148 55.9204 47.6605 55.4747L53.7878 50.2387L47.6605 45.0026C47.2148 44.557 47.1034 43.8886 47.5491 43.4429C47.9947 42.9973 48.6631 42.8859 49.1087 43.3315L56.2387 49.4588C56.4615 49.6817 56.5729 50.0159 56.5729 50.3501C56.5729 50.6843 56.4615 51.0185 56.2387 51.2413L49.2201 57.1458C48.9973 57.3686 48.7745 57.3686 48.4403 57.3686Z" fill="#F15A28"/>
<path d="M38.8594 61.9363C38.748 61.9363 38.748 61.9363 38.6366 61.9363C38.0796 61.8249 37.6339 61.2679 37.7453 60.5994L42.2016 39.4324C42.313 38.8753 42.87 38.4297 43.5384 38.5411C44.0955 38.6525 44.5411 39.2095 44.4297 39.878L39.9734 61.045C39.862 61.6021 39.4164 61.9363 38.8594 61.9363Z" fill="#F15A28"/>
<path d="M67.3792 73.5225H15.4642C11.3422 73.5225 8 70.1804 8 66.0583V21.9417C8 17.8197 11.3422 14.4775 15.4642 14.4775H67.4906C71.5012 14.4775 74.8434 17.8197 74.8434 21.9417V66.0583C74.8434 70.1804 71.5012 73.5225 67.3792 73.5225ZM15.4642 16.7057C12.5676 16.7057 10.2281 19.0452 10.2281 21.9417V66.0583C10.2281 68.9549 12.5676 71.2944 15.4642 71.2944H67.4906C70.3872 71.2944 72.7267 68.9549 72.7267 66.0583V21.9417C72.6153 19.0452 70.2757 16.7057 67.3792 16.7057H15.4642Z" fill="#022A4D"/>
<path d="M73.7293 32.191H9.11406C8.55703 32.191 8 31.7454 8 31.0769C8 30.5199 8.44562 29.9629 9.11406 29.9629H73.7293C74.2864 29.9629 74.8434 30.4085 74.8434 31.0769C74.8434 31.7454 74.3978 32.191 73.7293 32.191Z" fill="#022A4D"/>
<path d="M26.8276 26.9549C24.9337 26.9549 23.374 25.3953 23.374 23.5014C23.374 21.6075 24.9337 20.0478 26.8276 20.0478C28.7215 20.0478 30.2812 21.6075 30.2812 23.5014C30.3926 25.2839 28.8329 26.9549 26.8276 26.9549ZM26.8276 22.1645C26.1592 22.1645 25.4907 22.7215 25.4907 23.5014C25.4907 24.1698 26.0478 24.8382 26.8276 24.8382C27.496 24.8382 28.1645 24.2812 28.1645 23.5014C28.1645 22.7215 27.6074 22.1645 26.8276 22.1645Z" fill="#022A4D"/>
<path d="M16.1327 26.8436C14.2388 26.8436 12.6791 25.2839 12.6791 23.39C12.6791 21.4961 14.2388 19.9364 16.1327 19.9364C18.0265 19.9364 19.5862 21.4961 19.5862 23.39C19.5862 25.2839 18.0265 26.8436 16.1327 26.8436ZM16.1327 22.0531C15.4642 22.0531 14.7958 22.7215 14.7958 23.39C14.7958 24.0584 15.3528 24.7268 16.1327 24.7268C16.8011 24.7268 17.4695 24.1698 17.4695 23.39C17.3581 22.7215 16.8011 22.0531 16.1327 22.0531Z" fill="#022A4D"/>
<path d="M37.6339 26.9549C35.74 26.9549 34.1803 25.3953 34.1803 23.5014C34.1803 21.6075 35.74 20.0478 37.6339 20.0478C39.5278 20.0478 41.0874 21.6075 41.0874 23.5014C41.0874 25.3953 39.5278 26.9549 37.6339 26.9549ZM37.6339 22.1645C36.9654 22.1645 36.297 22.7215 36.297 23.5014C36.297 24.1698 36.854 24.8382 37.6339 24.8382C38.3023 24.8382 38.9707 24.2812 38.9707 23.5014C38.8593 22.7215 38.3023 22.1645 37.6339 22.1645Z" fill="#022A4D"/>
</g>
<defs>
<clipPath id="clip0_588_2415">
<rect width="66.8434" height="76" fill="white" transform="translate(8 6)"/>
</clipPath>
</defs>
</svg>
