<svg width="83" height="82" viewBox="0 0 83 82" fill="none" xmlns="http://www.w3.org/2000/svg">
<g clip-path="url(#clip0_588_2386)">
<path d="M31.3092 37.7629C31.3111 38.1981 31.1836 38.624 30.943 38.9867C30.7024 39.3493 30.3595 39.6323 29.9578 39.7997C29.5561 39.9671 29.1137 40.0114 28.6868 39.927C28.2598 39.8425 27.8676 39.6332 27.5599 39.3254C27.2522 39.0177 27.0428 38.6255 26.9584 38.1986C26.8739 37.7716 26.9182 37.3293 27.0856 36.9276C27.2531 36.5258 27.536 36.1829 27.8987 35.9423C28.2613 35.7017 28.6872 35.5743 29.1224 35.5762C29.4155 35.5532 29.71 35.594 29.9857 35.6958C30.2614 35.7975 30.5118 35.9578 30.7197 36.1657C30.9275 36.3735 31.0878 36.6239 31.1896 36.8996C31.2914 37.1754 31.3321 37.4699 31.3092 37.7629Z" fill="#022A4D"/>
<path d="M31.3092 51.0265C31.3092 51.4613 31.1801 51.8863 30.9384 52.2477C30.6966 52.6091 30.353 52.8906 29.9512 53.0565C29.5493 53.2224 29.1072 53.2654 28.6809 53.1799C28.2546 53.0943 27.8633 52.8842 27.5565 52.5761C27.2498 52.268 27.0413 51.8758 26.9577 51.4491C26.874 51.0224 26.9189 50.5805 27.0866 50.1794C27.2543 49.7782 27.5372 49.4359 27.8997 49.1957C28.2621 48.9555 28.6877 48.8283 29.1225 48.8302C29.4108 48.8289 29.6965 48.885 29.963 48.995C30.2295 49.105 30.4715 49.2669 30.6749 49.4712C30.8784 49.6756 31.0392 49.9183 31.1481 50.1852C31.257 50.4522 31.3117 50.7382 31.3092 51.0265Z" fill="#022A4D"/>
<path d="M68.0349 32.7783C68.1378 32.2597 68.1794 31.7309 68.159 31.2027C68.1595 30.1527 67.9435 29.1139 67.5245 28.1511C67.1056 27.1883 66.4926 26.3222 65.724 25.6069C64.9641 24.8766 64.0657 24.306 63.0816 23.9288C62.0975 23.5516 61.0479 23.3754 59.9946 23.4106C59.3308 19.2867 57.3079 15.5028 54.2473 12.6602C51.1867 9.81764 47.264 8.07935 43.1023 7.72154C38.9625 7.347 34.8146 8.34571 31.299 10.5635C27.7834 12.7812 25.0957 16.0946 23.6509 19.9921C22.3899 19.8371 21.1104 19.9507 19.8965 20.3255C18.6826 20.7002 17.5617 21.3275 16.6075 22.1663C15.6533 23.0051 14.8874 24.0363 14.3601 25.1921C13.8327 26.3479 13.556 27.6023 13.548 28.8727C13.5501 29.6953 13.6756 30.5128 13.9204 31.2982C11.7206 32.4696 9.97527 34.3424 8.96147 36.6192C7.94767 38.8959 7.72352 41.446 8.32462 43.8647C8.92459 46.2749 10.3178 48.4132 12.2802 49.9356C14.2426 51.4581 16.6601 52.2762 19.1437 52.2583H23.6509V49.9284H19.1437C17.0827 49.92 15.0873 49.2026 13.4927 47.8967C11.8982 46.5908 10.8016 44.776 10.3872 42.757C9.96547 40.7294 10.2712 38.618 11.2508 36.7933C12.2304 34.9686 13.8212 33.5471 15.7442 32.7783C16.0025 32.6408 16.2124 32.4275 16.3458 32.1671C16.4074 32.0339 16.4393 31.8889 16.4393 31.7422C16.4393 31.5954 16.4074 31.4504 16.3458 31.3173C16.0102 30.5098 15.8444 29.6419 15.8588 28.7677C15.8787 27.001 16.5893 25.3123 17.8386 24.0631C19.0878 22.8138 20.7765 22.1032 22.5432 22.0833C23.0772 22.0946 23.6072 22.1781 24.1188 22.3316C24.2554 22.3752 24.3994 22.3907 24.5422 22.3771C24.685 22.3634 24.8235 22.3209 24.9494 22.2522C25.0753 22.1835 25.1859 22.0899 25.2745 21.9771C25.3632 21.8644 25.428 21.7349 25.4652 21.5963C26.5913 17.9377 28.9435 14.7787 32.1258 12.6511C35.3081 10.5235 39.1262 9.55711 42.9375 9.9147C46.7488 10.2723 50.3205 11.932 53.0515 14.6144C55.7825 17.2968 57.506 20.8382 57.932 24.6425C57.9377 24.7967 57.9863 24.9464 58.0723 25.0745C58.1583 25.2027 58.2784 25.3044 58.419 25.3682C58.5371 25.4639 58.673 25.5351 58.8189 25.5777C58.9649 25.6204 59.1178 25.6335 59.2688 25.6165C59.5784 25.5241 59.9008 25.4822 60.2237 25.4923C61.7032 25.5072 63.1178 26.1016 64.164 27.1478C65.2102 28.194 65.8046 29.6086 65.8195 31.0881C65.8205 31.7419 65.6973 32.39 65.4566 32.9979C65.3372 33.305 65.3372 33.6457 65.4566 33.9528C65.5807 34.3157 65.9436 34.4302 66.1823 34.5544C68.0591 34.9624 69.7235 36.0389 70.8654 37.5831C72.0073 39.1273 72.5489 41.0341 72.3892 42.948C72.2037 44.8821 71.3032 46.6775 69.8638 47.9826C68.4244 49.2878 66.5498 50.0089 64.6067 50.0047H59.1638V52.1915H64.8932C67.2635 52.1898 69.5559 51.3453 71.3608 49.8088C73.1656 48.2723 74.3653 46.1441 74.7453 43.8044C75.1253 41.4648 74.6608 39.0663 73.435 37.0376C72.2092 35.0089 70.3019 33.4823 68.054 32.7305L68.0349 32.7783Z" fill="#022A4D"/>
<path d="M29.1224 35.5762C28.6872 35.5743 28.2613 35.7017 27.8987 35.9423C27.536 36.1829 27.2531 36.5258 27.0856 36.9276C26.9182 37.3293 26.8739 37.7716 26.9584 38.1986C27.0428 38.6255 27.2522 39.0177 27.5599 39.3254C27.8676 39.6332 28.2598 39.8425 28.6868 39.927C29.1137 40.0114 29.5561 39.9671 29.9578 39.7997C30.3595 39.6323 30.7024 39.3493 30.943 38.9867C31.1836 38.624 31.3111 38.1981 31.3092 37.7629C31.3321 37.4699 31.2914 37.1754 31.1896 36.8996C31.0878 36.6239 30.9275 36.3735 30.7197 36.1657C30.5118 35.9578 30.2614 35.7975 29.9857 35.6958C29.71 35.594 29.4155 35.5532 29.1224 35.5762Z" fill="#F15A28"/>
<path d="M29.1225 48.8302C28.6877 48.8283 28.2621 48.9555 27.8997 49.1957C27.5372 49.4359 27.2543 49.7782 27.0866 50.1794C26.9189 50.5805 26.874 51.0224 26.9577 51.4491C27.0413 51.8758 27.2498 52.268 27.5565 52.5761C27.8633 52.8842 28.2546 53.0943 28.6809 53.1799C29.1072 53.2654 29.5493 53.2224 29.9512 53.0565C30.353 52.8906 30.6966 52.6091 30.9384 52.2477C31.1801 51.8863 31.3092 51.4613 31.3092 51.0265C31.3104 50.7385 31.2548 50.4532 31.1455 50.1867C31.0362 49.9203 30.8753 49.6781 30.6721 49.4741C30.4689 49.27 30.2274 49.1081 29.9615 48.9976C29.6956 48.8871 29.4104 48.8302 29.1225 48.8302Z" fill="#F15A28"/>
<path d="M64.2725 61.1198C63.4806 60.98 62.6648 61.1222 61.9669 61.5218C61.269 61.9213 60.7333 62.5529 60.4529 63.3065H50.2832V56.6222H59.2784C59.4229 56.6235 59.5663 56.5959 59.7001 56.5412C59.8339 56.4865 59.9555 56.4056 60.0577 56.3034C60.1599 56.2012 60.2408 56.0796 60.2955 55.9458C60.3503 55.812 60.3778 55.6686 60.3765 55.5241V46.7294C60.3778 46.5848 60.3503 46.4415 60.2955 46.3076C60.2408 46.1738 60.1599 46.0523 60.0577 45.95C59.9555 45.8478 59.8339 45.767 59.7001 45.7122C59.5663 45.6575 59.4229 45.63 59.2784 45.6312H56.8529V43.4827H59.0396C59.1842 43.484 59.3276 43.4564 59.4614 43.4017C59.5952 43.347 59.7168 43.2661 59.819 43.1639C59.9212 43.0617 60.0021 42.9401 60.0568 42.8063C60.1115 42.6725 60.1391 42.5291 60.1378 42.3846V33.5135C60.1403 33.3681 60.1138 33.2237 60.0596 33.0888C60.0054 32.9539 59.9248 32.8312 59.8224 32.7279C59.7201 32.6247 59.5981 32.543 59.4636 32.4877C59.3292 32.4323 59.185 32.4045 59.0396 32.4058H23.5267C23.3821 32.4045 23.2388 32.4321 23.105 32.4868C22.9712 32.5415 22.8496 32.6224 22.7474 32.7246C22.6451 32.8268 22.5643 32.9484 22.5096 33.0822C22.4548 33.216 22.4273 33.3594 22.4286 33.5039V42.375C22.4273 42.5196 22.4548 42.663 22.5096 42.7968C22.5643 42.9306 22.6451 43.0521 22.7474 43.1544C22.8496 43.2566 22.9712 43.3374 23.105 43.3922C23.2388 43.4469 23.3821 43.4744 23.5267 43.4732H25.7134V45.6599H23.5267C23.3899 45.6391 23.2501 45.6483 23.1172 45.6869C22.9842 45.7255 22.8613 45.7926 22.7568 45.8834C22.6524 45.9742 22.5689 46.0867 22.5122 46.213C22.4555 46.3393 22.427 46.4764 22.4286 46.6148V55.4954C22.4273 55.64 22.4548 55.7833 22.5096 55.9172C22.5643 56.051 22.6451 56.1725 22.7474 56.2748C22.8496 56.377 22.9712 56.4578 23.105 56.5126C23.2388 56.5673 23.3821 56.5948 23.5267 56.5936H32.4073V63.2779H22.1898C21.9355 62.5164 21.4119 61.874 20.7174 61.4713C20.0228 61.0687 19.2052 60.9335 18.418 61.0912C17.6328 61.2112 16.9167 61.6086 16.3992 62.2112C15.8818 62.8138 15.5973 63.5818 15.5973 64.376C15.5973 65.1703 15.8818 65.9383 16.3992 66.5409C16.9167 67.1435 17.6328 67.5408 18.418 67.6609C19.2032 67.7826 20.0063 67.6308 20.693 67.231C21.3796 66.8312 21.9081 66.2076 22.1898 65.4646H33.4959C33.6397 65.4659 33.7823 65.4387 33.9154 65.3845C34.0486 65.3304 34.1698 65.2504 34.2719 65.1492C34.374 65.048 34.455 64.9275 34.5103 64.7948C34.5656 64.6621 34.5941 64.5198 34.5941 64.376V56.6222H40.1898V67.9283C39.4192 68.1851 38.7697 68.716 38.3648 69.4202C37.9599 70.1243 37.8278 70.9527 37.9935 71.7479C38.1883 72.5166 38.6283 73.201 39.2469 73.6972C39.8655 74.1934 40.629 74.4746 41.4216 74.498C42.2089 74.4857 42.9673 74.1998 43.5667 73.6892C44.1661 73.1787 44.5691 72.4754 44.7065 71.7002C44.8406 70.9088 44.696 70.0954 44.2971 69.3988C43.8983 68.7022 43.2702 68.1656 42.5198 67.8805V56.6222H48.106V64.4047C48.106 64.5476 48.1341 64.6892 48.1888 64.8213C48.2435 64.9533 48.3237 65.0733 48.4248 65.1744C48.5259 65.2755 48.6459 65.3557 48.778 65.4104C48.9101 65.4651 49.0516 65.4933 49.1946 65.4933H60.5197C60.7747 66.2651 61.3053 66.9159 62.01 67.3211C62.7147 67.7263 63.544 67.8575 64.3394 67.6896C65.1245 67.5695 65.8407 67.1721 66.3581 66.5696C66.8756 65.967 67.16 65.199 67.16 64.4047C67.16 63.6104 66.8756 62.8424 66.3581 62.2398C65.8407 61.6372 65.1245 61.2399 64.3394 61.1198H64.2725ZM19.1437 65.6174C18.9265 65.6174 18.7142 65.553 18.5336 65.4323C18.353 65.3117 18.2123 65.1402 18.1291 64.9395C18.046 64.7389 18.0243 64.5181 18.0667 64.305C18.109 64.092 18.2136 63.8963 18.3672 63.7428C18.5208 63.5892 18.7164 63.4846 18.9295 63.4422C19.1425 63.3999 19.3633 63.4216 19.5639 63.5047C19.7646 63.5878 19.9361 63.7286 20.0568 63.9092C20.1774 64.0898 20.2418 64.3021 20.2418 64.5193C20.2218 64.8039 20.0997 65.0718 19.8979 65.2735C19.6962 65.4753 19.4283 65.5974 19.1437 65.6174ZM24.6153 41.0477V34.3634H58.037V41.0477H24.6153ZM54.7903 43.244V45.4307H28.053V43.244H54.7903ZM41.4216 72.3113C41.2044 72.3113 40.9921 72.2469 40.8115 72.1262C40.631 72.0056 40.4902 71.8341 40.4071 71.6334C40.324 71.4327 40.3022 71.2119 40.3446 70.9989C40.387 70.7859 40.4916 70.5902 40.6451 70.4367C40.7987 70.2831 40.9944 70.1785 41.2074 70.1361C41.4204 70.0938 41.6412 70.1155 41.8419 70.1986C42.0425 70.2817 42.214 70.4225 42.3347 70.6031C42.4554 70.7836 42.5198 70.996 42.5198 71.2132C42.4998 71.4978 42.3777 71.7656 42.1759 71.9674C41.9741 72.1692 41.7063 72.2913 41.4216 72.3113ZM24.6153 54.4259V47.7416H58.037V54.4259H24.6153ZM63.6614 65.4933C63.4438 65.4933 63.2311 65.4286 63.0503 65.3075C62.8695 65.1864 62.7288 65.0144 62.646 64.8131C62.5631 64.6119 62.5419 64.3906 62.5851 64.1774C62.6282 63.9641 62.7338 63.7684 62.8883 63.6152C63.0429 63.4621 63.2394 63.3582 63.4531 63.3169C63.6667 63.2757 63.8878 63.2988 64.0883 63.3834C64.2888 63.4679 64.4596 63.6102 64.5791 63.792C64.6986 63.9738 64.7614 64.1871 64.7595 64.4047C64.7595 64.5484 64.7311 64.6908 64.6758 64.8235C64.6205 64.9562 64.5394 65.0766 64.4373 65.1778C64.3352 65.279 64.2141 65.359 64.0809 65.4132C63.9477 65.4673 63.8051 65.4945 63.6614 65.4933Z" fill="#F15A28"/>
</g>
<defs>
<clipPath id="clip0_588_2386">
<rect width="66.8434" height="76" fill="white" transform="translate(8 3)"/>
</clipPath>
</defs>
</svg>
