<svg width="83" height="82" viewBox="0 0 83 82" fill="none" xmlns="http://www.w3.org/2000/svg">
<g clip-path="url(#clip0_588_2399)">
<path d="M68.3966 52.6836C67.6055 52.6836 69.066 52.501 47.2201 57.9168C47.0376 57.3083 46.7333 56.7607 46.2465 56.2738L39.6137 49.7018C38.8226 48.9108 37.7272 48.4239 36.5711 48.4239H23.4879C23.2445 46.1724 21.2972 44.4077 18.9848 44.4077H15.5771C13.0822 44.4077 11.0741 46.4158 11.0741 48.9108V64.7931C11.0741 67.288 13.0822 69.2962 15.5771 69.2962H18.9848C21.4798 69.2962 23.4879 67.288 23.4879 64.7931V63.211C25.6786 63.6978 28.2343 63.6978 31.642 65.4016C38.4575 68.7485 38.7009 68.7485 39.9179 69.5396C42.8997 71.4868 46.7942 71.4868 49.7759 69.6004L66.8145 60.9594C67.2404 60.716 67.423 60.1684 67.1796 59.7424C66.9362 59.3164 66.3885 59.1339 65.9625 59.3773C48.1938 68.3834 48.924 68.0183 48.8023 68.0791C46.3682 69.6613 43.2648 69.6004 40.8307 68.0791C39.4919 67.2272 39.066 67.1055 32.3723 63.8195C28.5995 61.9939 25.8003 61.9331 23.427 61.4463V50.1886H36.5102C37.1796 50.1886 37.8489 50.4321 38.2749 50.9189L44.9686 57.4909C46.2465 58.7688 45.3946 60.9594 43.6299 60.9594C43.0822 60.9594 42.5954 60.7769 42.2303 60.3509L36.3276 54.4483C35.9625 54.0832 35.4149 54.0832 35.0498 54.4483C34.6846 54.8134 34.6846 55.3611 35.0498 55.7262L40.9524 61.6288C43.0822 63.7586 46.7333 62.6633 47.3418 59.6815L68.2749 54.3874C69.3094 54.2657 70.2222 55.1177 70.2222 56.1521C70.2222 57.3083 69.3094 57.6734 69.3094 57.6734C68.8834 57.9168 68.7009 58.4645 68.9443 58.8905C69.1877 59.3164 69.7354 59.499 70.1613 59.2556L70.3439 59.1339C71.2567 58.7079 72.0477 57.4909 72.0477 56.0913C71.926 54.2657 70.3439 52.6836 68.3966 52.6836ZM21.7232 64.7931C21.7232 66.3144 20.5061 67.5314 18.9848 67.5314H15.5771C14.0558 67.5314 12.8388 66.3144 12.8388 64.7931V48.9108C12.8388 47.3895 14.0558 46.1724 15.5771 46.1724H18.9848C20.3236 46.1724 21.4189 47.1461 21.6623 48.4239C21.7232 48.7891 21.7232 64.7931 21.7232 64.7931Z" fill="#022A4D"/>
<path d="M18.498 59.925C18.072 59.7424 17.5243 59.925 17.3418 60.4118C17.1592 60.8377 17.3418 61.3854 17.8286 61.568C19.0456 62.1156 18.6805 63.9412 17.3418 63.9412C16.4899 63.9412 15.8813 63.0893 16.1248 62.2982C16.2465 61.8114 16.003 61.3246 15.5162 61.2029C15.0294 61.0812 14.5426 61.3246 14.4209 61.8114C13.8124 63.7586 15.2728 65.7668 17.3418 65.7668C19.0456 65.7668 20.3844 64.428 20.3844 62.7242C20.3235 61.5071 19.5933 60.4118 18.498 59.925Z" fill="#022A4D"/>
<path d="M21.4189 33.9412C21.9057 33.8195 22.2099 33.3935 22.0882 32.9067C21.6623 30.7769 23.3053 28.8296 25.4351 28.8296C25.9219 28.8296 26.3479 28.4037 26.3479 27.9168V25.6653C26.3479 24.7525 27.0781 24.0223 27.9909 24.0223H30.2424C30.7292 24.0223 31.1552 23.5964 31.1552 23.1095C31.1552 21.2231 32.6765 19.7018 34.5629 19.7018C36.4493 19.7018 37.9706 21.2231 37.9706 23.1095C37.9706 23.5964 38.3965 24.0223 38.8834 24.0223H41.1349C42.0477 24.0223 42.7779 24.7525 42.7779 25.6653V27.1258C41.2566 27.3692 39.857 28.3428 39.0659 29.8033C39.0659 29.8033 39.0659 29.8641 39.0051 29.8641C38.64 30.5943 38.4574 31.3854 38.4574 32.1765C38.4574 32.785 38.5791 33.3327 38.7617 33.8195C38.7617 33.8803 38.7617 33.8803 38.7617 33.8803C39.3702 35.645 40.9523 36.9229 42.7779 37.2272V38.6876C42.7779 39.6004 42.0477 40.3306 41.1349 40.3306H39.6744C39.2485 37.8966 37.1187 36.0102 34.5629 36.0102C32.0071 36.0102 29.8773 37.8966 29.4513 40.3306H27.9909C27.0781 40.3306 26.3479 39.6004 26.3479 38.6876V36.4361C26.3479 35.9493 25.9219 35.5233 25.4351 35.5233C24.8266 35.5233 24.218 35.3408 23.6704 35.0365C23.2444 34.7931 22.6967 34.9148 22.4533 35.3408C22.2099 35.7667 22.3316 36.3144 22.7576 36.5578C23.3053 36.8621 23.9138 37.1055 24.5223 37.2272V38.6876C24.5223 40.574 26.0436 42.0953 27.93 42.0953H30.1815C30.6683 42.0953 31.0943 41.6694 31.0943 41.1826C31.0943 39.2962 32.6156 37.7749 34.502 37.7749C36.3884 37.7749 37.9097 39.2962 37.9097 41.1826C37.9097 41.6694 38.3357 42.0953 38.8225 42.0953H41.074C42.1085 42.0953 42.9604 41.6694 43.6298 41C44.2383 41.6694 45.1511 42.0953 46.1856 42.0953H48.4371C48.9239 42.0953 49.3499 41.6694 49.3499 41.1826C49.3499 39.2962 50.8712 37.7749 52.7576 37.7749C54.644 37.7749 56.1653 39.2962 56.1653 41.1826C56.1653 41.6694 56.5913 42.0953 57.0781 42.0953H59.3296C61.216 42.0953 62.7373 40.574 62.7373 38.6876V36.4361C62.7373 35.9493 62.3114 35.5233 61.8245 35.5233C59.9381 35.5233 58.4168 34.002 58.4168 32.1156C58.4168 30.2292 59.9381 28.7079 61.8245 28.7079C62.3114 28.7079 62.7373 28.282 62.7373 27.7951V25.5436C62.7373 23.6572 61.216 22.1359 59.3296 22.1359H57.0781C56.5913 22.1359 56.1653 22.5619 56.1653 23.0487C56.1653 24.9351 54.644 26.4564 52.7576 26.4564C50.8712 26.4564 49.3499 24.9351 49.3499 23.0487C49.3499 22.5619 48.9239 22.1359 48.4371 22.1359H46.1856C45.212 22.1359 44.2992 22.5619 43.6298 23.2313C43.0213 22.5619 42.1085 22.1359 41.074 22.1359H39.6136C39.1876 19.7018 37.0578 17.8154 34.502 17.8154C31.9462 17.8154 29.8164 19.7018 29.3905 22.1359H27.93C26.0436 22.1359 24.5223 23.6572 24.5223 25.5436V27.0041C21.6623 27.4909 19.715 30.2901 20.3235 33.1501C20.4452 33.6978 20.932 34.002 21.4189 33.9412ZM43.6298 28.7688C44.1166 28.7688 44.5426 28.3428 44.5426 27.856V25.6045C44.5426 24.6917 45.2728 23.9615 46.1856 23.9615H47.646C48.072 26.3956 50.2018 28.282 52.7576 28.282C55.3134 28.282 57.4432 26.3956 57.8692 23.9615H59.3296C60.2424 23.9615 60.9726 24.6917 60.9726 25.6045V27.0649C58.5385 27.4909 56.6521 29.6207 56.6521 32.1765C56.6521 34.7323 58.5385 36.8621 60.9726 37.288V38.7485C60.9726 39.6613 60.2424 40.3915 59.3296 40.3915H57.8692C57.4432 37.9574 55.3134 36.071 52.7576 36.071C50.2018 36.071 48.072 37.9574 47.646 40.3915H46.1856C45.2728 40.3915 44.5426 39.6613 44.5426 38.7485C44.5426 37.3489 44.5426 37.8966 44.5426 36.497C44.5426 36.0102 44.1775 35.5842 43.6298 35.5842C42.8996 35.5842 42.1694 35.3408 41.5608 34.9148C39.0051 32.9067 40.4047 28.7688 43.6298 28.7688Z" fill="#F15A28"/>
<path d="M40.5873 46.1724V48.4848C40.5873 48.9716 41.0132 49.3976 41.5001 49.3976C41.9869 49.3976 42.4128 48.9716 42.4128 48.4848V46.1724C42.4128 45.6856 41.9869 45.2596 41.5001 45.2596C41.0132 45.3205 40.5873 45.6856 40.5873 46.1724Z" fill="#022A4D"/>
<path d="M41.5001 15.0771C41.9869 15.0771 42.4128 14.6511 42.4128 14.1643V11.9128C42.4128 11.426 41.9869 11 41.5001 11C41.0132 11 40.5873 11.426 40.5873 11.9128V14.2252C40.5873 14.6511 41.0132 15.0771 41.5001 15.0771Z" fill="#022A4D"/>
<path d="M15.0903 28.0386H17.4026C17.8895 28.0386 18.3154 27.6126 18.3154 27.1258C18.3154 26.639 17.8895 26.213 17.4026 26.213H15.0903C14.6035 26.213 14.1775 26.639 14.1775 27.1258C14.1775 27.6126 14.6035 28.0386 15.0903 28.0386Z" fill="#022A4D"/>
<path d="M22.2099 15.4422C23.8529 16.7809 23.9747 17.146 24.5223 17.146C25.3742 17.146 25.7394 16.1116 25.07 15.5639L23.3053 14.1034C22.9402 13.7992 22.3925 13.86 22.0274 14.2251C21.784 14.5903 21.8448 15.1379 22.2099 15.4422Z" fill="#022A4D"/>
<path d="M17.5244 41.6694C17.8286 41.6694 17.8286 41.6085 19.9585 40.7566C20.4453 40.574 20.6278 40.0263 20.4453 39.6004C20.2627 39.1136 19.715 38.931 19.2891 39.1136L17.1593 39.9655C16.3073 40.3306 16.5507 41.6694 17.5244 41.6694Z" fill="#022A4D"/>
<path d="M67.2404 29.1947H69.5528C70.0396 29.1947 70.4656 28.7687 70.4656 28.2819C70.4656 27.7951 70.0396 27.3691 69.5528 27.3691H67.2404C66.7536 27.3691 66.3276 27.7951 66.3276 28.2819C66.3276 28.7687 66.6927 29.1947 67.2404 29.1947Z" fill="#022A4D"/>
<path d="M63.0416 45.3205L64.8063 46.7809C65.1714 47.0852 65.78 47.0243 66.0842 46.6592C66.3885 46.2941 66.3276 45.7464 65.9625 45.3813L64.1978 43.9209C63.8327 43.6166 63.285 43.6775 62.9199 44.0426C62.6156 44.4077 62.6765 44.9554 63.0416 45.3205Z" fill="#022A4D"/>
<path d="M57.7475 16.355L59.573 14.9554C59.9381 14.6511 60.0598 14.1035 59.7556 13.6775C59.4513 13.3124 58.9036 13.1907 58.4777 13.495L56.6521 14.8945C56.287 15.1988 56.1653 15.7465 56.4696 16.1724C56.8347 16.5984 57.3823 16.6593 57.7475 16.355Z" fill="#022A4D"/>
</g>
<defs>
<clipPath id="clip0_588_2399">
<rect width="61" height="60" fill="white" transform="translate(11 11)"/>
</clipPath>
</defs>
</svg>
