<svg width="86" height="82" viewBox="0 0 86 82" fill="none" xmlns="http://www.w3.org/2000/svg">
<g clip-path="url(#clip0_588_2607)">
<path d="M69.1592 44.3422V42.1173C69.4547 42.1148 69.7374 41.9963 69.9464 41.7873C70.1554 41.5783 70.2739 41.2956 70.2764 41.0001V34.3157C70.2764 34.0194 70.1587 33.7352 69.9492 33.5257C69.7396 33.3162 69.4555 33.1985 69.1592 33.1985H63.1433L62.9236 32.4059C62.4385 30.4895 61.6727 28.6553 60.651 26.9629L60.2117 26.2181L64.4801 21.9019C64.6877 21.6942 64.8043 21.4126 64.8043 21.1189C64.8043 20.8253 64.6877 20.5436 64.4801 20.3359L59.7056 15.5614C59.4971 15.359 59.2179 15.2457 58.9273 15.2457C58.6368 15.2457 58.3576 15.359 58.1491 15.5614L53.8807 19.8776L53.1358 19.4383C51.4482 18.4115 49.6215 17.6333 47.712 17.1274L46.8812 16.9173V10.9205C46.8787 10.625 46.7602 10.3423 46.5512 10.1333C46.3422 9.9243 46.0595 9.80579 45.764 9.8033H39.0796C38.7833 9.8033 38.4992 9.92101 38.2896 10.1305C38.0801 10.3401 37.9624 10.6242 37.9624 10.9205V16.9364L37.1316 17.1561C35.2152 17.6412 33.381 18.407 31.6887 19.4287L30.9438 19.868L26.6659 15.5996C26.4558 15.3965 26.175 15.283 25.8828 15.283C25.5907 15.283 25.3099 15.3965 25.0998 15.5996L20.3253 20.3741C20.2211 20.4759 20.1387 20.5978 20.0829 20.7324C20.0271 20.867 19.9991 21.0114 20.0006 21.1571C20.0018 21.4506 20.1184 21.7319 20.3253 21.9401L24.6033 26.2181L24.1545 26.9629C23.1538 28.6614 22.4014 30.4943 21.92 32.4059L21.7004 33.2367H15.6845C15.3946 33.2365 15.1161 33.349 14.9076 33.5503C14.6992 33.7516 14.5771 34.0261 14.5672 34.3157V41.0001C14.5672 41.2964 14.6849 41.5805 14.8944 41.7901C15.104 41.9996 15.3881 42.1173 15.6845 42.1173V44.3422C14.7981 44.3422 13.948 43.9901 13.3212 43.3633C12.6944 42.7365 12.3423 41.8865 12.3423 41.0001V34.3157C12.3423 33.4293 12.6944 32.5792 13.3212 31.9524C13.948 31.3257 14.7981 30.9735 15.6845 30.9735H19.9911C20.4506 29.4324 21.0716 27.944 21.8436 26.5332L18.7879 23.4775C18.4767 23.1686 18.2296 22.8012 18.0611 22.3964C17.8925 21.9916 17.8057 21.5574 17.8057 21.1189C17.8057 20.6804 17.8925 20.2463 18.0611 19.8415C18.2296 19.4366 18.4767 19.0692 18.7879 18.7603L23.5147 13.9858C24.1504 13.3798 24.995 13.0418 25.8733 13.0418C26.7516 13.0418 27.5962 13.3798 28.2319 13.9858L31.2972 17.1274C32.7066 16.3377 34.1948 15.6976 35.7375 15.2176V10.9205C35.7375 10.0341 36.0896 9.18405 36.7164 8.55727C37.3431 7.93049 38.1932 7.57837 39.0796 7.57837H45.764C46.6504 7.57837 47.5005 7.93049 48.1272 8.55727C48.754 9.18405 49.1061 10.0341 49.1061 10.9205V15.2176C50.6472 15.6938 52.1326 16.334 53.5369 17.1274L56.6021 14.0622C57.2379 13.4562 58.0825 13.1182 58.9608 13.1182C59.839 13.1182 60.6836 13.4562 61.3194 14.0622L66.0939 18.789C66.7178 19.4154 67.0682 20.2635 67.0682 21.1476C67.0682 22.0317 66.7178 22.8798 66.0939 23.5062L63.0287 26.5714C63.8007 27.9822 64.4216 29.4706 64.8812 31.0117H69.1592C70.039 31.0117 70.8833 31.3586 71.509 31.9771C72.1347 32.5956 72.4913 33.436 72.5013 34.3157V41.0001C72.5013 41.8865 72.1492 42.7365 71.5224 43.3633C70.8957 43.9901 70.0456 44.3422 69.1592 44.3422Z" fill="#F15A28"/>
<path d="M58.0153 37.6579H55.7904C55.7904 34.1123 54.3819 30.712 51.8748 28.2049C49.3677 25.6977 45.9673 24.2893 42.4217 24.2893C38.8761 24.2893 35.4758 25.6977 32.9686 28.2049C30.4615 30.712 29.0531 34.1123 29.0531 37.6579H26.8281C26.8281 33.5223 28.471 29.556 31.3954 26.6316C34.3198 23.7072 38.286 22.0643 42.4217 22.0643C46.5574 22.0643 50.5237 23.7072 53.4481 26.6316C56.3724 29.556 58.0153 33.5223 58.0153 37.6579Z" fill="#F15A28"/>
<path d="M42.4216 46.5672C41.0996 46.5672 39.8073 46.1751 38.708 45.4407C37.6088 44.7062 36.752 43.6622 36.2461 42.4408C35.7402 41.2194 35.6078 39.8754 35.8657 38.5788C36.1237 37.2821 36.7603 36.0911 37.6951 35.1563C38.6299 34.2215 39.821 33.5848 41.1176 33.3269C42.4142 33.069 43.7582 33.2014 44.9796 33.7073C46.201 34.2132 47.245 35.07 47.9795 36.1692C48.714 37.2684 49.106 38.5608 49.106 39.8828C49.106 41.6556 48.4017 43.3558 47.1482 44.6094C45.8946 45.8629 44.1944 46.5672 42.4216 46.5672ZM42.4216 35.433C41.5393 35.433 40.6767 35.6948 39.9431 36.1852C39.2096 36.6756 38.638 37.3726 38.3008 38.188C37.9635 39.0035 37.8758 39.9006 38.0486 40.7659C38.2215 41.6312 38.6471 42.4258 39.2718 43.049C39.8964 43.6723 40.6919 44.0963 41.5575 44.2673C42.4232 44.4382 43.3201 44.3486 44.1348 44.0096C44.9495 43.6706 45.6453 43.0975 46.1342 42.3629C46.623 41.6283 46.8829 40.7652 46.8811 39.8828C46.8785 38.7018 46.4076 37.57 45.5716 36.7357C44.7355 35.9015 43.6027 35.433 42.4216 35.433Z" fill="#022A4D"/>
<path d="M61.3574 51.0265C60.0354 51.0265 58.7431 50.6345 57.6438 49.9C56.5446 49.1655 55.6878 48.1216 55.1819 46.9002C54.676 45.6788 54.5436 44.3348 54.8015 43.0381C55.0595 41.7415 55.6961 40.5505 56.6309 39.6156C57.5657 38.6808 58.7568 38.0442 60.0534 37.7863C61.35 37.5284 62.694 37.6607 63.9154 38.1667C65.1368 38.6726 66.1808 39.5293 66.9153 40.6286C67.6497 41.7278 68.0418 43.0201 68.0418 44.3422C68.0418 46.115 67.3375 47.8152 66.084 49.0687C64.8304 50.3223 63.1302 51.0265 61.3574 51.0265ZM61.3574 39.8828C60.4755 39.8828 59.6133 40.1443 58.8799 40.6343C58.1466 41.1243 57.575 41.8208 57.2375 42.6356C56.9 43.4505 56.8116 44.3471 56.9837 45.2122C57.1558 46.0772 57.5805 46.8718 58.2042 47.4955C58.8278 48.1191 59.6224 48.5438 60.4875 48.7159C61.3525 48.888 62.2491 48.7997 63.064 48.4621C63.8788 48.1246 64.5753 47.553 65.0653 46.8197C65.5553 46.0863 65.8168 45.2242 65.8168 44.3422C65.8168 43.1595 65.347 42.0252 64.5107 41.1889C63.6744 40.3526 62.5401 39.8828 61.3574 39.8828Z" fill="#022A4D"/>
<path d="M23.4859 51.0265C22.1638 51.0265 20.8715 50.6345 19.7722 49.9C18.673 49.1655 17.8163 48.1216 17.3103 46.9002C16.8044 45.6788 16.672 44.3348 16.93 43.0381C17.1879 41.7415 17.8245 40.5505 18.7593 39.6156C19.6941 38.6808 20.8852 38.0442 22.1818 37.7863C23.4784 37.5284 24.8224 37.6607 26.0438 38.1667C27.2652 38.6726 28.3092 39.5293 29.0437 40.6286C29.7782 41.7278 30.1702 43.0201 30.1702 44.3422C30.1702 45.22 29.9973 46.0892 29.6614 46.9002C29.3255 47.7111 28.8331 48.448 28.2124 49.0687C27.5917 49.6894 26.8548 50.1818 26.0438 50.5177C25.2329 50.8536 24.3637 51.0265 23.4859 51.0265ZM23.4859 39.8828C22.6035 39.8809 21.7403 40.1408 21.0057 40.6297C20.2711 41.1185 19.6981 41.8143 19.3591 42.629C19.0201 43.4437 18.9304 44.3406 19.1014 45.2063C19.2724 46.072 19.6964 46.8674 20.3196 47.4921C20.9429 48.1167 21.7375 48.5423 22.6028 48.7152C23.4681 48.888 24.3652 48.8003 25.1806 48.463C25.996 48.1258 26.6931 47.5542 27.1835 46.8207C27.6739 46.0871 27.9357 45.2246 27.9357 44.3422C27.9357 43.1611 27.4672 42.0283 26.633 41.1923C25.7987 40.3562 24.6669 39.8853 23.4859 39.8828Z" fill="#022A4D"/>
<path d="M71.4604 53.8818C69.7992 52.7431 67.8308 52.1369 65.8169 52.1438H56.9076C56.3633 52.1437 55.8201 52.1916 55.2843 52.2871C54.5828 51.1559 53.6565 50.1809 52.5628 49.4223C52.4006 49.2967 52.2281 49.1849 52.0471 49.0881C50.4853 48.158 48.6989 47.6726 46.8811 47.6844H37.9623C36.2871 47.6806 34.6382 48.1006 33.1689 48.9053C31.6997 49.7101 30.4579 50.8734 29.5591 52.2871C29.0233 52.1916 28.4801 52.1437 27.9358 52.1438H19.0265C17.0126 52.1369 15.0442 52.7431 13.383 53.8818C12.0317 54.801 10.9258 56.0368 10.1619 57.4816C9.39788 58.9263 8.99899 60.536 9 62.1703V66.6202C9.00061 68.1098 9.42819 69.568 10.2321 70.8221C11.036 72.0762 12.1825 73.0735 13.5358 73.696C14.5553 74.1825 15.672 74.4306 16.8016 74.4218H27.9358V72.1968H17.9093V59.9359H15.6843V72.0823C15.2655 71.9978 14.8583 71.8631 14.4716 71.6812C13.5049 71.2341 12.6859 70.5203 12.1107 69.6238C11.5356 68.7273 11.2283 67.6853 11.2249 66.6202V62.1703C11.2296 60.898 11.5432 59.6458 12.1387 58.5214C12.7341 57.397 13.5937 56.434 14.6435 55.7152C15.934 54.832 17.4627 54.3624 19.0265 54.3688H27.9358C28.1363 54.3688 28.3273 54.3688 28.5183 54.3688C28.1399 55.4328 27.943 56.5529 27.9358 57.6823V68.8547C27.9408 70.3313 28.5303 71.7458 29.5753 72.789C30.6203 73.8322 32.0358 74.4193 33.5124 74.4218H36.8546V56.5937H34.6201V72.1968H33.5124C32.626 72.1968 31.7759 71.8447 31.1492 71.2179C30.5224 70.5912 30.1703 69.7411 30.1703 68.8547V57.7109C30.169 56.6869 30.3696 55.6726 30.7606 54.7261C31.1517 53.7796 31.7254 52.9195 32.4491 52.195C33.1728 51.4704 34.0322 50.8956 34.9782 50.5034C35.9242 50.1112 36.9382 49.9093 37.9623 49.9093H46.8811C48.3134 49.9115 49.7175 50.308 50.9394 51.0552L51.2641 51.2653C52.3077 51.9829 53.1653 52.9387 53.766 54.0536C54.3605 55.1811 54.6718 56.4363 54.6731 57.7109V68.8547C54.6731 69.7411 54.321 70.5912 53.6942 71.2179C53.0675 71.8447 52.2174 72.1968 51.331 72.1968H50.2233V56.5937H47.9888V74.4218H51.331C52.8076 74.4193 54.2231 73.8322 55.2681 72.789C56.3131 71.7458 56.9026 70.3313 56.9076 68.8547V57.7109C56.9036 56.572 56.7066 55.4419 56.3251 54.3688C56.5161 54.3688 56.7071 54.3688 56.9076 54.3688H65.8169C67.3823 54.361 68.9123 54.8343 70.1999 55.7247C71.2519 56.4391 72.1133 57.3999 72.7091 58.5233C73.3049 59.6467 73.6171 60.8987 73.6184 62.1703V66.6202C73.6164 67.6893 73.3075 68.7353 72.7287 69.6341C72.1498 70.5329 71.3252 71.2467 70.3527 71.6907C69.9701 71.8639 69.5699 71.9952 69.159 72.0823V59.9359H66.9341V72.1968H56.9076V74.4218H68.0418C69.1641 74.4304 70.2739 74.1856 71.2885 73.7056C72.6454 73.0833 73.7956 72.0852 74.6028 70.8295C75.4101 69.5737 75.8406 68.113 75.8434 66.6202V62.1703C75.8436 60.5362 75.4443 58.9268 74.6804 57.4821C73.9165 56.0375 72.8111 54.8015 71.4604 53.8818Z" fill="#022A4D"/>
<path d="M37.9624 72.1968H46.8812V74.4217H37.9624V72.1968Z" fill="#022A4D"/>
</g>
<defs>
<clipPath id="clip0_588_2607">
<rect width="66.8434" height="76" fill="white" transform="translate(9 3)"/>
</clipPath>
</defs>
</svg>
