<svg width="83" height="82" viewBox="0 0 83 82" fill="none" xmlns="http://www.w3.org/2000/svg">
<g clip-path="url(#clip0_588_2620)">
<path d="M9.64162 49.2353C10.008 49.4902 10.3953 49.7139 10.7994 49.9037C11.2807 50.1497 12.0875 50.5621 12.1443 50.8509C12.2145 51.2317 12.1686 51.6248 12.0126 51.9792C11.8468 52.3355 11.673 52.6423 11.5226 52.9064C11.1216 53.627 10.4317 54.8348 11.4611 55.6758C11.7018 55.8983 12.1176 56.2205 12.4959 56.5113C12.217 56.9989 12.0908 57.5589 12.1336 58.1189C12.1627 58.337 12.2364 58.5467 12.35 58.735C12.4636 58.9234 12.6148 59.0864 12.794 59.2138C13.0413 59.389 13.3054 59.54 13.5661 59.6818C14.2245 60.0574 14.4818 60.2319 14.5687 60.5808C14.6309 61.0287 14.5928 61.4859 14.4571 61.9177L14.29 62.8087C14.1796 63.824 14.3049 64.8511 14.6563 65.8101C14.9002 66.672 15.4151 67.4325 16.1248 67.979C16.8344 68.5256 17.7012 68.8291 18.5968 68.8448C18.9039 68.844 19.2101 68.8115 19.5106 68.7479C22.6928 67.993 25.8286 67.0545 28.9023 65.9371C31.4123 67.4097 32.9972 71.8883 33.4109 73.5694C33.4699 73.8122 33.6085 74.0281 33.8047 74.1828C34.0009 74.3374 34.2433 74.4218 34.4932 74.4223L62.4543 74.3441C62.6289 74.344 62.8011 74.3026 62.9567 74.2234C63.1124 74.1442 63.2471 74.0294 63.35 73.8883C63.4531 73.7472 63.5216 73.5838 63.5501 73.4114C63.5785 73.239 63.5661 73.0623 63.5138 72.8956C63.2385 72.1409 62.8587 71.4285 62.3854 70.7793C62.1183 70.3943 61.8775 69.9917 61.6649 69.5741C61.1608 68.5541 60.7397 67.4939 60.4068 66.4057C59.7792 64.2763 59.3414 62.0956 59.0987 59.889C59.0619 59.4839 58.8079 59.1309 58.4356 58.9685C58.2526 58.8892 58.0517 58.8604 57.8538 58.885C57.6559 58.9096 57.4683 58.9868 57.3103 59.1086C57.1523 59.2303 57.0299 59.3921 56.9556 59.5772C56.8814 59.7623 56.8581 59.9639 56.8881 60.161C57.1455 62.5006 57.6101 64.8114 58.2772 67.0681C58.6436 68.2655 59.1059 69.4315 59.6595 70.5547C59.9135 71.0593 60.2021 71.5458 60.5231 72.0106L60.598 72.1222L35.3334 72.1944C34.5941 69.552 33.2518 67.1169 31.4123 65.0801L32.4149 64.7292L34.0192 64.1797C38.7919 62.6704 41.1716 60.5033 41.1134 57.7185C41.1141 57.4217 40.9931 57.137 40.7792 56.9318C40.5653 56.7265 40.2759 56.6176 39.9791 56.631C39.6839 56.6385 39.4038 56.7626 39.2 56.9762C38.9962 57.1898 38.8853 57.4755 38.8915 57.7707C38.9183 58.917 37.9791 60.5888 33.3481 62.0541C32.7943 62.2385 32.2424 62.4284 31.6924 62.6236L28.6509 63.6751H28.6429C25.5077 64.8242 22.3088 65.7913 19.062 66.5714C18.562 66.6678 18.0442 66.567 17.6168 66.2901C17.1894 66.0133 16.8857 65.5818 16.7693 65.0861C16.5313 64.4524 16.4417 63.7726 16.5072 63.0989C16.536 62.8649 16.5895 62.6329 16.6409 62.4003C16.868 61.6298 16.9012 60.8152 16.7379 60.0287C16.413 59.006 15.6603 58.1771 14.6757 57.7519L14.4437 57.6196C14.5641 57.3769 14.7078 57.1463 14.8729 56.9311C15.0601 56.6945 15.1429 56.3917 15.1028 56.0929C15.0627 55.7941 14.9023 55.5247 14.6603 55.3442C14.3929 55.1483 13.7626 54.6758 13.3014 54.3034L13.4685 54.0026C13.6436 53.6965 13.8428 53.3395 14.038 52.9278C14.3905 52.1468 14.4943 51.2764 14.3355 50.4345C14.0681 49.0755 12.7666 48.4091 11.8167 47.9238C11.4972 47.7727 11.1911 47.5949 10.901 47.3923C10.6621 47.2319 10.4384 47.05 10.2325 46.8489C10.2325 46.6805 10.413 46.2727 11.2619 45.2446C13.2569 42.6773 14.9666 39.9005 16.3609 36.9632C16.6237 36.5028 16.7716 35.9857 16.792 35.4559C16.7352 34.9024 16.5606 34.3675 16.2798 33.8872C15.999 33.4069 15.6187 32.9922 15.1643 32.6711C14.7131 32.258 14.2954 31.8677 14.2399 31.508C14.2466 31.244 14.3067 30.984 14.4137 30.7427C14.5955 30.2647 14.8047 29.7968 15.0153 29.3276C15.4722 28.3857 15.8371 27.4018 16.1048 26.3897L16.2165 25.9218C16.4528 24.808 16.757 23.7097 17.1276 22.6331C18.0059 20.2093 19.3655 17.9874 21.1249 16.1037C23.2559 13.849 26.6102 12.2534 31.1115 11.359C34.5541 10.6033 38.0474 10.1 41.5633 9.85303C43.3169 9.75805 45.0757 9.85781 46.8073 10.1505C47.0951 10.1932 47.3882 10.1219 47.6241 9.9517C47.8601 9.78152 48.0203 9.52595 48.0706 9.2394C48.1749 8.64247 47.7832 8.07296 47.1883 7.95598C45.2929 7.63392 43.3674 7.52407 41.4477 7.62844C37.8214 7.87527 34.2182 8.38778 30.667 9.16186C25.6436 10.1645 21.9932 11.9259 19.5012 14.5596C17.5356 16.6631 16.0157 19.1424 15.0326 21.8483C14.6316 23.0127 14.302 24.2012 14.0454 25.4045L13.9337 25.8744C13.6958 26.748 13.3769 27.5976 12.9812 28.4118C12.7586 28.9198 12.5266 29.4278 12.3274 29.9539C12.0709 30.5395 11.9691 31.1813 12.032 31.8175C12.2567 32.815 12.8334 33.698 13.6563 34.3048C14.2011 34.8048 14.5587 35.1571 14.5634 35.4632C14.5233 35.633 14.4591 35.7961 14.3729 35.9479C13.038 38.7594 11.4023 41.4178 9.49323 43.8756C8.68775 44.8569 7.84417 46.0013 8.02398 47.151C8.25994 48.0381 8.8435 48.7907 9.64162 49.2399V49.2353ZM20.4424 27.4038L20.554 26.9078C20.7491 25.9816 20.9973 25.0675 21.2973 24.1698C21.9687 22.3101 23.0084 20.605 24.3541 19.1565C25.7979 17.7952 27.5651 16.8248 29.4885 16.337C29.6788 16.2827 29.8512 16.1788 29.9881 16.036C30.1251 15.8931 30.2216 15.7164 30.2677 15.524C30.3139 15.3316 30.3081 15.1304 30.251 14.9409C30.1938 14.7515 30.0873 14.5807 29.9424 14.4459C29.7966 14.3117 29.6178 14.2186 29.4242 14.1763C29.2306 14.134 29.0292 14.144 28.8408 14.2053C26.5452 14.8016 24.4423 15.98 22.7352 17.6264C21.1837 19.2941 19.9853 21.2581 19.2118 23.4004C18.8776 24.3894 18.602 25.3971 18.3862 26.4185L18.2746 26.9011C18.2085 27.1887 18.2589 27.4908 18.4148 27.7413C18.5708 27.9918 18.8196 28.1704 19.1068 28.238C19.1896 28.2579 19.2744 28.2676 19.3595 28.2667C19.611 28.2659 19.8548 28.1801 20.0515 28.0234C20.2482 27.8666 20.3861 27.6481 20.4431 27.4031L20.4424 27.4038Z" fill="#022A4D"/>
<path d="M18.0279 32.0902C18.6433 32.0902 19.1422 31.5913 19.1422 30.9759C19.1422 30.3605 18.6433 29.8616 18.0279 29.8616C17.4125 29.8616 16.9136 30.3605 16.9136 30.9759C16.9136 31.5913 17.4125 32.0902 18.0279 32.0902Z" fill="#022A4D"/>
<path d="M38.08 30.0956C38.0038 33.8937 39.3461 37.5836 41.8434 40.4445C42.6297 41.2617 43.4871 42.0072 44.4055 42.6725C46.0352 43.9325 47.5793 45.1364 47.9884 46.8121C47.3664 47.0583 46.8325 47.4856 46.4559 48.0385C46.0793 48.5915 45.8774 49.2447 45.8761 49.9137V52.1417C45.879 52.8304 46.0946 53.5014 46.4934 54.063C46.8922 54.6245 47.4547 55.0491 48.1041 55.2787V55.4839C48.1048 56.6655 48.5745 57.7984 49.4099 58.6339C50.2454 59.4694 51.3784 59.9391 52.5599 59.9398C53.7415 59.9391 54.8744 59.4694 55.7099 58.6339C56.5454 57.7984 57.0151 56.6655 57.0158 55.4839V55.2787C57.6651 55.0491 58.2277 54.6245 58.6265 54.063C59.0253 53.5014 59.2409 52.8304 59.2437 52.1417V49.9137C59.2422 49.2443 59.0396 48.5907 58.6623 48.0377C58.285 47.4847 57.7503 47.0577 57.1274 46.8121C57.5365 45.141 59.0813 43.9325 60.7103 42.6725C61.6284 42.0069 62.4858 41.2613 63.2725 40.4445C65.7725 37.5836 67.116 33.8937 67.0412 30.0956C67.0104 22.0716 60.5813 15.5322 52.5586 15.3798C44.5372 15.5389 38.1081 22.0642 38.0774 30.0956H38.08ZM49.2197 32.0896H48.1067C47.8114 32.0891 47.5283 31.9715 47.3194 31.7626C47.1105 31.5538 46.993 31.2707 46.9924 30.9753C46.993 30.6799 47.1105 30.3968 47.3194 30.188C47.5283 29.9791 47.8114 29.8615 48.1067 29.861C48.7217 29.861 49.221 30.3597 49.221 30.9753V32.0896H49.2197ZM53.6762 46.5722H51.449V34.3175H53.6769L53.6762 46.5722ZM52.5626 57.7112C51.3327 57.7112 50.3347 56.7139 50.3347 55.4832H54.7912C54.7912 56.7085 53.7932 57.7112 52.5626 57.7112ZM57.0185 52.1417C57.0179 52.437 56.9004 52.7202 56.6915 52.929C56.4827 53.1379 56.1995 53.2555 55.9042 53.256H49.2197C48.9243 53.2555 48.6412 53.1379 48.4324 52.929C48.2235 52.7202 48.1059 52.437 48.1054 52.1417V49.9137C48.1059 49.6184 48.2235 49.3353 48.4324 49.1264C48.6412 48.9175 48.9243 48.8 49.2197 48.7994H55.9042C56.1995 48.8 56.4827 48.9175 56.6915 49.1264C56.9004 49.3353 57.0179 49.6184 57.0185 49.9137V52.1417ZM64.8166 30.1297C64.8859 33.3644 63.7491 36.5092 61.6274 38.9519C60.9287 39.6684 60.1694 40.3232 59.358 40.9091C58.0449 41.8241 56.8802 42.9356 55.9048 44.2045V34.3182H57.0191C57.6802 34.3182 58.3264 34.1222 58.876 33.7549C59.4256 33.3877 59.854 32.8657 60.107 32.255C60.3599 31.6443 60.4261 30.9723 60.2972 30.3239C60.1682 29.6756 59.8499 29.0801 59.3825 28.6127C58.915 28.1452 58.3195 27.8269 57.6712 27.698C57.0229 27.569 56.3508 27.6352 55.7401 27.8881C55.1294 28.1411 54.6074 28.5695 54.2402 29.1191C53.8729 29.6688 53.6769 30.3149 53.6769 30.976V32.0903H51.449V30.976C51.449 30.3149 51.253 29.6688 50.8857 29.1191C50.5185 28.5695 49.9965 28.1411 49.3858 27.8881C48.775 27.6352 48.103 27.569 47.4547 27.698C46.8064 27.8269 46.2108 28.1452 45.7434 28.6127C45.276 29.0801 44.9577 29.6756 44.8287 30.3239C44.6998 30.9723 44.766 31.6443 45.0189 32.255C45.2719 32.8657 45.7003 33.3877 46.2499 33.7549C46.7995 34.1222 47.4457 34.3182 48.1067 34.3182H49.221V44.2065C48.2476 42.9377 47.0847 41.8262 45.7732 40.9111C44.9617 40.3246 44.2022 39.6693 43.5031 38.9525C41.3792 36.5109 40.2407 33.3658 40.3093 30.1304C40.4209 23.3416 46.0265 17.6077 52.5633 17.6077C59.1 17.6077 64.711 23.343 64.8159 30.1311L64.8166 30.1297ZM55.9048 32.0883V30.9733C55.9054 30.6779 56.0229 30.3948 56.2318 30.1859C56.4407 29.9771 56.7238 29.8595 57.0191 29.859C57.3146 29.8595 57.5978 29.9772 57.8067 30.1862C58.0156 30.3952 58.1331 30.6785 58.1334 30.974C58.1334 31.5889 57.6348 32.0883 57.0191 32.0883H55.9048ZM70.3861 30.976H73.7283C74.0237 30.9754 74.3068 30.8579 74.5157 30.649C74.7245 30.4402 74.8421 30.157 74.8426 29.8617C74.8421 29.5663 74.7245 29.2832 74.5157 29.0743C74.3068 28.8655 74.0237 28.7479 73.7283 28.7474H70.3861C70.0907 28.7479 69.8076 28.8655 69.5987 29.0743C69.3899 29.2832 69.2723 29.5663 69.2718 29.8617C69.2723 30.157 69.3899 30.4402 69.5987 30.649C69.8076 30.8579 70.0907 30.9754 70.3861 30.976ZM65.1722 18.3731C65.4683 18.3731 65.7517 18.2561 65.961 18.0469L68.3239 15.6832C68.6134 15.4038 68.7297 14.9894 68.6274 14.6004C68.5251 14.2113 68.221 13.9065 67.8253 13.7982C67.4295 13.6899 67.0218 13.8116 66.7424 14.1017L64.3787 16.4647C64.0592 16.7828 63.9643 17.2628 64.1361 17.6792C64.3079 18.0957 64.715 18.3677 65.1655 18.3677L65.1722 18.3731ZM52.5626 13.1512C52.858 13.1506 53.1411 13.0331 53.35 12.8242C53.5588 12.6153 53.6764 12.3322 53.6769 12.0369V8.69462C53.6764 8.39926 53.5588 8.11614 53.35 7.90728C53.1411 7.69842 52.858 7.58085 52.5626 7.58032C52.2672 7.58103 51.9842 7.69877 51.7755 7.90775C51.5667 8.11673 51.4493 8.39992 51.449 8.69529V12.0375C51.449 12.6525 51.9476 13.1512 52.5626 13.1512ZM40.7538 18.0455C40.9628 17.8365 41.0804 17.553 41.0807 17.2574C41.0807 16.962 40.963 16.6779 40.7465 16.4687L38.3828 14.1057C38.1034 13.8163 37.689 13.7 37.3 13.8022C36.9109 13.9045 36.6061 14.2086 36.4978 14.6044C36.3895 15.0001 36.5112 15.4078 36.8013 15.6872L39.1643 18.0509C39.3733 18.2599 39.6567 18.3774 39.9524 18.3777C40.2478 18.3777 40.5319 18.2601 40.7411 18.0435L40.7538 18.0455ZM31.3956 28.7407C31.1002 28.7412 30.8171 28.8588 30.6082 29.0676C30.3994 29.2765 30.2818 29.5596 30.2813 29.855C30.2806 30.0018 30.309 30.1473 30.3647 30.2831C30.4204 30.419 30.5023 30.5425 30.6059 30.6466C30.7094 30.7508 30.8324 30.8335 30.9679 30.89C31.1034 30.9465 31.2487 30.9757 31.3956 30.976H34.7378C35.0332 30.9754 35.3163 30.8579 35.5251 30.649C35.734 30.4402 35.8516 30.157 35.8521 29.8617C35.8516 29.5663 35.734 29.2832 35.5251 29.0743C35.3163 28.8655 35.0332 28.7479 34.7378 28.7474H31.3956V28.7407Z" fill="#F15A28"/>
</g>
<defs>
<clipPath id="clip0_588_2620">
<rect width="66.8434" height="76" fill="white" transform="translate(8 3)"/>
</clipPath>
</defs>
</svg>
