<svg width="83" height="82" viewBox="0 0 83 82" fill="none" xmlns="http://www.w3.org/2000/svg">
<g clip-path="url(#clip0_588_2592)">
<path d="M31.2286 15.0286H22.8286C22.2286 15.0286 21.8 15.4571 21.8 16.0571C21.8 16.6571 22.2286 17.0857 22.8286 17.0857H31.2286C31.8286 17.0857 32.2572 16.6571 32.2572 16.0571C32.2572 15.4571 31.7429 15.0286 31.2286 15.0286Z" fill="#F15A28"/>
<path d="M41.8571 35.9429C42.2 35.7714 42.5428 35.6 42.9714 35.5143H43.0571V16.1429C43.0571 13.3143 40.7428 11 37.9143 11H16.1428C13.3143 11 11.0857 13.3143 11.0857 16.0571V16.1429V24.5429C11.0857 25.1429 11.5143 25.5714 12.1143 25.5714C12.7143 25.5714 13.1428 25.1429 13.1428 24.5429V21.2H41V36.4571C41.2571 36.2857 41.5143 36.1143 41.8571 35.9429ZM13.1428 19.1429V16.1429C13.1428 14.4286 14.5143 13.0571 16.2286 13.0571H37.9143C39.6285 13.0571 41 14.4286 41 16.1429V19.2286H13.1428V19.1429Z" fill="#F15A28"/>
<path d="M11.4285 28.4857C11.0857 28.7429 10.9143 29.2572 11.0857 29.6857C11.2571 30.1143 11.6857 30.3715 12.1143 30.3715C12.5428 30.3715 12.9714 30.1143 13.0571 29.6C13.1428 29.1715 13.0571 28.7429 12.7143 28.4857C12.2857 28.3143 11.8571 28.3143 11.4285 28.4857Z" fill="#F15A28"/>
<path d="M12.1143 33.1143C11.6 33.1143 11.0857 33.5428 11.0857 34.1428V61.3143C11.0857 64.1428 13.4 66.4571 16.2286 66.4571H29.8571C29.7714 65.7714 29.6857 65.0857 29.7714 64.4H16.1428C14.4286 64.4 13.1428 63.0285 13.1428 61.3143V53.4285H29.6857L27.7143 51.6285H13.1428V34.1428C13.1428 33.6285 12.6286 33.1143 12.1143 33.1143Z" fill="#F15A28"/>
<path d="M27.0286 55.0571C24.8858 55.0571 23.2572 56.7714 23.2572 58.8286C23.2572 60.8857 24.9715 62.6 27.0286 62.6C29.0858 62.6 30.8001 60.8857 30.8001 58.8286C30.8001 56.7714 29.0858 55.0571 27.0286 55.0571ZM27.0286 60.8857C25.9143 60.8857 25.0572 60.0286 25.0572 58.9143C25.0572 57.8 25.9143 56.9428 27.0286 56.9428C28.1429 56.9428 29.0001 57.8 29.0001 58.9143C29.0001 59.9428 28.1429 60.8857 27.0286 60.8857Z" fill="#F15A28"/>
<path d="M57.2857 30.3715C57.2857 29.7715 56.8571 29.3429 56.2571 29.3429H46.1428V31.4H56.2571C56.8571 31.4 57.2857 30.9715 57.2857 30.3715Z" fill="#022A4D"/>
<path d="M32.6857 66.9714C33.0285 69.2 34.9142 70.9142 37.2285 71H56C59.9428 71 63.7142 69.4571 66.5428 66.7142C69.2857 63.8857 70.8285 60.1142 70.8285 56.1714C70.8285 52.2285 69.2857 48.4571 66.4571 45.7142L56.8571 36.1142C55.9142 35.1714 54.6285 34.6571 53.3428 34.6571H53.2571C52.1428 34.6571 51.0285 35.0857 50.2571 35.9428C49.6571 36.5428 49.3142 37.2285 49.1428 38.0857L49.0571 38.2571L48.8857 38.1714C48.2 37.7428 47.4285 37.5714 46.6571 37.5714C46.3142 37.5714 45.9714 37.5714 45.6285 37.6571C45.5428 37.7428 45.4571 37.7428 45.3714 37.7428C45.0285 37.8285 44.6857 38 44.3428 38.1714C44 38.3428 43.5714 38.6 43.3142 38.9428C42.8 39.5428 42.3714 40.2285 42.2857 41V41.2571L42.0285 41C40.2285 39.8857 37.9142 40.1428 36.4571 41.6C35.9428 42.2 35.5142 42.8857 35.3428 43.5714L35.2571 43.8285L30.9714 39.5428C29.3428 37.8285 26.6857 37.5714 24.8 39.0285L24.4571 39.3714C23.6 40.2285 23.1714 41.3428 23.1714 42.5428C23.1714 43.8285 23.7714 45.0285 24.7142 45.9714L30.3714 51.6285L32.6 53.8571L39.8 61.0571H37.3142C36.8 61.0571 36.2857 61.0571 35.8571 61.2285C35.0857 61.4857 34.4 61.8285 33.8 62.4285C33.1142 63.0285 32.6857 63.8857 32.5142 64.7428C32.5142 65.5142 32.5142 66.2 32.6857 66.9714ZM35.2571 63.9714C35.6857 63.3714 36.3714 63.1142 37.1428 63.1142H41.8571L43.7428 65C44.1714 65.3428 44.7714 65.3428 45.2857 65C45.6285 64.5714 45.6285 63.8857 45.2857 63.4571L26.0857 44.3428C25.4 43.6571 25.0571 42.6285 25.2285 41.6857C25.3142 41.1714 25.6571 40.7428 26.0857 40.4857C26.5142 40.1428 27.1142 39.9714 27.7142 40.0571C28.4 40.1428 29 40.4 29.4285 40.8285L42.7142 54.0285C43.1428 54.3714 43.7428 54.3714 44.2571 54.0285C44.6 53.6 44.6 52.9142 44.2571 52.4857L38.2571 46.4857C37.7428 45.9714 37.4 45.2 37.4 44.5142C37.4 43.3142 38.3428 42.2857 39.5428 42.2857C39.6285 42.2857 39.7142 42.2857 39.8 42.2857C40.4857 42.3714 41.1714 42.6285 41.6857 43.1428L47.6857 49.1428C47.8571 49.3142 48.1142 49.4 48.4571 49.4C48.7142 49.4 48.9714 49.3142 49.2285 49.1428C49.5714 48.7142 49.5714 48.0285 49.2285 47.6L45.2857 43.6571C45.1142 43.4857 44.9428 43.2285 44.8571 42.9714C44.4285 42.6285 44.2571 42.2 44.2571 41.6857C44.2571 41.0857 44.5142 40.4857 44.9428 40.1428L45.0285 40.0571C45.4571 39.7142 46.0571 39.5428 46.5714 39.5428C47.2571 39.6285 47.9428 39.8857 48.5428 40.3142L52.4857 44.2571C52.6571 44.4285 52.9142 44.5142 53.2571 44.5142C53.5142 44.5142 53.7714 44.4285 54.0285 44.2571C54.3714 43.8285 54.3714 43.1428 54.0285 42.7142L52.0571 41C51.5428 40.5714 51.2 39.8857 51.2 39.1142C51.2 38.5142 51.3714 37.9142 51.8 37.4C52.3142 36.9714 52.9142 36.7142 53.6 36.7142C54.2857 36.8 54.9714 37.0571 55.4857 37.5714L65 47.2571C67.4 49.5714 68.7714 52.8285 68.7714 56.1714C68.7714 63.2857 63.1142 69.0285 56 69.0285C56 69.0285 56 69.0285 55.9142 69.0285H37.2285C35.9428 69.0285 34.8285 68 34.6571 66.7142V65.6857C34.6571 65 34.8285 64.4857 35.2571 63.9714Z" fill="#022A4D"/>
<path d="M22.6571 36.2C22.4857 36.0286 22.2285 35.9429 21.9714 35.9429C21.7143 35.9429 21.3714 36.0286 21.2 36.2C19.5714 37.8286 18.6285 39.9714 18.6285 42.2857C18.6285 44.6 19.5714 46.7429 21.2 48.3714C21.3714 48.5429 21.7143 48.6286 21.9714 48.6286C22.2285 48.6286 22.4857 48.5429 22.7428 48.3714C23.0857 47.9429 23.0857 47.2572 22.7428 46.8286C20.2571 44.2572 20.2571 40.2286 22.7428 37.6572C23.0857 37.3143 23.0857 36.6286 22.6571 36.2Z" fill="#022A4D"/>
<path d="M59.8572 24.3715H50C49.4 24.3715 48.9714 24.8 48.9714 25.4C48.9714 26 49.4 26.4286 50 26.4286H59.8572C60.4572 26.4286 60.8857 26 60.8857 25.4C60.8857 24.8 60.4572 24.3715 59.8572 24.3715Z" fill="#022A4D"/>
<path d="M64.8286 24.6285C64.4857 24.3714 64.0572 24.3714 63.7143 24.6285L63.6286 24.7142C63.4572 24.8 63.2857 24.9714 63.2 25.1428C63.1143 25.4 63.1143 25.6571 63.2 25.9142C63.3715 26.3428 63.8 26.6 64.2286 26.6C64.6572 26.6 64.9143 26.3428 65.1715 25.8285C65.3429 25.4 65.1715 24.8857 64.8286 24.6285Z" fill="#022A4D"/>
</g>
<defs>
<clipPath id="clip0_588_2592">
<rect width="60" height="60" fill="white" transform="translate(11 11)"/>
</clipPath>
</defs>
</svg>
