<svg width="80" height="74" viewBox="0 0 80 74" fill="none" xmlns="http://www.w3.org/2000/svg">
<g id="Frame" clip-path="url(#clip0_580_8607)">
<g id="Page-1">
<g id="MKTG-2887-Service-page">
<g id="Group-23-Copy">
<path id="Stroke-1" fill-rule="evenodd" clip-rule="evenodd" d="M78.4901 52.1436L51.5552 32.5874V65.78C51.5552 66.7858 52.438 67.1315 53.2407 66.3522L60.7874 59.0692L68.0626 71.8873C68.6759 72.8872 70.1192 73.104 71.2774 72.3755L74.3183 70.4635C75.455 69.7486 75.9062 68.3561 75.3359 67.3581L68.3517 55.2294H77.496C78.6541 55.2294 79.369 52.7276 78.4901 52.1436Z" stroke="#323232"/>
<path id="Stroke-15" d="M26.5568 36.3488V38.3019C26.5568 40.4581 28.3477 42.208 30.5059 42.208H34.412C36.5682 42.208 38.2752 40.4581 38.2752 38.3019V37.2101C38.2752 35.5305 37.2206 34.0364 35.6269 33.5051L29.2383 31.3802C27.6427 30.8489 26.5568 29.3548 26.5568 27.6752V26.5834C26.5568 24.4272 28.3477 22.6772 30.5059 22.6772H34.412C36.5682 22.6772 38.2752 24.4272 38.2752 26.5834V28.5365" stroke="#F15A28"/>
<path id="Stroke-17" d="M32.4163 22.6772V16.8181" stroke="#F15A28"/>
<path id="Stroke-19" d="M32.4163 42.2085V48.0676" stroke="#F15A28"/>
<path id="Stroke-21" d="M44.1354 61.4375C40.5281 62.8926 36.5868 63.6914 32.458 63.6914C15.2006 63.6914 1.20874 49.7015 1.20874 32.4421C1.20874 15.1847 15.2006 1.19287 32.458 1.19287C49.0592 1.19287 62.6389 14.1398 63.6487 30.4852" stroke="#323232"/>
</g>
</g>
</g>
</g>
<defs>
<clipPath id="clip0_580_8607">
<rect width="79.9677" height="74" fill="white" transform="translate(0.0161133)"/>
</clipPath>
</defs>
</svg>
