<svg width="100" height="100" viewBox="0 0 100 100" fill="none" xmlns="http://www.w3.org/2000/svg">
<path d="M35.8333 65.9194C36.1949 65.9194 36.5416 65.7757 36.7973 65.5201C37.0529 65.2644 37.1966 64.9177 37.1966 64.5561V48.7817C37.1966 48.4201 37.0529 48.0734 36.7973 47.8177C36.5416 47.5621 36.1949 47.4185 35.8333 47.4185H26.2908C25.9292 47.4185 25.5825 47.5621 25.3268 47.8177C25.0712 48.0734 24.9275 48.4201 24.9275 48.7817V64.5561C24.9275 64.9177 25.0712 65.2644 25.3268 65.5201C25.5825 65.7757 25.9292 65.9194 26.2908 65.9194H35.8333ZM27.654 50.1449H34.6649V62.9982H27.654V50.1449Z" fill="#4F4F4F"/>
<path d="M17.5272 64.3616V37.4866C17.5272 37.1251 17.3835 36.7783 17.1279 36.5227C16.8722 36.267 16.5255 36.1234 16.1639 36.1234H6.62138C6.25983 36.1234 5.91309 36.267 5.65743 36.5227C5.40178 36.7783 5.25815 37.1251 5.25815 37.4866V64.3616C5.25815 64.7232 5.40178 65.0699 5.65743 65.3256C5.91309 65.5812 6.25983 65.7249 6.62138 65.7249H16.1639C16.5255 65.7249 16.8722 65.5812 17.1279 65.3256C17.3835 65.0699 17.5272 64.7232 17.5272 64.3616ZM14.9955 62.9984H7.9846V38.8499H14.9955V62.9984Z" fill="#4F4F4F"/>
<path d="M11.4757 29.6382C12.5131 29.638 13.5367 29.4002 14.4679 28.9431C15.3992 28.4859 16.2133 27.8215 16.8479 27.0008L24.5965 32.3954C24.3642 33.33 24.3331 34.3032 24.5051 35.2507C24.6771 36.1982 25.0483 37.0984 25.5943 37.8917C26.1402 38.685 26.8484 39.3533 27.6719 39.8524C28.4954 40.3516 29.4156 40.6701 30.3714 40.7871C31.3273 40.904 32.2971 40.8166 33.2166 40.5307C34.1362 40.2448 34.9846 39.7668 35.7056 39.1285C36.4266 38.4902 37.0039 37.7061 37.3992 36.8279C37.7946 35.9498 37.9989 34.9978 37.9988 34.0348C37.9981 33.7581 37.9807 33.4817 37.9468 33.2071L46.1279 26.3073C47.2238 27.3972 48.6583 28.0813 50.1951 28.2467C51.7319 28.4121 53.2791 28.0489 54.5819 27.2171C55.8846 26.3854 56.8651 25.1346 57.3617 23.6709C57.8584 22.2072 57.8415 20.618 57.3139 19.1652L64.6948 12.3991C65.4987 13.8447 66.8022 14.9476 68.361 15.5011C69.9198 16.0547 71.627 16.0208 73.1626 15.4059C74.6982 14.791 75.9569 13.6373 76.7029 12.161C77.449 10.6846 77.6311 8.98686 77.2151 7.38586C76.7992 5.78486 75.8137 4.39045 74.4434 3.46389C73.0731 2.53734 71.412 2.14222 69.7713 2.35257C68.1306 2.56291 66.6228 3.36429 65.5306 4.60655C64.4383 5.84881 63.8365 7.44671 63.8379 9.10086C63.8379 9.22666 63.8418 9.3515 63.8486 9.47555L55.8504 16.8074C54.7624 15.6571 53.3069 14.9228 51.7352 14.7312C50.1635 14.5395 48.5743 14.9027 47.2418 15.7578C45.9092 16.613 44.9171 17.9065 44.4366 19.4152C43.9561 20.9238 44.0173 22.5529 44.6098 24.0212L36.9787 30.4571C36.3997 29.5195 35.6012 28.7368 34.6523 28.1765C33.7033 27.6163 32.6323 27.2953 31.5317 27.2412C30.431 27.1872 29.3337 27.4017 28.3344 27.8663C27.3351 28.3309 26.4638 29.0316 25.7957 29.9079L18.0643 24.525C18.4164 23.1513 18.3304 21.7019 17.8182 20.3795C17.306 19.0571 16.3933 17.9278 15.2078 17.1496C14.0223 16.3715 12.6232 15.9833 11.2062 16.0393C9.78919 16.0954 8.42515 16.593 7.30484 17.4624C6.18452 18.3319 5.36396 19.5297 4.95791 20.8885C4.55185 22.2472 4.58062 23.6989 5.04018 25.0404C5.49974 26.382 6.36711 27.5464 7.52099 28.3708C8.67486 29.1952 10.0575 29.6383 11.4757 29.6382ZM70.6406 5.02559C71.4466 5.02556 72.2345 5.26453 72.9047 5.71231C73.5749 6.16008 74.0973 6.79653 74.4058 7.54119C74.7143 8.28584 74.795 9.10525 74.6378 9.89578C74.4805 10.6863 74.0924 11.4125 73.5225 11.9824C72.9526 12.5524 72.2264 12.9405 71.4359 13.0978C70.6454 13.2551 69.826 13.1744 69.0813 12.8659C68.3366 12.5575 67.7001 12.0351 67.2523 11.365C66.8045 10.6948 66.5655 9.90688 66.5655 9.10086C66.5668 8.02044 66.9965 6.98463 67.7604 6.22065C68.5244 5.45666 69.5602 5.02688 70.6406 5.02559ZM50.919 17.4093C51.725 17.4093 52.5129 17.6483 53.1831 18.0961C53.8533 18.5439 54.3756 19.1804 54.6841 19.925C54.9925 20.6697 55.0732 21.4891 54.916 22.2796C54.7587 23.0702 54.3706 23.7963 53.8007 24.3662C53.2307 24.9362 52.5046 25.3243 51.7141 25.4815C50.9235 25.6388 50.1041 25.5581 49.3595 25.2496C48.6148 24.9412 47.9783 24.4189 47.5306 23.7487C47.0828 23.0785 46.8437 22.2906 46.8437 21.4846C46.845 20.4041 47.2747 19.3683 48.0387 18.6043C48.8027 17.8403 49.8386 17.4106 50.919 17.4093ZM31.1972 29.9596C32.0033 29.9595 32.7912 30.1985 33.4614 30.6463C34.1316 31.094 34.6539 31.7305 34.9624 32.4751C35.2709 33.2198 35.3516 34.0392 35.1944 34.8297C35.0372 35.6203 34.6491 36.3464 34.0791 36.9164C33.5092 37.4863 32.7831 37.8745 31.9925 38.0318C31.202 38.189 30.3826 38.1083 29.6379 37.7999C28.8933 37.4914 28.2568 36.9691 27.809 36.2989C27.3612 35.6288 27.1222 34.8408 27.1222 34.0348C27.1234 32.9544 27.5531 31.9186 28.3171 31.1546C29.081 30.3906 30.1168 29.9608 31.1972 29.9596ZM11.4757 18.7605C12.2817 18.7605 13.0696 18.9995 13.7397 19.4473C14.4099 19.8951 14.9322 20.5315 15.2407 21.2762C15.5491 22.0208 15.6299 22.8402 15.4726 23.6307C15.3154 24.4212 14.9273 25.1474 14.3574 25.7173C13.7875 26.2873 13.0613 26.6754 12.2708 26.8327C11.4803 26.9899 10.6609 26.9093 9.91626 26.6008C9.1716 26.2924 8.53511 25.7701 8.08729 25.1C7.63947 24.4298 7.40043 23.6419 7.40039 22.8359C7.40163 21.7555 7.83138 20.7196 8.59537 19.9556C9.35935 19.1916 10.3952 18.7618 11.4757 18.7605Z" fill="#4F4F4F"/>
<path d="M76.73 50.3346V23.6868C76.73 22.9339 76.2092 22.2961 75.4563 22.2961H65.8242C65.4599 22.3025 65.1127 22.4519 64.8576 22.7121C64.6025 22.9723 64.46 23.3224 64.461 23.6868V50.438C61.8323 51.1893 59.3359 52.3434 57.0606 53.8591V36.0217C57.0606 35.2686 56.4878 34.5652 55.7348 34.5652H46.103C45.3501 34.5652 44.7916 35.2686 44.7916 36.0217V64.4546C44.7877 64.626 44.8193 64.7964 44.8844 64.9549C44.9494 65.1135 45.0466 65.257 45.1698 65.3762C45.2929 65.4955 45.4394 65.588 45.6 65.6479C45.7606 65.7079 45.9318 65.734 46.103 65.7246H47.9741C47.0939 68.3061 46.64 71.0138 46.6304 73.7413C46.6304 87.0871 57.4879 97.9678 70.8336 97.9678C84.1794 97.9678 94.9914 87.1218 94.9914 73.776C94.9914 62.4961 87.2463 53.0057 76.73 50.3346ZM67.1874 25.0226H74.0035V49.805C72.9383 49.6553 71.8638 49.5817 70.7881 49.5848C69.5825 49.584 68.3787 49.6764 67.1874 49.8613V25.0226ZM47.518 62.9981V37.2916H54.3342V56.0457C52.2122 58.0489 50.4485 60.4003 49.1194 62.9981H47.518ZM70.8333 95.2643C66.5856 95.2643 62.4333 94.0048 58.9015 91.645C55.3697 89.2851 52.6169 85.931 50.9914 82.0067C49.3658 78.0824 48.9404 73.7642 49.769 69.5981C50.5976 65.4321 52.643 61.6053 55.6465 58.6017C58.65 55.5981 62.4767 53.5526 66.6428 52.7238C70.8088 51.895 75.127 52.3202 79.0514 53.9457C82.9757 55.5711 86.33 58.3237 88.6899 61.8554C91.0499 65.3872 92.3096 69.5394 92.3097 73.7871C92.3034 79.4811 90.0387 84.9401 86.0124 88.9665C81.9862 92.9929 76.5273 95.2578 70.8333 95.2643Z" fill="#4F4F4F"/>
<path d="M83.2267 65.8612L71.5285 59.115C71.3201 58.9952 71.0839 58.9323 70.8435 58.9323C70.6031 58.9323 70.3669 58.9952 70.1585 59.115L58.4974 65.8612C58.2931 65.9821 58.1246 66.1552 58.009 66.3626C57.8934 66.57 57.835 66.8043 57.8396 67.0417V80.5341C57.8343 80.7712 57.8921 81.0055 58.0071 81.2129C58.122 81.4204 58.2901 81.5935 58.4939 81.7147L70.1653 88.4609C70.3706 88.5805 70.6041 88.6436 70.8417 88.6436C71.0794 88.6436 71.3128 88.5805 71.5182 88.4609L83.2285 81.7147C83.4388 81.5964 83.6147 81.4253 83.7387 81.2183C83.8627 81.0112 83.9306 80.7754 83.9356 80.5341V67.0417C83.9302 66.8003 83.862 66.5645 83.7377 66.3574C83.6134 66.1504 83.4373 65.9794 83.2267 65.8612ZM70.8333 61.8689L73.8337 63.6021L64.8754 68.7736L61.8749 67.0413L70.8333 61.8689ZM69.5244 84.9192L60.566 79.7466V69.4017L69.5244 74.5737V84.9192ZM70.8333 72.2128L67.6026 70.3477L76.561 65.1761L79.7916 67.0413L70.8333 72.2128ZM81.2092 79.7466L72.2508 84.9188V74.5741L81.2092 69.402V79.7466Z" fill="#4F4F4F"/>
</svg>
