<svg width="100" height="100" viewBox="0 0 100 100" fill="none" xmlns="http://www.w3.org/2000/svg">
<g clip-path="url(#clip0_704_1965)">
<path d="M46.1545 51.6115C44.7955 45.9698 39.6685 41.8479 33.7727 41.8479C27.8802 41.8479 22.7563 45.9666 21.3926 51.6115C18.3804 52.1454 16.0822 54.7668 16.0822 57.9302C16.0822 61.4779 18.9674 64.3631 22.5151 64.3631H45.0303C48.5781 64.3631 51.4632 61.4779 51.4632 57.9302C51.4632 54.7668 49.1651 52.1454 46.1545 51.6115ZM45.0303 61.1466H22.5151C20.7412 61.1466 19.2987 59.7041 19.2987 57.9302C19.2987 56.1563 20.7412 54.7137 22.5151 54.7137H22.7499C23.9754 54.7137 25.0786 55.3956 25.627 56.4908L25.902 57.0408L28.7792 55.6015L28.5042 55.0515C27.7081 53.4609 26.3266 52.3159 24.6926 51.8012C25.902 47.8804 29.5656 45.0644 33.7727 45.0644C37.9589 45.0644 41.6112 47.8514 42.8479 51.8061C41.2172 52.3207 39.8373 53.4641 39.0429 55.0531L38.7679 55.6031L41.645 57.0424L41.92 56.4924C42.4668 55.3956 43.57 54.7137 44.7955 54.7137H45.0303C46.8042 54.7137 48.2468 56.1563 48.2468 57.9302C48.2468 59.7041 46.8042 61.1466 45.0303 61.1466Z" fill="#4F4F4F"/>
<path d="M54.6797 32.1984H12.8657C11.0919 32.1984 9.64928 33.6409 9.64928 35.4148V70.7958C9.64928 72.5697 11.0919 74.0123 12.8657 74.0123H54.6797C56.4535 74.0123 57.8961 72.5697 57.8961 70.7958V35.4148C57.8961 33.6409 56.4535 32.1984 54.6797 32.1984ZM12.8657 70.7958V35.4148H54.6797L54.6813 70.7958H12.8657Z" fill="#4F4F4F"/>
<path d="M59.5044 80.4453C62.1644 80.4453 64.3291 78.2807 64.3291 75.6207V67.5795H87.1402C87.806 69.4467 89.5751 70.796 91.669 70.796C94.329 70.796 96.4937 68.6313 96.4937 65.9713C96.4937 63.3113 94.329 61.1466 91.669 61.1466C89.5751 61.1466 87.806 62.4959 87.1402 64.3631H64.3291V54.7137H80.7073C81.3731 56.5808 83.1422 57.9301 85.2361 57.9301C87.8961 57.9301 90.0608 55.7655 90.0608 53.1055C90.0608 50.4455 87.8961 48.2808 85.2361 48.2808C83.1422 48.2808 81.3731 49.6301 80.7073 51.4972H64.3291V45.0643H90.3567C91.0225 46.9315 92.7915 48.2808 94.8855 48.2808C97.5455 48.2808 99.7101 46.1161 99.7101 43.4561C99.7101 40.7961 97.5455 38.6314 94.8855 38.6314C92.7915 38.6314 91.0225 39.9807 90.3567 41.8479H64.3291V35.415H80.7073C81.3731 37.2821 83.1422 38.6314 85.2361 38.6314C87.8961 38.6314 90.0608 36.4667 90.0608 33.8067C90.0608 31.1467 87.8961 28.982 85.2361 28.982C83.1422 28.982 81.3731 30.3313 80.7073 32.1985H64.3291V30.5903C64.3291 27.9303 62.1644 25.7656 59.5044 25.7656H45.0304V16.1162H41.8139V25.7656H35.381V19.3327H32.1646V25.7656H25.7316V16.1162H22.5152V25.7656H16.0823V19.3327H12.8658V25.7656H8.04114C5.38113 25.7656 3.21646 27.9303 3.21646 30.5903V38.6314H0V41.8479H3.21646V45.0643H0V48.2808H3.21646V51.4972H0V54.7137H3.21646V57.9301H0V61.1466H3.21646V64.3631H0V67.5795H3.21646V75.6207C3.21646 78.2807 5.38113 80.4453 8.04114 80.4453H12.8658V86.8783H16.0823V80.4453H22.5152V90.0947H25.7316V80.4453H32.1646V86.8783H35.381V80.4453H41.8139V90.0947H45.0304V80.4453H59.5044ZM91.669 64.3631C92.5551 64.3631 93.2772 65.0835 93.2772 65.9713C93.2772 66.859 92.5551 67.5795 91.669 67.5795C90.7829 67.5795 90.0608 66.859 90.0608 65.9713C90.0608 65.0835 90.7829 64.3631 91.669 64.3631ZM85.2361 51.4972C86.1222 51.4972 86.8443 52.2177 86.8443 53.1055C86.8443 53.9932 86.1222 54.7137 85.2361 54.7137C84.35 54.7137 83.6279 53.9932 83.6279 53.1055C83.6279 52.2177 84.35 51.4972 85.2361 51.4972ZM94.8855 41.8479C95.7716 41.8479 96.4937 42.5683 96.4937 43.4561C96.4937 44.3438 95.7716 45.0643 94.8855 45.0643C93.9993 45.0643 93.2772 44.3438 93.2772 43.4561C93.2772 42.5683 93.9993 41.8479 94.8855 41.8479ZM85.2361 32.1985C86.1222 32.1985 86.8443 32.919 86.8443 33.8067C86.8443 34.6945 86.1222 35.415 85.2361 35.415C84.35 35.415 83.6279 34.6945 83.6279 33.8067C83.6279 32.919 84.35 32.1985 85.2361 32.1985ZM6.43291 75.6207V30.5903C6.43291 29.7025 7.15501 28.982 8.04114 28.982H59.5044C60.3906 28.982 61.1127 29.7025 61.1127 30.5903V75.6207C61.1127 76.5084 60.3906 77.2289 59.5044 77.2289H8.04114C7.15501 77.2289 6.43291 76.5084 6.43291 75.6207Z" fill="#4F4F4F"/>
<path d="M85.236 90.0947C83.1421 90.0947 81.3731 91.444 80.7073 93.3112H60.1702L57.8962 91.0371C57.2882 90.4292 56.4809 90.0947 55.6221 90.0947H48.2468V93.3112H55.6221L57.8962 95.5852C58.5041 96.1931 59.3114 96.5276 60.1702 96.5276H80.7073C81.3731 98.3948 83.1421 99.7441 85.236 99.7441C87.896 99.7441 90.0607 97.5794 90.0607 94.9194C90.0607 92.2594 87.896 90.0947 85.236 90.0947ZM85.236 96.5276C84.3499 96.5276 83.6278 95.8072 83.6278 94.9194C83.6278 94.0317 84.3499 93.3112 85.236 93.3112C86.1222 93.3112 86.8443 94.0317 86.8443 94.9194C86.8443 95.8072 86.1222 96.5276 85.236 96.5276Z" fill="#4F4F4F"/>
<path d="M94.8854 77.229C92.7915 77.229 91.0224 78.5783 90.3566 80.4455H73.1743C72.166 80.4455 71.2043 80.9279 70.6012 81.732L66.7414 86.8784H61.1126V90.0948H66.7414C67.7498 90.0948 68.7115 89.6124 69.3146 88.8082L73.1743 83.6619H90.3566C91.0224 85.5291 92.7915 86.8784 94.8854 86.8784C97.5454 86.8784 99.7101 84.7137 99.7101 82.0537C99.7101 79.3937 97.5454 77.229 94.8854 77.229ZM94.8854 83.6619C93.9993 83.6619 93.2772 82.9414 93.2772 82.0537C93.2772 81.1659 93.9993 80.4455 94.8854 80.4455C95.7716 80.4455 96.4936 81.1659 96.4936 82.0537C96.4936 82.9414 95.7716 83.6619 94.8854 83.6619Z" fill="#4F4F4F"/>
<path d="M67.5455 70.7959H70.762V74.0124H67.5455V70.7959Z" fill="#4F4F4F"/>
<path d="M73.9785 70.7959H77.1949V74.0124H73.9785V70.7959Z" fill="#4F4F4F"/>
<path d="M74.2744 19.3327H60.1702L57.8962 17.0586C57.2882 16.4507 56.4809 16.1162 55.6221 16.1162H48.2468V19.3327H55.6221L57.8962 21.6067C58.5041 22.2146 59.3114 22.5491 60.1702 22.5491H74.2744C74.9402 24.4163 76.7092 25.7656 78.8031 25.7656C81.4631 25.7656 83.6278 23.6009 83.6278 20.9409C83.6278 18.2809 81.4631 16.1162 78.8031 16.1162C76.7092 16.1162 74.9402 17.4655 74.2744 19.3327ZM80.4114 20.9409C80.4114 21.8286 79.6893 22.5491 78.8031 22.5491C77.917 22.5491 77.1949 21.8286 77.1949 20.9409C77.1949 20.0532 77.917 19.3327 78.8031 19.3327C79.6893 19.3327 80.4114 20.0532 80.4114 20.9409Z" fill="#4F4F4F"/>
<path d="M56.4487 11.6133L60.3085 6.46697H83.9237C84.5895 8.33412 86.3586 9.68342 88.4525 9.68342C91.1125 9.68342 93.2772 7.51875 93.2772 4.85874C93.2772 2.19873 91.1125 0.0340576 88.4525 0.0340576C86.3586 0.0340576 84.5895 1.38336 83.9237 3.25051H60.3085C59.3001 3.25051 58.3384 3.73298 57.7353 4.5371L53.8756 9.68342H35.381V12.8999H53.8756C54.8839 12.8999 55.8457 12.4174 56.4487 11.6133ZM88.4525 3.25051C89.3386 3.25051 90.0607 3.971 90.0607 4.85874C90.0607 5.74648 89.3386 6.46697 88.4525 6.46697C87.5663 6.46697 86.8443 5.74648 86.8443 4.85874C86.8443 3.971 87.5663 3.25051 88.4525 3.25051Z" fill="#4F4F4F"/>
</g>
<defs>
<clipPath id="clip0_704_1965">
<rect width="99.7101" height="99.7101" fill="white" transform="translate(0 0.0338135)"/>
</clipPath>
</defs>
</svg>
