<svg width="100" height="101" viewBox="0 0 100 101" fill="none" xmlns="http://www.w3.org/2000/svg">
<path d="M7.78986 69.3287V19.4736H76.3406V47.5171H79.4565V10.1258C79.4547 8.47358 78.7975 6.88955 77.6292 5.72125C76.4609 4.55294 74.8769 3.89578 73.2246 3.89392H10.9058C9.25357 3.89578 7.66954 4.55294 6.50124 5.72125C5.33294 6.88955 4.67577 8.47358 4.67391 10.1258V69.3287C4.67577 70.9809 5.33294 72.565 6.50124 73.7333C7.66954 74.9016 9.25357 75.5587 10.9058 75.5606H48.2971V72.4446H10.9058C10.0797 72.4437 9.28771 72.1151 8.70357 71.5309C8.11943 70.9468 7.79083 70.1548 7.78986 69.3287ZM10.9058 7.00986H73.2246C74.0507 7.01084 74.8427 7.33944 75.4269 7.92358C76.011 8.50772 76.3396 9.29971 76.3406 10.1258V16.3577H7.78986V10.1258C7.79083 9.29971 8.11943 8.50772 8.70357 7.92358C9.28771 7.33944 10.0797 7.01084 10.9058 7.00986Z" fill="#4F4F4F"/>
<path d="M10.9058 10.1257H14.0217V13.2417H10.9058V10.1257Z" fill="#4F4F4F"/>
<path d="M17.1377 10.1257H20.2536V13.2417H17.1377V10.1257Z" fill="#4F4F4F"/>
<path d="M23.3696 10.1257H26.4855V13.2417H23.3696V10.1257Z" fill="#4F4F4F"/>
<path d="M21.8116 55.3067V55.0794C21.8104 54.1329 21.5077 53.2113 20.9475 52.4484C20.3872 51.6854 19.5985 51.1208 18.6957 50.8363V49.0748H15.5797V50.8363C14.7341 51.1016 13.9871 51.6134 13.4344 52.3062C12.8818 52.999 12.5488 53.8411 12.4781 54.7245C12.4074 55.6079 12.6022 56.4923 13.0377 57.2642C13.4731 58.036 14.1292 58.6602 14.9219 59.0566L17.9599 60.5756C18.228 60.7096 18.4431 60.9303 18.5702 61.2018C18.6972 61.4733 18.7289 61.7797 18.6601 62.0715C18.5912 62.3633 18.4259 62.6232 18.1908 62.8093C17.9557 62.9953 17.6647 63.0966 17.365 63.0966H16.9104C16.5576 63.0962 16.2193 62.9559 15.9699 62.7064C15.7204 62.4569 15.5801 62.1187 15.5797 61.7659V61.5386H12.4638V61.7659C12.465 62.7124 12.7676 63.634 13.3279 64.397C13.8882 65.1599 14.6769 65.7245 15.5797 66.009V67.7705H18.6957V66.009C19.5412 65.7437 20.2883 65.2319 20.8409 64.5391C21.3936 63.8463 21.7266 63.0042 21.7973 62.1208C21.868 61.2374 21.6731 60.353 21.2377 59.5811C20.8023 58.8093 20.1461 58.1851 19.3535 57.7888L16.3155 56.2697C16.0473 56.1357 15.8323 55.9151 15.7052 55.6435C15.5781 55.372 15.5464 55.0656 15.6153 54.7738C15.6842 54.482 15.8495 54.2221 16.0846 54.036C16.3196 53.85 16.6106 53.7487 16.9104 53.7487H17.365C17.7178 53.7491 18.056 53.8894 18.3055 54.1389C18.555 54.3884 18.6953 54.7266 18.6957 55.0794V55.3067H21.8116Z" fill="#4F4F4F"/>
<path d="M24.9275 50.6331H28.0435V53.749H24.9275V50.6331Z" fill="#4F4F4F"/>
<path d="M31.1594 50.6331H54.529V53.749H31.1594V50.6331Z" fill="#4F4F4F"/>
<path d="M24.9275 56.865H48.2971V59.9809H24.9275V56.865Z" fill="#4F4F4F"/>
<path d="M24.9275 63.0967H43.6232V66.2126H24.9275V63.0967Z" fill="#4F4F4F"/>
<path d="M90.6956 75.465V72.5399L94.5223 69.0851C94.7611 68.8695 94.9273 68.5853 94.9981 68.2715C95.0689 67.9577 95.0408 67.6296 94.9177 67.3324L92.8242 62.2787C92.7009 61.9816 92.4888 61.7299 92.2168 61.5581C91.9448 61.3862 91.6264 61.3027 91.3051 61.319L86.1558 61.5813L84.088 59.5133L84.3509 54.3642C84.3674 54.0429 84.284 53.7244 84.1121 53.4524C83.9403 53.1805 83.6885 52.9683 83.3912 52.8452L78.3368 50.7517C78.0396 50.6286 77.7115 50.6005 77.3977 50.6712C77.0839 50.742 76.7996 50.9082 76.5841 51.147L73.1293 54.9738H70.2042L66.7494 51.147C66.5338 50.9082 66.2496 50.742 65.9357 50.6712C65.6219 50.6005 65.2939 50.6286 64.9967 50.7517L59.943 52.845C59.6457 52.9681 59.3939 53.1803 59.2221 53.4522C59.0503 53.7242 58.9668 54.0427 58.9833 54.364L59.2462 59.5131L57.1776 61.5813L52.0287 61.3182C51.7072 61.3008 51.3882 61.3838 51.1161 61.5558C50.8439 61.7277 50.6319 61.9801 50.5097 62.2779L48.4161 67.3324C48.293 67.6296 48.2649 67.9577 48.3357 68.2715C48.4065 68.5853 48.5727 68.8695 48.8115 69.0851L52.6382 72.5399V75.465L48.8115 78.9198C48.5727 79.1354 48.4065 79.4196 48.3357 79.7334C48.2649 80.0473 48.293 80.3753 48.4161 80.6725L50.5097 85.727C50.6331 86.0239 50.8453 86.2755 51.1172 86.4473C51.3891 86.6191 51.7075 86.7027 52.0287 86.6867L57.1776 86.4236L59.2458 88.492L58.9829 93.6409C58.9664 93.9622 59.0498 94.2807 59.2216 94.5526C59.3934 94.8246 59.6452 95.0367 59.9424 95.1599L64.997 97.2536C65.2943 97.3767 65.6223 97.4049 65.9361 97.3341C66.25 97.2633 66.5342 97.0971 66.7498 96.8583L70.2046 93.0315H73.1296L76.5845 96.8583C76.8 97.0971 77.0843 97.2633 77.3981 97.3341C77.7119 97.4049 78.04 97.3767 78.3372 97.2536L83.3918 95.1599C83.689 95.0367 83.9408 94.8246 84.1126 94.5526C84.2844 94.2807 84.3678 93.9622 84.3513 93.6409L84.0884 88.492L86.1566 86.4236L91.3055 86.6867C91.6269 86.7034 91.9455 86.62 92.2175 86.4482C92.4895 86.2763 92.7016 86.0243 92.8245 85.727L94.9181 80.6725C95.0412 80.3753 95.0693 80.0473 94.9985 79.7334C94.9277 79.4196 94.7615 79.1354 94.5227 78.9198L90.6956 75.465ZM90.3661 83.5187L85.6238 83.2765C85.4061 83.2652 85.1884 83.2998 84.9849 83.3781C84.7814 83.4564 84.5967 83.5765 84.4427 83.7308L81.3951 86.7778C81.241 86.9319 81.1209 87.1167 81.0426 87.3201C80.9644 87.5235 80.9296 87.7411 80.9407 87.9588L81.183 92.701L78.1601 93.9531L74.9774 90.4293C74.8313 90.2675 74.6529 90.1382 74.4537 90.0496C74.2545 89.9611 74.039 89.9154 73.821 89.9154H69.5113C69.2935 89.9155 69.0781 89.9614 68.8792 90.0499C68.6802 90.1384 68.502 90.2677 68.356 90.4293L65.1739 93.9542L62.151 92.7022L62.3933 87.9599C62.4044 87.7423 62.3697 87.5247 62.2914 87.3213C62.2131 87.1178 62.0931 86.9331 61.9389 86.779L58.8914 83.7308C58.7374 83.5764 58.5527 83.4561 58.3492 83.3778C58.1457 83.2996 57.928 83.265 57.7102 83.2765L52.9679 83.5187L51.7159 80.4959L55.2399 77.3131C55.4017 77.167 55.531 76.9886 55.6196 76.7894C55.7081 76.5902 55.7538 76.3746 55.7538 76.1565V71.8468C55.7536 71.6291 55.7078 71.4138 55.6192 71.2148C55.5307 71.0159 55.4015 70.8377 55.2399 70.6918L51.7149 67.5098L52.967 64.487L57.7092 64.7292C57.9269 64.7399 58.1444 64.7051 58.3478 64.6268C58.5512 64.5486 58.736 64.4287 58.8904 64.2749L61.938 61.2271C62.0921 61.073 62.2122 60.8882 62.2904 60.6848C62.3687 60.4814 62.4034 60.2638 62.3923 60.0462L62.15 55.3037L65.1729 54.0519L68.356 57.5756C68.5021 57.7374 68.6805 57.8667 68.8797 57.9553C69.0789 58.0438 69.2944 58.0895 69.5124 58.0895H73.8222C74.04 58.0894 74.2553 58.0436 74.4543 57.955C74.6532 57.8665 74.8315 57.7372 74.9774 57.5756L78.1596 54.0507L81.1824 55.3025L80.9402 60.045C80.9291 60.2627 80.9638 60.4802 81.042 60.6837C81.1203 60.8871 81.2404 61.0718 81.3945 61.2259L84.4421 64.2737C84.5962 64.4279 84.781 64.5479 84.9844 64.6262C85.1879 64.7045 85.4055 64.7392 85.6232 64.7281L90.3655 64.4858L91.6175 67.5086L88.0936 70.6918C87.9318 70.8379 87.8024 71.0163 87.7139 71.2155C87.6253 71.4148 87.5796 71.6304 87.5796 71.8484V76.1581C87.5798 76.3759 87.6257 76.5912 87.7142 76.7901C87.8027 76.989 87.9319 77.1672 88.0936 77.3131L91.6185 80.4951L90.3661 83.5187Z" fill="#4F4F4F"/>
<path d="M60.7609 47.5171H65.4348C65.7038 47.5171 65.9683 47.4475 66.2024 47.3149C66.4365 47.1824 66.6323 46.9914 66.7707 46.7607L71.4447 38.9709C71.5899 38.7287 71.6667 38.4517 71.6667 38.1693C71.6667 37.8869 71.5899 37.6099 71.4447 37.3677L66.7707 29.5779C66.6323 29.3472 66.4365 29.1562 66.2024 29.0237C65.9683 28.8911 65.7038 28.8215 65.4348 28.8215H60.7609C60.3477 28.8215 59.9514 28.9856 59.6592 29.2778C59.367 29.57 59.2029 29.9662 59.2029 30.3794V33.4954H45.1812V36.6113H60.7609C61.1741 36.6113 61.5703 36.4472 61.8625 36.155C62.1547 35.8628 62.3188 35.4666 62.3188 35.0534V31.9374H64.5528L68.2919 38.1693L64.5528 44.4012H62.3188V41.2852C62.3188 40.872 62.1547 40.4758 61.8625 40.1836C61.5703 39.8914 61.1741 39.7273 60.7609 39.7273H37.3913V42.8432H59.2029V45.9592C59.2029 46.3724 59.367 46.7686 59.6592 47.0608C59.9514 47.353 60.3477 47.5171 60.7609 47.5171Z" fill="#4F4F4F"/>
<path d="M31.1594 39.7271H34.2754V42.843H31.1594V39.7271Z" fill="#4F4F4F"/>
<path d="M42.0652 33.4954H23.3696C22.9564 33.4954 22.5601 33.6595 22.2679 33.9517C21.9758 34.2439 21.8116 34.6402 21.8116 35.0534V38.1693H19.5777L15.8385 31.9374L19.5777 25.7055H21.8116V28.8215C21.8116 29.2347 21.9758 29.631 22.2679 29.9231C22.5601 30.2153 22.9564 30.3795 23.3696 30.3795H46.7391V27.2635H24.9276V24.1476C24.9276 23.7344 24.7634 23.3381 24.4712 23.0459C24.1791 22.7537 23.7828 22.5896 23.3696 22.5896H18.6957C18.4266 22.5896 18.1622 22.6593 17.9281 22.7918C17.6939 22.9244 17.4981 23.1153 17.3597 23.346L12.6858 31.1359C12.5405 31.378 12.4638 31.6551 12.4638 31.9374C12.4638 32.2198 12.5405 32.4969 12.6858 32.739L17.3597 40.5289C17.4981 40.7596 17.6939 40.9505 17.9281 41.083C18.1622 41.2156 18.4266 41.2853 18.6957 41.2853H23.3696C23.7828 41.2853 24.1791 41.1211 24.4712 40.8289C24.7634 40.5368 24.9276 40.1405 24.9276 39.7273V36.6113H42.0652V33.4954Z" fill="#4F4F4F"/>
<path d="M49.8551 27.2635H52.971V30.3794H49.8551V27.2635Z" fill="#4F4F4F"/>
<path d="M12.4638 78.6765H37.3913V81.7924H12.4638V78.6765Z" fill="#4F4F4F"/>
<path d="M40.5072 78.6765H43.6232V81.7924H40.5072V78.6765Z" fill="#4F4F4F"/>
<path d="M71.6667 63.0967C69.5097 63.0967 67.4012 63.7363 65.6077 64.9346C63.8143 66.133 62.4165 67.8362 61.591 69.829C60.7656 71.8218 60.5496 74.0146 60.9704 76.1301C61.3912 78.2456 62.4299 80.1888 63.9551 81.714C65.4803 83.2392 67.4235 84.2779 69.5391 84.6987C71.6546 85.1195 73.8474 84.9036 75.8401 84.0781C77.8329 83.2527 79.5362 81.8549 80.7345 80.0614C81.9329 78.268 82.5725 76.1594 82.5725 74.0025C82.5692 71.1111 81.4192 68.339 79.3746 66.2945C77.3301 64.25 74.5581 63.0999 71.6667 63.0967ZM71.6667 81.7923C70.126 81.7923 68.6199 81.3355 67.3389 80.4795C66.0578 79.6235 65.0594 78.4069 64.4698 76.9835C63.8802 75.5601 63.7259 73.9938 64.0265 72.4828C64.3271 70.9717 65.069 69.5836 66.1584 68.4942C67.2478 67.4048 68.6359 66.6629 70.1469 66.3623C71.658 66.0617 73.2243 66.216 74.6477 66.8056C76.0711 67.3952 77.2877 68.3936 78.1437 69.6747C78.9997 70.9557 79.4565 72.4618 79.4565 74.0025C79.4542 76.0678 78.6327 78.0478 77.1724 79.5082C75.712 80.9686 73.732 81.79 71.6667 81.7923Z" fill="#4F4F4F"/>
</svg>
